<?xml version="1.0" encoding="UTF-8" standalone="no"?>
<!-- Created with Inkscape (http://www.inkscape.org/) -->

<svg
   xmlns:dc="http://purl.org/dc/elements/1.1/"
   xmlns:cc="http://creativecommons.org/ns#"
   xmlns:rdf="http://www.w3.org/1999/02/22-rdf-syntax-ns#"
   xmlns:svg="http://www.w3.org/2000/svg"
   xmlns="http://www.w3.org/2000/svg"
   xmlns:xlink="http://www.w3.org/1999/xlink"
   xmlns:sodipodi="http://sodipodi.sourceforge.net/DTD/sodipodi-0.dtd"
   xmlns:inkscape="http://www.inkscape.org/namespaces/inkscape"
   id="svg2"
   version="1.1"
   inkscape:version="0.48.2 r9819"
   width="3264"
   height="2448"
   sodipodi:docname="LogoEnglish_6.svg">
  <metadata
     id="metadata8">
    <rdf:RDF>
      <cc:Work
         rdf:about="">
        <dc:format>image/svg+xml</dc:format>
        <dc:type
           rdf:resource="http://purl.org/dc/dcmitype/StillImage" />
        <dc:title></dc:title>
      </cc:Work>
    </rdf:RDF>
  </metadata>
  <defs
     id="defs6">
    <linearGradient
       inkscape:collect="always"
       id="linearGradient3818">
      <stop
         style="stop-color:#000000;stop-opacity:1;"
         offset="0"
         id="stop3820" />
      <stop
         style="stop-color:#000000;stop-opacity:0;"
         offset="1"
         id="stop3822" />
    </linearGradient>
    <linearGradient
       inkscape:collect="always"
       id="linearGradient3810">
      <stop
         style="stop-color:#000000;stop-opacity:1;"
         offset="0"
         id="stop3812" />
      <stop
         style="stop-color:#000000;stop-opacity:0;"
         offset="1"
         id="stop3814" />
    </linearGradient>
    <filter
       inkscape:collect="always"
       id="filter4287">
      <feGaussianBlur
         inkscape:collect="always"
         stdDeviation="12.304566"
         id="feGaussianBlur4289" />
    </filter>
    <filter
       inkscape:collect="always"
       id="filter4303"
       x="-0.029448495"
       width="1.058897"
       y="-0.12971727"
       height="1.2594345">
      <feGaussianBlur
         inkscape:collect="always"
         stdDeviation="6.3582652"
         id="feGaussianBlur4305" />
    </filter>
    <filter
       inkscape:collect="always"
       id="filter4323"
       x="-0.13298354"
       width="1.2659671"
       y="-0.061388121"
       height="1.1227762">
      <feGaussianBlur
         inkscape:collect="always"
         stdDeviation="4.8353082"
         id="feGaussianBlur4325" />
    </filter>
    <filter
       inkscape:collect="always"
       id="filter4331"
       x="-0.068632097"
       width="1.1372642"
       y="-0.10823586"
       height="1.2164717">
      <feGaussianBlur
         inkscape:collect="always"
         stdDeviation="5.2756064"
         id="feGaussianBlur4333" />
    </filter>
    <filter
       inkscape:collect="always"
       id="filter4335">
      <feGaussianBlur
         inkscape:collect="always"
         stdDeviation="6.9445166"
         id="feGaussianBlur4337" />
    </filter>
    <linearGradient
       inkscape:collect="always"
       xlink:href="#linearGradient3810"
       id="linearGradient3816"
       x1="545.71883"
       y1="1210.4979"
       x2="2748.0312"
       y2="1376.1229"
       gradientUnits="userSpaceOnUse" />
    <linearGradient
       inkscape:collect="always"
       xlink:href="#linearGradient3818"
       id="linearGradient3824"
       x1="2718.5278"
       y1="1512.0752"
       x2="458.34033"
       y2="1815.2002"
       gradientUnits="userSpaceOnUse" />
    <linearGradient
       inkscape:collect="always"
       xlink:href="#linearGradient3810"
       id="linearGradient3134"
       gradientUnits="userSpaceOnUse"
       x1="545.71883"
       y1="1210.4979"
       x2="2748.0312"
       y2="1376.1229" />
    <linearGradient
       inkscape:collect="always"
       xlink:href="#linearGradient3818"
       id="linearGradient3137"
       gradientUnits="userSpaceOnUse"
       x1="2718.5278"
       y1="1512.0752"
       x2="458.34033"
       y2="1815.2002" />
    <linearGradient
       gradientTransform="translate(2.6951,-1.6933)"
       inkscape:collect="always"
       xlink:href="#linearGradient3818-1"
       id="linearGradient3028"
       gradientUnits="userSpaceOnUse"
       x1="2252.2793"
       y1="1609.3025"
       x2="458.34033"
       y2="1815.2002" />
    <linearGradient
       inkscape:collect="always"
       id="linearGradient3818-1">
      <stop
         style="stop-color:#000000;stop-opacity:1;"
         offset="0"
         id="stop3820-7" />
      <stop
         style="stop-color:#000000;stop-opacity:0;"
         offset="1"
         id="stop3822-4" />
    </linearGradient>
    <linearGradient
       inkscape:collect="always"
       xlink:href="#linearGradient3810-1"
       id="linearGradient3043"
       gradientUnits="userSpaceOnUse"
       gradientTransform="translate(0.30061033,-1.5614099)"
       x1="545.71881"
       y1="1210.4979"
       x2="2326.1562"
       y2="1185.4979" />
    <linearGradient
       inkscape:collect="always"
       id="linearGradient3810-1">
      <stop
         style="stop-color:#000000;stop-opacity:1;"
         offset="0"
         id="stop3812-7" />
      <stop
         style="stop-color:#000000;stop-opacity:0;"
         offset="1"
         id="stop3814-4" />
    </linearGradient>
    <linearGradient
       y2="1185.4979"
       x2="2326.1562"
       y1="1210.4979"
       x1="545.71881"
       gradientTransform="translate(2.9957,-3.2547)"
       gradientUnits="userSpaceOnUse"
       id="linearGradient3171"
       xlink:href="#linearGradient3810-1"
       inkscape:collect="always" />
  </defs>
  <sodipodi:namedview
     pagecolor="#ffffff"
     bordercolor="#666666"
     borderopacity="1"
     objecttolerance="10"
     gridtolerance="10"
     guidetolerance="10"
     inkscape:pageopacity="0"
     inkscape:pageshadow="2"
     inkscape:window-width="1615"
     inkscape:window-height="979"
     id="namedview4"
     showgrid="false"
     inkscape:zoom="1.28"
     inkscape:cx="2366.1998"
     inkscape:cy="836.37242"
     inkscape:window-x="213"
     inkscape:window-y="0"
     inkscape:window-maximized="0"
     inkscape:current-layer="svg2" />
  <path
     style="fill:none;stroke:url(#linearGradient3171);stroke-width:25.44410133;stroke-linecap:round;stroke-linejoin:miter;stroke-miterlimit:4;stroke-opacity:1;stroke-dasharray:none;display:inline"
     d="m 2735.1799,1352.5706 c 0,0 -863.2661,-288.3392 -1312.6529,-290.6251 -449.3867,-2.2859 -889.81659,138.0687 -889.81659,138.0687"
     id="path3922-7-4-0"
     inkscape:connector-curvature="0"
     sodipodi:nodetypes="czc" />
  <path
     style="fill:none;stroke:url(#linearGradient3028);stroke-width:25.44410133;stroke-linecap:round;stroke-linejoin:miter;stroke-miterlimit:4;stroke-opacity:1;stroke-dasharray:none;display:inline"
     d="m 2265.5571,1636.4011 c 0,0 -418.0098,170.1197 -867.3966,172.4056 -449.3867,2.2859 -923.59037,-150 -923.59037,-150"
     id="path3922-7-0"
     inkscape:connector-curvature="0"
     sodipodi:nodetypes="czc" />
  <g
     inkscape:groupmode="layer"
     id="layer1"
     inkscape:label="Dessin"
     style="display:inline">
    <path
       style="fill:none;stroke:#000000;stroke-width:1px;stroke-linecap:butt;stroke-linejoin:miter;stroke-opacity:1"
       d="m 440.21324,-4371967300 c 1.99317,0 35.59231,0 39.29391,0 3.7016,0 -36.44652,0 -39.29391,0 z"
       id="path2988"
       inkscape:connector-curvature="0" />
  </g>
  <g
     style="stroke:#ffffff;stroke-width:6;stroke-miterlimit:4;stroke-opacity:1;stroke-dasharray:none"
     id="g3123"
     transform="matrix(0.99700966,-0.07727707,0.07727707,0.99700966,88.91254,125.12704)" />
  <g
     id="g4386">
    <path
       style="fill:#000000;stroke:none;filter:url(#filter4287)"
       d="m 499.11847,1459.206 c 8.91904,-6.943 20.96624,-14.9754 39.32827,-18.2997 18.36202,-3.3243 940.32136,-9.798 948.34256,-13.9408 8.0211,-4.1429 6.2832,-4.9179 7.0715,-7.0586 0.7882,-2.1407 -1.3724,-6.7334 1.4122,-12.1608 2.7846,-5.4274 8.1854,-3.2022 11.5601,-11.7006 3.3748,-8.4984 10.0369,-12.4981 17.9793,-11.0901 7.9423,1.4081 8.0047,8.3915 6.7671,15.821 -1.2376,7.4294 -6.0478,9.8164 -4.3978,14.747 1.6499,4.9307 8.4534,5.8219 10.3643,8.6162 1.9108,2.7943 -0.9756,5.646 1.6992,7.6255 2.6749,1.9795 5.9975,2.4269 12.117,-0.9393 6.1195,-3.3662 13.2728,-16.829 17.8236,-23.8219 4.5508,-6.9929 5.1245,-10.1993 13.887,-17.4218 8.7626,-7.2226 28.6574,-9.1472 41.8525,-14.0486 13.1952,-4.9013 26.5403,-13.6112 34.1631,-13.1755 7.6229,0.4357 5.6371,-8e-4 8.1977,-1.4666 2.5606,-1.4657 7.0166,-5.0006 12.0915,-8.4173 5.075,-3.4167 15.7171,-3.9659 22.2616,-5.8811 6.5445,-1.9151 11.0718,-2.6685 17.0293,-5.4756 5.9575,-2.8071 9.6864,-8.3229 18.2119,-11.662 8.5256,-3.3392 18.4066,-3.128 32.7905,-5.8661 14.3839,-2.7382 36.402,-4.7953 53.4636,-10.7929 17.0617,-5.9976 34.849,-27.3013 47.9476,-24.7716 13.0987,2.5296 6.2954,16.367 17.0439,19.7342 10.7484,3.3671 32.6168,-10.1284 40.2024,-10.3192 7.5855,-0.1909 -3.2814,1.0196 3.9408,0.8028 7.2222,-0.2169 31.39,-9.6362 37.9993,-10.1485 6.6094,-0.5123 18.6922,-2.8716 24.6996,-3.0225 6.0074,-0.1509 7.0233,1.3993 11.1435,0.7985 4.1202,-0.6008 8.7926,-4.6059 12.9197,-4.88 4.1272,-0.2737 7.6805,4.6236 10.721,2.4935 3.0405,-2.1301 -1.3296,-6.7546 1.3493,-11.1862 2.6788,-4.4316 9.5773,-8.7638 16.3055,-11.2374 6.7283,-2.4735 18.1813,1.3326 23.09,-2.3437 4.9087,-3.6763 1.6298,-8.7932 5.1193,-12.5866 3.4895,-3.7934 8.0565,-1.7311 15.4601,-7.8474 7.4036,-6.1163 19.4528,-25.1678 24.6828,-31.8336 5.2301,-6.6658 4.3588,-7.0946 6.5624,-8.2659 2.2036,-1.1713 1.9427,2.1772 4.4062,-0.3415 2.4635,-2.5187 -2.2458,-10.5667 0.9225,-16.694 3.1683,-6.1272 9.6025,-7.0568 19.3114,-15.3489 9.7089,-8.2921 28.376,-29.7172 38.2813,-35.1041 9.9054,-5.3868 9.8583,-0.8062 15.2082,-3.9491 5.35,-3.1429 10.4706,-12.2739 14.8626,-15.5582 4.392,-3.2842 6.2342,-2.3456 10.1232,-5.2173 3.889,-2.8716 7.2564,-8.6861 12.3221,-12.5908 5.0658,-3.9048 12.4149,-6.4849 18.0433,-10.2639 5.6285,-3.7789 12.4821,-4.6128 17.1745,-10.7506 8.5264,-6.7121 -14.2663,-3.7864 -24.8552,-9.7093 -10.5889,-5.9229 -21.9785,-12.0138 -37.2602,-30.357 -15.2817,-18.3432 -33.8657,-43.64108 -45.8074,-83.44075 -11.9417,-39.79968 -20.6663,-109.92363 -12.4613,-153.62359 8.205,-43.69996 33.509,-83.05891 49.2164,-101.3335 15.7074,-18.2746 25.5445,-18.71364 34.6564,-21.10948 9.112,-2.39583 23.8985,-1.52841 54.9718,-3.84524 31.0733,-2.31678 98.2752,-5.54068 115.7727,-2.18587 17.4976,3.3548 29.9236,15.2038 38.3683,23.20659 8.4446,8.00279 33.9185,46.64602 41.6619,58.55121 7.7435,11.90519 20.6973,32.78651 31.1204,54.05309 13.9374,28.43695 24.6181,57.02784 24.45,60.62926 -0.168,3.60141 1.1807,12.98605 4.3227,20.02755 3.1421,7.04148 14.7904,21.14855 18.0248,30.60128 3.2343,9.45272 1.292,7.50008 4.5544,17.65472 3.2624,10.15464 10.7846,26.66631 20.0665,44.43357 9.2819,17.76726 25.3154,48.74806 32.3531,61.76616 7.0376,13.0181 5.6345,9.8614 10.0291,15.0141 4.3946,5.1527 12.6697,13.9813 19.9131,17.4339 7.2432,3.4527 16.724,10.7101 22.0308,16.1616 5.3066,5.4516 1.1299,5.1567 6.48,13.9039 5.3502,8.7473 18.8198,27.688 23.9732,41.222 5.1534,13.5341 20.6663,34.7885 27.0941,52.8928 6.4279,18.1042 22.4146,40.4324 26.1559,60.4457 3.7414,20.0132 1.7256,42.0975 -1.6392,59.2755 -3.3646,17.178 -14.7745,45.7336 -17.765,51.383 -2.9906,5.6495 -2.8865,16.1681 -2.9723,21.804 -0.086,5.6359 -2.0263,31.9138 -1.9832,59.165 -3.844,54.2866 -11.0288,78.263 -167.3176,134.9658 -122.025,44.2716 -287.3686,85.1825 -329.6273,92.2258 -13.1715,-43.5901 -5.615,-67.4888 -6.9475,-78.392 -1.3324,-10.903 -0.033,-20.2374 0.01,-23.1337 0.041,-2.8962 3.2477,-5.351 0.2914,-8.7493 -2.9564,-3.3983 -18.4042,-10.371 -26.5821,-9.6212 -8.1779,0.7498 -12.1057,8.606 -19.0193,10.2849 -6.9135,1.6789 -13.8181,6.7996 -19.3474,4.9244 -5.5292,-1.8752 -8.7697,-6.3974 -12.5055,-11.2205 -3.7358,-4.8232 -4.2284,-10.4772 -9.1195,-17.578 -4.8912,-7.1007 -12.9278,-13.9027 -21.2409,-23.8414 -8.3131,-9.9387 -18.7981,-30.8422 -28.2813,-36.0398 -9.4831,-5.1976 -13.75,0.1297 -18.9825,-1.8531 -5.2325,-1.9829 -3.3426,-5.4832 -11.7412,-8.5095 -8.3986,-3.0262 -30.0781,-2.7476 -38.9812,-2.5194 -8.9031,0.2281 -8.2458,0.7713 -14.2774,1.6607 -6.0316,0.8895 -16.7953,4.1354 -21.8603,3.9107 -5.065,-0.2246 -4.8302,-1.6994 -7.9243,-2.1562 -3.0942,-0.4569 -7.1245,-0.7531 -10.5501,-0.2904 -3.4256,0.4627 -4.7577,2.8207 -9.7432,2.9715 -4.9856,0.1508 -14.161,-4.341 -19.1959,-4.6071 -5.035,-0.2661 -7.08,1.7058 -10.4221,1.3619 -3.342,-0.344 -6.6047,-3.374 -9.1113,-3.1724 -2.5064,0.2043 -0.543,1.3978 -4.7861,2.5873 -4.2432,1.1894 -16.4953,2.007 -20.9722,1.0714 -4.4768,-0.9355 -2.2007,-2.049 -5.7639,-2.8777 -3.5632,-0.8288 -10.9629,-1.5499 -15.5071,0.094 -4.5442,1.6437 -8.8971,6.4663 -10.4178,8.5646 -1.5207,2.0984 -4.4446,1.5707 -6.3766,-0.06 -1.932,-1.6304 -0.1344,-3.6509 -6.0318,-8.1207 -5.8973,-4.4699 -22.4668,-9.6997 -34.2845,-13.411 -11.8176,-3.7114 -28.7699,-8.3382 -36.368,-8.1244 -7.5982,0.2138 -7.9766,3.4929 -12.3371,5.2504 -4.3605,1.7574 -5.6112,3.1003 -7.4857,5.2899 -1.8745,2.1895 -0.5597,5.2109 -3.2578,8.0097 -2.6981,2.7987 -9.6778,3.9213 -13.3852,6.0242 -3.7073,2.103 -5.4948,5.8484 -8.9362,6.2334 -3.4414,0.385 -6.5619,-1.0179 -9.154,-3.7231 -2.5921,-2.7052 1.7041,-13.0645 -4.2437,-11.8609 -5.9479,1.2035 -32.2757,2.8636 -41.8163,3.7952 -1.467,5.0155 -2.2564,10.8512 -7.0877,15.7867 -4.8312,4.9355 -15.1248,10.3891 -20.384,10.4452 -5.2592,0.056 -7.8899,-3.683 -10.0869,-5.036 -2.1105,1.5492 -7.2963,5.9875 -10.6836,6.923 -3.3874,0.9354 -5.2059,1.5695 -8.7697,1.2339 -3.5638,-0.3356 -8.3979,-4.2134 -11.2631,-5.9146 -2.8001,0.9256 -8.7746,5.3463 -11.9975,6.0552 -3.2228,0.7089 -3.8583,1.4456 -7.7109,0.5976 -3.8525,-0.8479 -7.4851,-8.2735 -10.439,-9.58 -3.8111,0.1452 -10.0057,4.1196 -13.7566,4.8064 -3.7509,0.6869 -8.6264,1.335 -12.1171,0.9392 -3.4906,-0.3957 -5.6696,-0.2074 -8.5177,-2.6643 -2.8481,-2.457 -5.1943,-9.0576 -6.6166,-12.0926 -1.4223,-3.0349 1.8507,-7.6821 -0.9147,-6.4395 -2.3429,-0.4525 -4.4326,3.6586 -6.7545,5.7872 -2.322,2.1286 -5.232,1.885 -6.3832,7.0053 -1.1511,5.1202 7.2049,13.3888 6.1864,19.052 -1.0185,5.6631 -4.5683,9.1455 -9.739,10.1743 -5.1706,1.0287 -12.9526,-3.5255 -16.062,-7.0664 -3.1093,-3.5409 -1.0113,-7.4415 -3.0142,-10.294 -2.0029,-2.8524 -6.3657,-2.6789 -8.2231,-6.0116 -1.8574,-3.3327 -0.1711,-9.8922 -2.2532,-12.9848 -2.0821,-3.0927 -3.1037,-3.9447 -7.3745,-3.9997 -4.2709,-0.055 -930.02579,2.4455 -946.91577,0.1054 -16.88998,-2.3401 -31.04829,-7.0976 -39.84946,-13.3699 z"
       id="path4209"
       inkscape:connector-curvature="0"
       sodipodi:nodetypes="czzzzzzzzzzzzzzzzzzzzzzzzzzzzzzzzzzzzzzzzzzzzzzzczzzzzzzzzzszzzzzzzzzzzzzzzzcsczzzzzzzzzzzzzzzzzzzzzzzzzzzzzzzzzzzzzczzczzczzczzzzczzzzzzzzzzcc" />
    <g
       id="g4378">
      <g
         id="g4375">
        <path
           sodipodi:nodetypes="czzzzzzzzzzzzzzzzzzzzzzzzzzzzzzzzzzzzzzzzzzzzzzzczzzzzzzzzzszzzzzzzzzzzzzzzzccczzzzzzzzzzzzzzzzzzzzzzzzzzzzzzzzzzzzzczzczzczzczzzzczzzzzzzzzzcc"
           inkscape:connector-curvature="0"
           id="path2998"
           d="m 499.11847,1459.206 c 8.91904,-6.943 20.96624,-14.9754 39.32827,-18.2997 18.36202,-3.3243 940.32136,-9.798 948.34256,-13.9408 8.0211,-4.1429 6.2832,-4.9179 7.0715,-7.0586 0.7882,-2.1407 -1.3724,-6.7334 1.4122,-12.1608 2.7846,-5.4274 8.1854,-3.2022 11.5601,-11.7006 3.3748,-8.4984 10.0369,-12.4981 17.9793,-11.0901 7.9423,1.4081 8.0047,8.3915 6.7671,15.821 -1.2376,7.4294 -6.0478,9.8164 -4.3978,14.747 1.6499,4.9307 8.4534,5.8219 10.3643,8.6162 1.9108,2.7943 -0.9756,5.646 1.6992,7.6255 2.6749,1.9795 5.9975,2.4269 12.117,-0.9393 6.1195,-3.3662 13.2728,-16.829 17.8236,-23.8219 4.5508,-6.9929 5.1245,-10.1993 13.887,-17.4218 8.7626,-7.2226 28.6574,-9.1472 41.8525,-14.0486 13.1952,-4.9013 26.5403,-13.6112 34.1631,-13.1755 7.6229,0.4357 5.6371,-8e-4 8.1977,-1.4666 2.5606,-1.4657 7.0166,-5.0006 12.0915,-8.4173 5.075,-3.4167 15.7171,-3.9659 22.2616,-5.8811 6.5445,-1.9151 11.0718,-2.6685 17.0293,-5.4756 5.9575,-2.8071 9.6864,-8.3229 18.2119,-11.662 8.5256,-3.3392 18.4066,-3.128 32.7905,-5.8661 14.3839,-2.7382 36.402,-4.7953 53.4636,-10.7929 17.0617,-5.9976 34.849,-27.3013 47.9476,-24.7716 13.0987,2.5296 6.2954,16.367 17.0439,19.7342 10.7484,3.3671 32.6168,-10.1284 40.2024,-10.3192 7.5855,-0.1909 -3.2814,1.0196 3.9408,0.8028 7.2222,-0.2169 31.39,-9.6362 37.9993,-10.1485 6.6094,-0.5123 18.6922,-2.8716 24.6996,-3.0225 6.0074,-0.1509 7.0233,1.3993 11.1435,0.7985 4.1202,-0.6008 8.7926,-4.6059 12.9197,-4.88 4.1272,-0.2737 7.6805,4.6236 10.721,2.4935 3.0405,-2.1301 -1.3296,-6.7546 1.3493,-11.1862 2.6788,-4.4316 9.5773,-8.7638 16.3055,-11.2374 6.7283,-2.4735 18.1813,1.3326 23.09,-2.3437 4.9087,-3.6763 1.6298,-8.7932 5.1193,-12.5866 3.4895,-3.7934 8.0565,-1.7311 15.4601,-7.8474 7.4036,-6.1163 19.4528,-25.1678 24.6828,-31.8336 5.2301,-6.6658 4.3588,-7.0946 6.5624,-8.2659 2.2036,-1.1713 1.9427,2.1772 4.4062,-0.3415 2.4635,-2.5187 -2.2458,-10.5667 0.9225,-16.694 3.1683,-6.1272 9.6025,-7.0568 19.3114,-15.3489 9.7089,-8.2921 28.376,-29.7172 38.2813,-35.1041 9.9054,-5.3868 9.8583,-0.8062 15.2082,-3.9491 5.35,-3.1429 10.4706,-12.2739 14.8626,-15.5582 4.392,-3.2842 6.2342,-2.3456 10.1232,-5.2173 3.889,-2.8716 7.2564,-8.6861 12.3221,-12.5908 5.0658,-3.9048 12.4149,-6.4849 18.0433,-10.2639 5.6285,-3.7789 12.4821,-4.6128 17.1745,-10.7506 8.5264,-6.7121 -14.2663,-3.7864 -24.8552,-9.7093 -10.5889,-5.9229 -21.9785,-12.0138 -37.2602,-30.357 -15.2817,-18.3432 -33.8657,-43.64108 -45.8074,-83.44075 -11.9417,-39.79968 -20.6663,-109.92363 -12.4613,-153.62359 8.205,-43.69996 33.509,-83.05891 49.2164,-101.3335 15.7074,-18.2746 25.5445,-18.71364 34.6564,-21.10948 9.112,-2.39583 23.8985,-1.52841 54.9718,-3.84524 31.0733,-2.31678 98.2752,-5.54068 115.7727,-2.18587 17.4976,3.3548 29.9236,15.2038 38.3683,23.20659 8.4446,8.00279 33.9185,46.64602 41.6619,58.55121 7.7435,11.90519 20.6973,32.78651 31.1204,54.05309 13.9374,28.43695 24.6181,57.02784 24.45,60.62926 -0.168,3.60141 1.1807,12.98605 4.3227,20.02755 3.1421,7.04148 14.7904,21.14855 18.0248,30.60128 3.2343,9.45272 1.292,7.50008 4.5544,17.65472 3.2624,10.15464 10.7846,26.66631 20.0665,44.43357 9.2819,17.76726 25.3154,48.74806 32.3531,61.76616 7.0376,13.0181 5.6345,9.8614 10.0291,15.0141 4.3946,5.1527 12.6697,13.9813 19.9131,17.4339 7.2432,3.4527 16.724,10.7101 22.0308,16.1616 5.3066,5.4516 1.1299,5.1567 6.48,13.9039 5.3502,8.7473 18.8198,27.688 23.9732,41.222 5.1534,13.5341 20.6663,34.7885 27.0941,52.8928 6.4279,18.1042 22.4146,40.4324 26.1559,60.4457 3.7414,20.0132 1.7256,42.0975 -1.6392,59.2755 -3.3646,17.178 -14.7745,45.7336 -17.765,51.383 -2.9906,5.6495 -7.574,9.9181 -7.6598,15.554 -0.086,5.6359 1.0987,5.3513 1.1418,32.6025 7.5713,85.9835 -29.1236,114.1324 -77.5389,120.8167 -161.5836,74.3076 -314.0841,103.1998 -425.656,117.3124 -0.6715,-13.9026 2.1975,-45.6138 0.865,-56.517 -1.3324,-10.903 -0.033,-20.2374 0.01,-23.1337 0.041,-2.8962 3.2477,-5.351 0.2914,-8.7493 -2.9564,-3.3983 -23.0917,-9.5897 -31.2696,-8.8399 -8.1779,0.7498 -7.4182,7.8247 -14.3318,9.5036 -6.9135,1.6789 -13.8181,6.7996 -19.3474,4.9244 -5.5292,-1.8752 -8.7697,-6.3974 -12.5055,-11.2205 -3.7358,-4.8232 -4.2284,-10.4772 -9.1195,-17.578 -4.8912,-7.1007 -12.9278,-13.9027 -21.2409,-23.8414 -8.3131,-9.9387 -18.7981,-30.8422 -28.2813,-36.0398 -9.4831,-5.1976 -13.75,0.1297 -18.9825,-1.8531 -5.2325,-1.9829 -3.3426,-5.4832 -11.7412,-8.5095 -8.3986,-3.0262 -30.0781,-2.7476 -38.9812,-2.5194 -8.9031,0.2281 -8.2458,0.7713 -14.2774,1.6607 -6.0316,0.8895 -16.7953,4.1354 -21.8603,3.9107 -5.065,-0.2246 -4.8302,-1.6994 -7.9243,-2.1562 -3.0942,-0.4569 -7.1245,-0.7531 -10.5501,-0.2904 -3.4256,0.4627 -4.7577,2.8207 -9.7432,2.9715 -4.9856,0.1508 -14.161,-4.341 -19.1959,-4.6071 -5.035,-0.2661 -7.08,1.7058 -10.4221,1.3619 -3.342,-0.344 -6.6047,-3.374 -9.1113,-3.1724 -2.5064,0.2043 -0.543,1.3978 -4.7861,2.5873 -4.2432,1.1894 -16.4953,2.007 -20.9722,1.0714 -4.4768,-0.9355 -2.2007,-2.049 -5.7639,-2.8777 -3.5632,-0.8288 -10.9629,-1.5499 -15.5071,0.094 -4.5442,1.6437 -8.8971,6.4663 -10.4178,8.5646 -1.5207,2.0984 -4.4446,1.5707 -6.3766,-0.06 -1.932,-1.6304 -0.1344,-3.6509 -6.0318,-8.1207 -5.8973,-4.4699 -22.4668,-9.6997 -34.2845,-13.411 -11.8176,-3.7114 -28.7699,-8.3382 -36.368,-8.1244 -7.5982,0.2138 -7.9766,3.4929 -12.3371,5.2504 -4.3605,1.7574 -5.6112,3.1003 -7.4857,5.2899 -1.8745,2.1895 -0.5597,5.2109 -3.2578,8.0097 -2.6981,2.7987 -9.6778,3.9213 -13.3852,6.0242 -3.7073,2.103 -5.4948,5.8484 -8.9362,6.2334 -3.4414,0.385 -6.5619,-1.0179 -9.154,-3.7231 -2.5921,-2.7052 1.7041,-13.0645 -4.2437,-11.8609 -5.9479,1.2035 -32.2757,2.8636 -41.8163,3.7952 -1.467,5.0155 -2.2564,10.8512 -7.0877,15.7867 -4.8312,4.9355 -15.1248,10.3891 -20.384,10.4452 -5.2592,0.056 -7.8899,-3.683 -10.0869,-5.036 -2.1105,1.5492 -7.2963,5.9875 -10.6836,6.923 -3.3874,0.9354 -5.2059,1.5695 -8.7697,1.2339 -3.5638,-0.3356 -8.3979,-4.2134 -11.2631,-5.9146 -2.8001,0.9256 -8.7746,5.3463 -11.9975,6.0552 -3.2228,0.7089 -3.8583,1.4456 -7.7109,0.5976 -3.8525,-0.8479 -7.4851,-8.2735 -10.439,-9.58 -3.8111,0.1452 -10.0057,4.1196 -13.7566,4.8064 -3.7509,0.6869 -8.6264,1.335 -12.1171,0.9392 -3.4906,-0.3957 -5.6696,-0.2074 -8.5177,-2.6643 -2.8481,-2.457 -5.1943,-9.0576 -6.6166,-12.0926 -1.4223,-3.0349 1.8507,-7.6821 -0.9147,-6.4395 -2.3429,-0.4525 -4.4326,3.6586 -6.7545,5.7872 -2.322,2.1286 -5.232,1.885 -6.3832,7.0053 -1.1511,5.1202 7.2049,13.3888 6.1864,19.052 -1.0185,5.6631 -4.5683,9.1455 -9.739,10.1743 -5.1706,1.0287 -12.9526,-3.5255 -16.062,-7.0664 -3.1093,-3.5409 -1.0113,-7.4415 -3.0142,-10.294 -2.0029,-2.8524 -6.3657,-2.6789 -8.2231,-6.0116 -1.8574,-3.3327 -0.1711,-9.8922 -2.2532,-12.9848 -2.0821,-3.0927 -3.1037,-3.9447 -7.3745,-3.9997 -4.2709,-0.055 -930.02579,2.4455 -946.91577,0.1054 -16.88998,-2.3401 -31.04829,-7.0976 -39.84946,-13.3699 z"
           style="fill:#000000;stroke:none" />
      </g>
      <path
         style="fill:none;stroke:#ffffff;stroke-width:6;stroke-linecap:round;stroke-linejoin:miter;stroke-miterlimit:4;stroke-opacity:1;stroke-dasharray:none;filter:url(#filter4335)"
         d="m 2171.3198,1544.5709 c 26.482,2.103 95.9346,27.4833 119.8209,31.7542 23.8864,4.2709 50.1128,17.8797 83.3588,14.1497 33.246,-3.73 80.6129,-20.3847 112.8068,-38.664 32.1939,-18.2793 53.0454,-43.3494 78.5139,-66.4807 25.4684,-23.1313 56.7539,-57.6205 74.1888,-72.2405 17.4348,-14.6199 20.8735,-24.9307 26.7661,-19.2511 5.8927,5.6795 -8.9321,13.4362 -8.9321,13.4362"
         id="path3000-9"
         inkscape:connector-curvature="0"
         sodipodi:nodetypes="czzzzzzc" />
      <path
         style="fill:none;stroke:#ffffff;stroke-width:6;stroke-linecap:round;stroke-linejoin:miter;stroke-miterlimit:4;stroke-opacity:1;stroke-dasharray:none;filter:url(#filter4303)"
         d="m 1902.407,1347.2537 c 0,0 4.6002,-5.9521 12.1982,-7.0404 7.598,-1.0883 19.5859,4.847 31.0611,7.566 11.4751,2.719 26.6205,6.5805 37.7984,8.7061 11.1779,2.1256 15.165,1.1022 29.1527,4.3894 13.9876,3.2872 38.6575,14.6709 53.9884,17.4247 15.331,2.7538 25.8589,1.2438 36.6927,1.5887 10.8339,0.3448 17.2574,0.01 28.303,0.5766 11.0456,0.5716 20.2779,4.3289 37.9224,3.1556 17.6445,-1.1732 51.9264,-19.2681 66.4688,-14.5714 14.5424,4.6968 4.7145,13.5522 15.7716,17.6165 11.0572,4.0643 43.8486,-6.1691 46.6024,-6.3826 2.7539,-0.2134 49.3142,-13.0792 62.3573,-17.5771 13.0431,-4.4979 14.5294,-5.5588 16.6472,-6.8312 2.1178,-1.2723 40.659,12.9103 42.922,3.3223 2.2629,-9.5881 -8.7737,-5.1001 -14.8752,-6.0502 -6.1016,-0.9501 -16.568,5.0262 -20.9295,1.6222 -4.3615,-3.404 -2.9374,-8.2757 -2.0406,-12.0317 0.8967,-3.7559 5.1788,-4.4255 6.5196,-8.8166 1.3408,-4.391 -2.1705,-11.7251 -0.7299,-16.5659 1.4406,-4.8408 6.7221,-5.9726 8.0013,-11.1477 1.2792,-5.1752 -2.9542,-11.9156 -2.5103,-18.0902 0.4438,-6.1747 5.2432,-18.1372 5.2432,-18.1372"
         id="path3002-4"
         inkscape:connector-curvature="0"
         sodipodi:nodetypes="czzzzzzzzzzzzzzzzzzzzzc" />
      <path
         style="fill:none;stroke:#ffffff;stroke-width:6;stroke-linecap:round;stroke-linejoin:miter;stroke-miterlimit:4;stroke-opacity:1;stroke-dasharray:none;filter:url(#filter4323)"
         d="m 2195.4682,1553.9296 c -11.5407,8.3747 -24.1108,11.1358 -29.2722,8.3639 -5.1615,-2.7719 -7.9696,-7.7545 -8.4835,-16.5191 -0.5138,-8.7646 7.7544,-19.8204 11.9295,-31.9534 4.1752,-12.1329 6.9852,-27.5958 12.8989,-40.8938 5.9136,-13.2981 21.2072,-33.7806 22.518,-38.3149 1.3109,-4.5344 12.4566,-42.8468 20.3921,-51.4481 7.9354,-8.6014 9.7789,-9.5759 13.3425,-8.5281 3.5635,1.0477 9.2856,11.0407 9.2856,11.0407"
         id="path3004-8"
         inkscape:connector-curvature="0"
         sodipodi:nodetypes="czzzzzzzc" />
      <path
         style="fill:none;stroke:#ffffff;stroke-width:6;stroke-linecap:round;stroke-linejoin:miter;stroke-miterlimit:4;stroke-opacity:1;stroke-dasharray:none;filter:url(#filter4331)"
         d="m 2277.118,1073.1855 c 5.4448,0.8061 8.7753,-4.2446 15.2981,1.0199 6.5229,5.2647 5.7449,16.4581 8.7438,27.0265 2.9989,10.5683 5.5089,25.5156 8.9188,36.4323 3.4098,10.9168 9.7459,22.1648 11.1176,29.0589 1.3716,6.8941 -4.5614,4.7925 0.303,11.0581 4.8645,6.2656 15.6172,11.8191 35.13,10.021 19.5128,-1.798 55.614,-19.0008 72.5575,-36.0984 16.9435,-17.0977 27.7186,-57.0027 27.7186,-57.0027"
         id="path3006-8"
         inkscape:connector-curvature="0"
         sodipodi:nodetypes="czzzzzzzc" />
    </g>
  </g>
  <text
     xml:space="preserve"
     style="font-size:72px;font-style:oblique;font-variant:normal;font-weight:normal;font-stretch:normal;line-height:125%;letter-spacing:0px;word-spacing:0px;fill:#000000;fill-opacity:1;stroke:none;font-family:Arial;-inkscape-font-specification:Century Gothic Bold Oblique"
     x="514.76379"
     y="1399.0554"
     id="text3039"
     sodipodi:linespacing="125%"><tspan
       sodipodi:role="line"
       id="tspan3041"
       x="514.76379"
       y="1399.0554"
       style="font-size:200px;font-style:oblique;font-variant:normal;font-weight:bold;font-stretch:normal;font-family:Century Gothic;-inkscape-font-specification:Century Gothic Bold Oblique"
       rotate="0 0 0 0 0 0 0 0 0 0">TAIJIJIAN</tspan></text>
  <text
     xml:space="preserve"
     style="font-size:84.26269531px;font-style:normal;font-variant:normal;font-weight:normal;font-stretch:normal;line-height:125%;letter-spacing:0px;word-spacing:0px;fill:#000000;fill-opacity:1;stroke:none;font-family:Arial;-inkscape-font-specification:Arial"
     x="425.45926"
     y="1893.1073"
     id="text3039-1"
     sodipodi:linespacing="125%"
     inkscape:transform-center-x="348.04744"
     inkscape:transform-center-y="-163.51849"
     transform="scale(1.1703153,0.85447059)"><tspan
       sodipodi:role="line"
       id="tspan3041-7"
       x="425.45926"
       y="1893.1073"
       style="font-size:150px;font-style:oblique;font-variant:normal;font-weight:normal;font-stretch:normal;font-family:Century Gothic;-inkscape-font-specification:Century Gothic Oblique"
       rotate="0 0 0 0 0 0 0 0 0 0 0 0 0 0 0 0 0 0 0 0">Taiji sword fencing</tspan></text>
</svg>
