<?xml version="1.0" encoding="UTF-8" standalone="no"?>
<!-- Created with Inkscape (http://www.inkscape.org/) -->

<svg
   xmlns:dc="http://purl.org/dc/elements/1.1/"
   xmlns:cc="http://creativecommons.org/ns#"
   xmlns:rdf="http://www.w3.org/1999/02/22-rdf-syntax-ns#"
   xmlns:svg="http://www.w3.org/2000/svg"
   xmlns="http://www.w3.org/2000/svg"
   xmlns:xlink="http://www.w3.org/1999/xlink"
   xmlns:sodipodi="http://sodipodi.sourceforge.net/DTD/sodipodi-0.dtd"
   xmlns:inkscape="http://www.inkscape.org/namespaces/inkscape"
   id="svg2"
   version="1.1"
   inkscape:version="0.48.2 r9819"
   width="3264"
   height="2448"
   sodipodi:docname="Logo_essai.svg">
  <metadata
     id="metadata8">
    <rdf:RDF>
      <cc:Work
         rdf:about="">
        <dc:format>image/svg+xml</dc:format>
        <dc:type
           rdf:resource="http://purl.org/dc/dcmitype/StillImage" />
        <dc:title></dc:title>
      </cc:Work>
    </rdf:RDF>
  </metadata>
  <defs
     id="defs6">
    <linearGradient
       inkscape:collect="always"
       id="linearGradient3818">
      <stop
         style="stop-color:#000000;stop-opacity:1;"
         offset="0"
         id="stop3820" />
      <stop
         style="stop-color:#000000;stop-opacity:0;"
         offset="1"
         id="stop3822" />
    </linearGradient>
    <linearGradient
       inkscape:collect="always"
       id="linearGradient3810">
      <stop
         style="stop-color:#000000;stop-opacity:1;"
         offset="0"
         id="stop3812" />
      <stop
         style="stop-color:#000000;stop-opacity:0;"
         offset="1"
         id="stop3814" />
    </linearGradient>
    <linearGradient
       inkscape:collect="always"
       xlink:href="#linearGradient3810"
       id="linearGradient3816"
       x1="545.71883"
       y1="1210.4979"
       x2="2748.0312"
       y2="1376.1229"
       gradientUnits="userSpaceOnUse" />
    <linearGradient
       inkscape:collect="always"
       xlink:href="#linearGradient3818"
       id="linearGradient3824"
       x1="2718.5278"
       y1="1512.0752"
       x2="458.34033"
       y2="1815.2002"
       gradientUnits="userSpaceOnUse" />
    <linearGradient
       inkscape:collect="always"
       xlink:href="#linearGradient3810"
       id="linearGradient3134"
       gradientUnits="userSpaceOnUse"
       x1="545.71883"
       y1="1210.4979"
       x2="2748.0312"
       y2="1376.1229" />
    <linearGradient
       inkscape:collect="always"
       xlink:href="#linearGradient3818"
       id="linearGradient3137"
       gradientUnits="userSpaceOnUse"
       x1="2718.5278"
       y1="1512.0752"
       x2="458.34033"
       y2="1815.2002" />
    <linearGradient
       gradientTransform="translate(2.6951,-1.6933)"
       inkscape:collect="always"
       xlink:href="#linearGradient3818-1"
       id="linearGradient3028"
       gradientUnits="userSpaceOnUse"
       x1="2252.2793"
       y1="1609.3025"
       x2="458.34033"
       y2="1815.2002" />
    <linearGradient
       inkscape:collect="always"
       id="linearGradient3818-1">
      <stop
         style="stop-color:#000000;stop-opacity:1;"
         offset="0"
         id="stop3820-7" />
      <stop
         style="stop-color:#000000;stop-opacity:0;"
         offset="1"
         id="stop3822-4" />
    </linearGradient>
    <linearGradient
       inkscape:collect="always"
       xlink:href="#linearGradient3810-1"
       id="linearGradient3043"
       gradientUnits="userSpaceOnUse"
       gradientTransform="translate(0.30061033,-1.5614099)"
       x1="545.71881"
       y1="1210.4979"
       x2="2326.1562"
       y2="1185.4979" />
    <linearGradient
       inkscape:collect="always"
       id="linearGradient3810-1">
      <stop
         style="stop-color:#000000;stop-opacity:1;"
         offset="0"
         id="stop3812-7" />
      <stop
         style="stop-color:#000000;stop-opacity:0;"
         offset="1"
         id="stop3814-4" />
    </linearGradient>
    <linearGradient
       y2="1185.4979"
       x2="2326.1562"
       y1="1210.4979"
       x1="545.71881"
       gradientTransform="translate(2.9957,-3.2547)"
       gradientUnits="userSpaceOnUse"
       id="linearGradient3171"
       xlink:href="#linearGradient3810-1"
       inkscape:collect="always" />
    <filter
       inkscape:collect="always"
       id="filter4498">
      <feGaussianBlur
         inkscape:collect="always"
         stdDeviation="12.203165"
         id="feGaussianBlur4500" />
    </filter>
  </defs>
  <sodipodi:namedview
     pagecolor="#ffffff"
     bordercolor="#666666"
     borderopacity="1"
     objecttolerance="10"
     gridtolerance="10"
     guidetolerance="10"
     inkscape:pageopacity="0"
     inkscape:pageshadow="2"
     inkscape:window-width="1229"
     inkscape:window-height="824"
     id="namedview4"
     showgrid="false"
     inkscape:zoom="0.22883715"
     inkscape:cx="1934.6282"
     inkscape:cy="913.54345"
     inkscape:window-x="73"
     inkscape:window-y="1"
     inkscape:window-maximized="0"
     inkscape:current-layer="svg2" />
  <path
     style="fill:none;stroke:url(#linearGradient3171);stroke-width:25.44410133;stroke-linecap:round;stroke-linejoin:miter;stroke-miterlimit:4;stroke-opacity:1;stroke-dasharray:none;display:inline"
     d="m 2735.1799,1352.5706 c 0,0 -863.2661,-288.3392 -1312.6529,-290.6251 -449.3867,-2.2859 -889.81659,138.0687 -889.81659,138.0687"
     id="path3922-7-4-0"
     inkscape:connector-curvature="0"
     sodipodi:nodetypes="czc" />
  <path
     style="fill:none;stroke:url(#linearGradient3028);stroke-width:25.44410133;stroke-linecap:round;stroke-linejoin:miter;stroke-miterlimit:4;stroke-opacity:1;stroke-dasharray:none;display:inline"
     d="m 2265.5571,1636.4011 c 0,0 -418.0098,170.1197 -867.3966,172.4056 -449.3867,2.2859 -923.59037,-150 -923.59037,-150"
     id="path3922-7-0"
     inkscape:connector-curvature="0"
     sodipodi:nodetypes="czc" />
  <g
     inkscape:groupmode="layer"
     id="layer1"
     inkscape:label="Dessin"
     style="display:inline">
    <path
       style="fill:none;stroke:#000000;stroke-width:1px;stroke-linecap:butt;stroke-linejoin:miter;stroke-opacity:1"
       d="m 440.21324,-4371967300 c 1.99317,0 35.59231,0 39.29391,0 3.7016,0 -36.44652,0 -39.29391,0 z"
       id="path2988"
       inkscape:connector-curvature="0" />
  </g>
  <g
     inkscape:groupmode="layer"
     id="layer2"
     inkscape:label="outline" />
  <g
     style="stroke:#ffffff;stroke-width:6;stroke-miterlimit:4;stroke-opacity:1;stroke-dasharray:none"
     id="g3123"
     transform="matrix(0.99700966,-0.07727707,0.07727707,0.99700966,88.91254,125.12704)" />
  <text
     xml:space="preserve"
     style="font-size:72px;font-style:oblique;font-variant:normal;font-weight:normal;font-stretch:normal;line-height:125%;letter-spacing:0px;word-spacing:0px;fill:#000000;fill-opacity:1;stroke:none;font-family:Arial;-inkscape-font-specification:Century Gothic Bold Oblique"
     x="514.76379"
     y="1399.0554"
     id="text3039"
     sodipodi:linespacing="125%"><tspan
       sodipodi:role="line"
       id="tspan3041"
       x="514.76379"
       y="1399.0554"
       style="font-size:200px;font-style:oblique;font-variant:normal;font-weight:bold;font-stretch:normal;font-family:Century Gothic;-inkscape-font-specification:Century Gothic Bold Oblique"
       rotate="0 0 0 0 0 0 0 0 0 0">TAIJIJIAN</tspan></text>
  <text
     xml:space="preserve"
     style="font-size:84.26269531px;font-style:normal;font-variant:normal;font-weight:normal;font-stretch:normal;line-height:125%;letter-spacing:0px;word-spacing:0px;fill:#000000;fill-opacity:1;stroke:none;font-family:Arial;-inkscape-font-specification:Arial"
     x="425.45926"
     y="1893.1073"
     id="text3039-1"
     sodipodi:linespacing="125%"
     inkscape:transform-center-x="348.04744"
     inkscape:transform-center-y="-163.51849"
     transform="scale(1.1703153,0.85447059)"><tspan
       sodipodi:role="line"
       id="tspan3041-7"
       x="425.45926"
       y="1893.1073"
       style="font-size:150px;font-style:oblique;font-variant:normal;font-weight:normal;font-stretch:normal;font-family:Century Gothic;-inkscape-font-specification:Century Gothic Oblique"
       rotate="0 0 0 0 0 0 0 0 0 0 0 0 0 0 0 0 0 0 0 0">Taiji sword fencing</tspan></text>
  <g
     id="g4044">
    <path
       sodipodi:nodetypes="cscccssszsssssscsssscssssssssssccsccscc"
       inkscape:connector-curvature="0"
       id="path3881"
       d="m 2720.745,1390.4475 c 0,0 40.9425,-54.075 39.3975,-109.695 -1.545,-55.62 -60.5361,-139.4798 -67.5823,-173.5796 -19.6098,-12.7964 -11.4939,0.5235 -17.3539,-14.9265 -6.9525,-15.45 -2.6763,-30.331 -24.9623,-30.6349 -34.4504,-15.3624 -35.1923,-33.7183 -46.0073,-52.2583 -10.815,-18.53996 -35.6742,-66.9557 -37.9917,-79.3157 -2.3175,-12.36 -0.1874,-12.28236 -5.5949,-28.50486 -5.4075,-16.2225 -14.3575,-10.57266 -19.3125,-23.25264 -4.955,-12.67998 -0.96,-15.05238 -5.595,-28.95738 -4.635,-13.905 -81.8964,-172.66512 -122.0664,-180.39012 -40.17,-7.725 -172.1193,-3.24345 -198.5325,11.5875 -23.7123,13.31446 -60.6412,78.0225 -62.9587,120.51 -2.3175,42.4875 -6.9083,109.74854 18.9262,162.225 24.72,50.2125 41.2894,100.7399 114.7163,105.4463 22.5913,1.4479 19.3125,58.3237 19.3125,58.3237 0,0 1.545,40.9425 16.2225,58.71 14.6775,17.7675 38.5805,17.2104 63.7313,4.635 23.9475,-11.9738 30.8564,-7.8803 47.8514,-34.1453 16.995,-26.265 20.9124,-29.4212 22.4574,-42.5537 1.545,-13.1325 6.5549,-32.2235 6.5549,-32.2235 0,0 -14.6223,34.0353 -20.8462,44.2863 -6.5662,10.815 -20.2288,29.9513 -38.7688,40.7663 -18.54,10.815 -38.7576,18.54 -56.5251,14.6775 -17.7675,-3.8625 -17.1938,-11.2126 -21.8288,-30.5251 -3.9702,-16.5428 -1.9976,-35.9875 -3.5426,-49.12 -1.545,-13.1325 -8.4253,-36.7159 -18.54,-43.9549 -11.1499,-7.9799 -42.796,2.0638 -66.7435,-24.2012 -23.9475,-26.265 -64.604,-88.40985 -65.354,-148.78386 -0.7725,-62.18625 15.3175,-167.90895 60.895,-187.99395 45.5775,-20.085 140.5615,-18.7934 176.9367,-4.83381 58.422,22.42042 85.2742,118.18308 115.9413,162.8328 -3.1998,30.44748 -6.3676,32.41089 18.3297,54.36087 15.9574,39.42966 -3.0245,19.54549 41.077,98.79485 12.621,22.6796 21.1737,32.4468 39.6513,63.3819 51.4355,15.77 19.2832,27.4292 39.9759,44.6725 37.6203,42.0923 41.9539,44.5565 52.8613,80.038 10.3474,33.66 24.1624,51.9999 32.2784,83.2587 4.8385,27.9813 -27.0101,111.3431 -27.0101,111.3431 z"
       style="fill:#000000;fill-opacity:1;stroke:#000000;stroke-width:1px;stroke-linecap:butt;stroke-linejoin:miter;stroke-opacity:1" />
    <path
       sodipodi:nodetypes="csssccccsssc"
       inkscape:connector-curvature="0"
       id="path3889"
       d="m 2730.015,1380.405 c 3.09,41.715 -6.18,110.8538 -20.085,127.0763 -13.905,16.2225 -39.3975,17.3812 -71.8425,34.3762 -32.445,16.995 -162.225,63.7313 -219.39,78.4088 -57.165,14.6775 -154.0943,26.3781 -177.2693,38.7381 -23.5194,-4.58 -16.0859,-70.8134 -12.2744,-93.7925 1.241,23.3826 5.4479,39.6362 16.8705,51.8787 40.7013,19.0745 125.9133,3.8676 180.3982,-12.2743 44.805,-13.905 181.8252,-68.723 208.9612,-76.8638 27.0375,-8.1113 36.6938,-11.2013 54.4613,-23.175 21.6768,-14.6083 20.085,-25.1062 27.81,-52.1437 5.9422,-20.7978 12.36,-72.2288 12.36,-72.2288 z"
       style="fill:#000000;fill-opacity:1;stroke:#000000;stroke-width:1px;stroke-linecap:butt;stroke-linejoin:miter;stroke-opacity:1" />
    <path
       sodipodi:nodetypes="csssssssssssssssssssssssssssssssssssssssssssssssc"
       inkscape:connector-curvature="0"
       id="path3963"
       d="m 2284.2825,1076.04 c -21.63,16.995 -40.17,7.725 -50.2125,20.085 -10.0425,12.36 -4.635,7.725 -17.7675,15.45 -13.1325,7.725 -6.18,5.4075 -13.1325,15.45 -6.9525,10.0425 -5.4075,-10.0425 -16.995,0.7725 -11.5875,10.815 -56.3925,40.9425 -58.71,54.075 -2.3175,13.1325 11.5875,16.2225 2.3175,17.7675 -9.27,1.545 -5.4075,-2.3175 -16.2225,10.0425 -10.815,12.36 -13.1325,23.175 -23.175,30.9 -10.0425,7.725 -3.8625,-0.7725 -13.1325,3.8625 -9.27,4.635 3.09,6.18 -3.09,13.1325 -6.18,6.9525 -17.7675,-3.09 -30.9,3.8625 -13.1325,6.9525 -12.36,6.18 -12.36,12.36 0,6.18 5.4075,9.27 0,10.815 -5.4075,1.545 2.3175,-1.545 -10.0425,-3.8625 -12.36,-2.3175 -6.9525,4.635 -16.995,4.635 -10.0425,0 -54.8475,14.6775 -67.2075,13.1325 -12.36,-1.545 4.635,-4.635 -19.3125,1.545 -23.9475,6.18 -18.54,10.815 -31.6725,5.4075 -13.1325,-5.4075 -2.3175,-20.085 -17.7675,-18.54 -15.45,1.545 -27.81,25.4925 -45.5775,28.5825 -17.7675,3.09 -61.0275,0.7725 -84.2025,13.1325 -23.175,12.36 -37.8525,14.6775 -54.075,22.4025 -16.2225,7.725 -7.725,10.815 -19.3125,12.36 -11.5875,1.545 -21.63,5.4075 -38.625,12.36 -16.995,6.9525 -31.6725,0 -44.0325,13.1325 -12.36,13.1325 -16.2225,23.9475 -23.175,35.535 -6.9525,11.5875 3.8625,12.36 -5.4075,24.72 -9.27,12.36 10.815,-8.4975 14.6775,-11.5875 3.8625,-3.09 1.545,-24.72 20.8575,-35.535 19.3125,-10.815 71.07,-29.355 76.4775,-29.355 5.4075,0 11.5875,-3.8625 19.3125,-10.0425 7.725,-6.18 40.17,-14.6775 57.9375,-23.175 17.7675,-8.4975 60.255,-5.4075 81.1125,-14.6775 20.8575,-9.27 25.4925,-27.0375 41.715,-18.54 16.2225,8.4975 33.2175,23.9475 44.0325,15.45 10.815,-8.4975 70.2975,-23.9475 90.3825,-22.4025 20.085,1.545 24.72,16.2225 32.445,6.18 7.725,-10.0425 3.09,-22.4025 13.905,-24.72 10.815,-2.3175 7.725,-6.9525 21.63,-6.18 13.905,0.7725 15.45,-3.8625 19.3125,-13.1325 3.8625,-9.27 0.7725,6.9525 19.3125,-13.905 18.54,-20.8575 16.2225,-31.6725 22.4025,-31.6725 6.18,0 13.1325,8.4975 13.1325,-7.725 0,-16.2225 -7.725,-16.2225 20.8575,-38.625 28.5825,-22.4025 30.1275,-24.72 40.17,-23.175 10.0425,1.545 2.3175,-0.7725 14.6775,-11.5875 12.36,-10.815 20.085,-3.8625 29.355,-22.4025 9.27,-18.54 37.08,-36.3075 37.08,-36.3075 z"
       style="fill:#000000;fill-opacity:1;stroke:#000000;stroke-width:1px;stroke-linecap:butt;stroke-linejoin:miter;stroke-opacity:1" />
    <path
       sodipodi:nodetypes="ccscsccccccccccccccccc"
       inkscape:connector-curvature="0"
       id="path3965"
       d="m 1555.8903,1455.5837 c -10.9248,9.8323 -10.3043,20.6553 -8.1193,30.4877 3.8236,5.4624 11.1002,11.1965 26.1178,3.3048 14.78,-7.7669 5.8807,-5.6062 12.0607,0.1875 5.0213,5.0213 17.1067,6.2625 20.5972,-0.8 6.1686,-12.4812 4.4264,-0.7949 14.4285,4.5299 9.6055,1.3433 13.1759,-3.1722 18.3652,-7.5422 5.8762,-11.8572 3.5038,-11.631 7.8737,-2.8911 7.3742,7.3742 12.575,8.2209 20.2223,1.6661 9.013,-4.643 7.0349,-12.8641 14.136,-13.6834 13.656,-7.1011 7.971,-25.2621 7.7216,-30.8271 -1.2719,9.021 3.1174,17.4831 -5.755,22.3797 -8.4667,4.643 -4.7182,1.0686 -11.791,10.9329 -8.3654,6.7129 -13.0823,11.3659 -19.6372,6.4497 -4.3699,-4.0968 -3.5585,-10.094 -5.1973,-17.1952 -4.6429,12.8367 -17.7819,29.5506 -28.5176,20.2852 -4.0968,-6.5549 -5.5415,-4.8668 -3.2306,-17.7802 -5.1035,10.0198 -15.4273,19.8052 -20.6165,17.6202 -7.495,-2.8194 -7.454,-8.3512 -7.4953,-16.0089 -5.0923,11.7989 -19.1231,21.9207 -30.2033,18.0065 -9.3328,-4.1436 -6.3285,-14.1359 -6.3285,-14.1359 z"
       style="fill:#000000;fill-opacity:1;stroke:#000000;stroke-width:1px;stroke-linecap:butt;stroke-linejoin:miter;stroke-opacity:1" />
    <path
       sodipodi:nodetypes="cssccccc"
       inkscape:connector-curvature="0"
       id="path3967"
       d="m 1707.5462,1451.6583 c 46.9766,-4.37 50.2541,-12.0173 81.936,-6.5549 31.6819,5.4624 37.1443,3.2774 52.439,15.2947 15.2947,12.0173 21.3034,22.3958 33.3207,2.7312 -24.5808,16.3872 -6.0087,-12.0173 -20.7572,-2.1849 -13.656,-30.0433 9.2861,-16.9335 -24.5807,-15.841 -36.0519,-13.1098 -30.0432,-2.185 -68.8262,-8.1936 -14.2023,4.9162 -53.5316,14.7485 -53.5316,14.7485 z"
       style="fill:#000000;fill-opacity:1;stroke:#000000;stroke-width:1px;stroke-linecap:butt;stroke-linejoin:miter;stroke-opacity:1" />
    <path
       sodipodi:nodetypes="ccccccccc"
       inkscape:connector-curvature="0"
       id="path3969"
       d="m 1690.0665,1463.6755 c 23.7614,-1.3655 33.8669,-5.4624 34.9594,3.2775 7.9285,17.3319 18.7073,10.1562 20.484,4.9161 8.3341,-5.4155 9.9535,-1.3461 12.6846,-8.7203 0.6126,-9.4187 8.6188,-11.7831 16.8124,-16.1336 -11.5807,1.7968 -9.1776,3.0112 -16.8946,4.2568 -1.0971,5.4353 -12.042,17.2573 -22.9455,18.931 -8.3486,-2.3729 -3.5426,-9.325 -10.3706,-15.0605 -10.9248,0.8193 -34.7297,8.533 -34.7297,8.533 z"
       style="fill:#000000;fill-opacity:1;stroke:#000000;stroke-width:1px;stroke-linecap:butt;stroke-linejoin:miter;stroke-opacity:1" />
    <path
       sodipodi:nodetypes="cccsccccccsc"
       inkscape:connector-curvature="0"
       id="path3971"
       d="m 1897.26,1343.325 c 52.9825,1.8262 84.0539,11.2836 107.8528,15.0912 18.3364,9.27 50.7819,20.4029 69.8222,15.6214 31.0714,-5.4624 13.905,18.7274 83.43,3.2774 69.525,-15.45 62.7988,-27.9814 73.504,-22.0986 11.2514,17.3538 20.9418,10.8605 45.6645,34.0998 -31.5399,-14.9975 -44.0874,-19.18 -54.2624,-22.7386 -16.7299,15.0136 -25.7964,13.5462 -45.4289,19.2737 -18.54,4.635 -35.4051,2.7706 -55.3388,9.7225 -25.3962,-7.7965 -39.1874,-20.0234 -62.2847,-9.535 -23.5703,-10.9665 -70.2587,-25.7188 -93.4337,-30.3538 -23.175,-4.635 -69.525,-12.36 -69.525,-12.36 z"
       style="fill:#000000;fill-opacity:1;stroke:#000000;stroke-width:1px;stroke-linecap:butt;stroke-linejoin:miter;stroke-opacity:1" />
    <path
       sodipodi:nodetypes="cscssccsccc"
       inkscape:connector-curvature="0"
       id="path3973"
       d="m 2218.6976,1376.5425 c -32.445,20.8575 -2.4955,50.489 -20.1626,63.345 -14.1836,10.3211 -22.0825,24.3612 -29.0738,55.2612 -16.2774,26.5301 -27.2927,44.6844 -22.0049,59.2013 4.9001,13.4525 16.6254,15.5422 26.3587,13.7725 8.4975,-1.545 19.5548,-7.0234 36.0036,-21.7398 -25.0635,6.9934 -30.4015,22.5197 -47.9111,12.3922 -9.27,-12.36 -3.1775,-18.1406 2.6375,-31.5949 9.5512,-22.0986 9.5204,-56.9278 35.6126,-71.1476 19.7216,-14.7635 19.251,-34.0222 10.7762,-51.6411 -0.8274,-14.8877 7.7638,-27.8488 7.7638,-27.8488 z"
       style="fill:#000000;fill-opacity:1;stroke:#000000;stroke-width:1px;stroke-linecap:butt;stroke-linejoin:miter;stroke-opacity:1" />
    <path
       sodipodi:nodetypes="cssccccccccccsc"
       inkscape:connector-curvature="0"
       id="path3975"
       d="m 2256.4725,1392.765 c 36.3075,0 48.7801,-1.188 66.435,-6.9525 25.7658,-8.4127 27.9842,-17.4146 42.4875,-23.9475 14.7244,-6.6325 16.8625,-10.6276 15.4969,-18.0018 7.6473,1.9118 12.2274,-9.926 9.2231,-26.8032 6.2348,-11.779 9.8243,-25.8125 0,-43.26 6.2898,-6.7958 1.7485,-4.2119 -3.8237,-21.5524 13.8193,21.7157 17.7367,28.5825 17.7367,48.6675 -6.2817,16.5345 -6.6405,27.5918 -6.188,42.4099 -5.0099,10.7213 3.9254,9.8404 15.2706,12.8206 12.6252,4.5187 4.9536,4.7822 18.0018,15.6294 -15.3563,-3.9014 -3.5264,-7.0851 -24.6263,-11.7281 -19.188,1.6387 -9.278,-3.9562 -34.8254,10.3156 -11.6183,12.0869 -27.154,19.8976 -44.149,24.5326 -16.995,4.635 -71.0392,-2.1301 -71.0392,-2.1301 z"
       style="fill:#000000;fill-opacity:1;stroke:#000000;stroke-width:1px;stroke-linecap:butt;stroke-linejoin:miter;stroke-opacity:1" />
    <path
       sodipodi:nodetypes="ccccccccssssccc"
       inkscape:connector-curvature="0"
       id="path3977"
       d="m 2199.3075,1531.0425 c 56.3925,27.0375 33.99,24.72 73.3875,31.6725 7.725,13.905 109.7509,29.2592 152.1825,13.1325 59.4825,-13.1325 24.72,-10.0425 58.71,-23.9475 53.3025,-28.5825 61.0275,-54.8475 74.9325,-70.2975 16.5546,-44.071 14.0158,-38.464 47.1225,-51.7575 18.54,-10.0425 23.4781,-23.8522 65.6625,-41.715 -21.8775,17.6561 -50.985,47.895 -50.985,47.895 0,0 -23.175,6.9525 -38.625,17.7675 -15.45,10.815 -19.3125,41.715 -25.4925,57.165 -6.18,15.45 -95.79,68.7525 -112.785,74.9325 -16.995,6.18 -54.8475,13.905 -84.2025,12.36 -29.355,-1.545 -54.075,-4.635 -78.795,-20.085 -29.355,-6.9525 -42.4875,-13.905 -57.9375,-27.0375 -13.905,-9.27 -23.175,-20.085 -23.175,-20.085 z"
       style="fill:#000000;fill-opacity:1;stroke:#000000;stroke-width:1px;stroke-linecap:butt;stroke-linejoin:miter;stroke-opacity:1" />
    <path
       sodipodi:nodetypes="ccssccsccccccssscc"
       inkscape:connector-curvature="0"
       id="path3979"
       d="m 1876.4025,1464.6075 c 21.63,5.4075 13.4525,8.045 31.22,6.5 17.2212,-8.6461 1.225,-3.41 20.5375,-1.865 19.3125,1.545 12.4343,8.4531 27.8488,1.1313 15.9025,-7.5536 29.1837,-3.2774 46.0622,2.8637 14.2316,6.5867 25.5683,-13.2898 41.1366,-7.4987 8.2003,10.7762 14.9419,5.2723 25.5313,7.1788 27.5222,4.9549 28.2559,12.6572 35.0209,18.6498 19.863,11.6833 20.9519,30.0539 40.3802,54.1914 -10.1729,-31.8026 -18.986,-37.9557 -37.2902,-65.6464 -14.6775,-10.0425 -20.8186,-21.5135 -39.6947,-14.6387 -13.9599,1.4125 -14.225,-17.6122 -31.6337,-5.86 -12.0217,-1.5902 -4.7675,-4.1276 -23.3075,2.0524 -19.0863,7.2725 -13.4137,-2.841 -27.0375,-5.3847 -18.4765,-3.4498 -15.9802,-2.9963 -27.6614,3.6911 -8.9444,5.1206 -11.8687,3.1288 -26.5462,0.039 -14.6775,-3.09 -12.1725,-6.18 -28.5825,4.0111 -13.4609,1.8291 -25.9838,0.5851 -25.9838,0.5851 z"
       style="fill:#000000;fill-opacity:1;stroke:#000000;stroke-width:1px;stroke-linecap:butt;stroke-linejoin:miter;stroke-opacity:1" />
    <path
       inkscape:connector-curvature="0"
       id="path4010"
       d="m 1539.2063,1434.8662 c 0,0 3.8625,-3.4762 8.4975,-5.0212 4.635,-1.545 4.635,0.3862 8.1112,-0.3863 3.4763,-0.7725 3.4763,1.545 -2.7037,2.7038 -6.18,1.1587 -3.4763,0.3862 -8.4975,1.545 -5.0213,1.1587 -5.4075,1.1587 -5.4075,1.1587 z"
       style="fill:#000000;fill-opacity:1;stroke:#000000;stroke-width:1px;stroke-linecap:butt;stroke-linejoin:miter;stroke-opacity:1" />
    <path
       inkscape:connector-curvature="0"
       id="path4012"
       d="m 1538.4338,1466.5387 c 7.3387,1.545 6.18,1.545 9.6562,1.9313 3.4763,0.3862 -1.545,1.545 -5.0212,1.545 -3.4763,0 -4.635,-3.4763 -4.635,-3.4763 z"
       style="fill:#000000;fill-opacity:1;stroke:#000000;stroke-width:1px;stroke-linecap:butt;stroke-linejoin:miter;stroke-opacity:1" />
    <path
       sodipodi:nodetypes="cccscccccssccccccc"
       inkscape:connector-curvature="0"
       id="path4014"
       d="m 1485.4706,1439.7355 c 1.112,-9.0243 4.21,-12.2355 8.7318,-15.938 0.2302,-7.0314 1.3776,-14.1299 4.2682,-17.9 2.7038,-3.4763 2.8832,-0.3863 7.1319,-4.635 4.2488,-4.2488 6.8475,-10.6082 10.7293,-15.2237 12.9052,-2.1458 16.9221,1.1257 17.0145,9.9956 -1.1588,6.9525 -4.5688,12.5668 -7.2725,17.2018 -2.7038,4.635 1.1587,2.7038 3.8625,6.5663 2.7037,3.8625 4.635,0.3862 6.5662,4.2487 1.9313,3.8625 1.9313,6.18 2.7038,13.5188 0.7725,7.3387 1.9312,15.0637 0,6.18 -1.9313,-8.8838 -3.4568,-15.5906 -8.4781,-18.2944 -11.3256,-4.8146 -11.2841,-5.8811 -8.8757,-15.9494 5.942,-7.0006 14.0711,-18.1611 -0.8662,-18.0874 -13.8959,2.9097 -9.0332,15.3194 -20.2725,19.4999 -4.2488,5.755 -0.1794,8.7513 -2.8832,13.7725 -2.7037,5.0213 -3.2968,2.0832 -5.5205,5.22 -3.8625,2.3175 -6.8395,9.8243 -6.8395,9.8243 z"
       style="fill:#000000;fill-opacity:1;stroke:#000000;stroke-width:1px;stroke-linecap:butt;stroke-linejoin:miter;stroke-opacity:1" />
    <path
       sodipodi:nodetypes="csccccccccccc"
       inkscape:connector-curvature="0"
       id="path4018"
       d="m 1486.6763,1427.5275 c -14.2913,0.3862 -45.3132,1.9092 -202.7813,3.4762 -124.6842,1.2407 -737.7375,8.1113 -741.98625,9.27 -11.72949,-1.3304 -31.51792,9.1505 -42.10125,16.1951 11.37895,9.0596 22.97181,14.5594 35.14875,15.8637 221.77457,1.9573 443.69662,0.5215 665.50875,0.3862 0,0 279.7416,-0.1931 285.1491,-0.5794 -8.499,-1.8245 -23.591,-0.9374 -28.5825,-2.9934 -4.635,0.097 -892.21959,-1.0153 -892.21959,-1.0153 -32.1466,-0.3159 -34.76343,4.1122 -57.94692,-11.6149 24.41553,-16.0024 37.96809,-13.1313 57.79554,-13.7532 41.14873,-2.2742 848.60197,-7.4608 919.31187,-11.7588 1.9313,-0.7725 2.7038,-3.4762 2.7038,-3.4762 z"
       style="fill:#000000;fill-opacity:1;stroke:#000000;stroke-width:1px;stroke-linecap:butt;stroke-linejoin:miter;stroke-opacity:1" />
    <path
       sodipodi:nodetypes="cscscccc"
       inkscape:connector-curvature="0"
       id="path4020"
       d="m 2229.435,1334.055 c -1.545,-37.08 -0.086,-42.2612 7.6393,-54.6212 7.725,-12.36 5.0875,-13.9211 -2.2867,-21.4587 2.7312,-11.6343 5.3179,-11.4286 12.7349,-22.1682 12.7393,-18.4462 8.0516,-7.3019 21.3649,-24.0024 -12.36,23.175 -19.4531,29.5425 -12.2663,38.0788 3.09,12.36 -6.8521,26.6559 -11.2916,39.8273 -12.36,16.995 -15.8945,44.3444 -15.8945,44.3444 z"
       style="fill:#000000;fill-opacity:1;stroke:#000000;stroke-width:1px;stroke-linecap:butt;stroke-linejoin:miter;stroke-opacity:1" />
    <path
       inkscape:connector-curvature="0"
       id="path4022"
       d="m 1646.97,1440.66 c 0,0 8.4975,-5.4075 13.905,-13.1325 5.4075,-7.725 13.905,-23.175 11.5875,-17.7675 -2.3175,5.4075 -5.4075,20.8575 -9.27,23.175 -3.8625,2.3175 -16.2225,7.725 -16.2225,7.725 z"
       style="fill:#000000;fill-opacity:1;stroke:#000000;stroke-width:1px;stroke-linecap:butt;stroke-linejoin:miter;stroke-opacity:1" />
    <path
       sodipodi:nodetypes="cccscccccssccccccc"
       inkscape:connector-curvature="0"
       id="path4014-1"
       d="m 1484.3228,1462.9038 c 1.112,9.0243 4.21,12.2355 8.7318,15.938 0.2302,7.0314 1.3776,14.1299 4.2682,17.9 2.7038,3.4763 2.8832,0.3863 7.1319,4.635 4.2488,4.2488 6.8475,10.6082 10.7293,15.2237 12.9052,2.1458 16.9221,-1.1257 17.0145,-9.9956 -1.1588,-6.9525 -4.5688,-12.5668 -7.2725,-17.2018 -2.7038,-4.635 1.1587,-2.7038 3.8625,-6.5663 2.7037,-3.8625 4.635,-0.3862 6.5662,-4.2487 1.9313,-3.8625 1.9313,-6.18 2.7038,-13.5188 0.7725,-7.3387 1.9312,-15.0637 0,-6.18 -1.9313,8.8838 -3.4568,15.5906 -8.4781,18.2944 -11.3256,4.8146 -11.2841,5.8811 -8.8757,15.9494 5.942,7.0006 14.0711,18.1611 -0.8662,18.0874 -13.8959,-2.9097 -9.0332,-15.3194 -20.2725,-19.4999 -4.2488,-5.755 -0.1794,-8.7513 -2.8832,-13.7725 -2.7037,-5.0213 -3.2968,-2.0832 -5.5205,-5.22 -3.8625,-2.3175 -6.8395,-9.8243 -6.8395,-9.8243 z"
       style="fill:#000000;fill-opacity:1;stroke:#000000;stroke-width:1px;stroke-linecap:butt;stroke-linejoin:miter;stroke-opacity:1" />
  </g>
  <g
     id="g4064"
     style="filter:url(#filter4498)">
    <path
       style="fill:#000000;fill-opacity:1;stroke:#000000;stroke-width:1px;stroke-linecap:butt;stroke-linejoin:miter;stroke-opacity:1"
       d="m 2720.745,1390.4475 c 0,0 40.9425,-54.075 39.3975,-109.695 -1.545,-55.62 -60.5361,-139.4798 -67.5823,-173.5796 -19.6098,-12.7964 -11.4939,0.5235 -17.3539,-14.9265 -6.9525,-15.45 -2.6763,-30.331 -24.9623,-30.6349 -34.4504,-15.3624 -35.1923,-33.7183 -46.0073,-52.2583 -10.815,-18.53996 -35.6742,-66.9557 -37.9917,-79.3157 -2.3175,-12.36 -0.1874,-12.28236 -5.5949,-28.50486 -5.4075,-16.2225 -14.3575,-10.57266 -19.3125,-23.25264 -4.955,-12.67998 -0.96,-15.05238 -5.595,-28.95738 -4.635,-13.905 -81.8964,-172.66512 -122.0664,-180.39012 -40.17,-7.725 -172.1193,-3.24345 -198.5325,11.5875 -23.7123,13.31446 -60.6412,78.0225 -62.9587,120.51 -2.3175,42.4875 -6.9083,109.74854 18.9262,162.225 24.72,50.2125 41.2894,100.7399 114.7163,105.4463 22.5913,1.4479 19.3125,58.3237 19.3125,58.3237 0,0 1.545,40.9425 16.2225,58.71 14.6775,17.7675 38.5805,17.2104 63.7313,4.635 23.9475,-11.9738 30.8564,-7.8803 47.8514,-34.1453 16.995,-26.265 20.9124,-29.4212 22.4574,-42.5537 1.545,-13.1325 6.5549,-32.2235 6.5549,-32.2235 0,0 -14.6223,34.0353 -20.8462,44.2863 -6.5662,10.815 -20.2288,29.9513 -38.7688,40.7663 -18.54,10.815 -38.7576,18.54 -56.5251,14.6775 -17.7675,-3.8625 -17.1938,-11.2126 -21.8288,-30.5251 -3.9702,-16.5428 -1.9976,-35.9875 -3.5426,-49.12 -1.545,-13.1325 -8.4253,-36.7159 -18.54,-43.9549 -11.1499,-7.9799 -42.796,2.0638 -66.7435,-24.2012 -23.9475,-26.265 -64.604,-88.40985 -65.354,-148.78386 -0.7725,-62.18625 15.3175,-167.90895 60.895,-187.99395 45.5775,-20.085 140.5615,-18.7934 176.9367,-4.83381 58.422,22.42042 85.2742,118.18308 115.9413,162.8328 -3.1998,30.44748 -6.3676,32.41089 18.3297,54.36087 15.9574,39.42966 -3.0245,19.54549 41.077,98.79485 12.621,22.6796 21.1737,32.4468 39.6513,63.3819 51.4355,15.77 19.2832,27.4292 39.9759,44.6725 37.6203,42.0923 41.9539,44.5565 52.8613,80.038 10.3474,33.66 24.1624,51.9999 32.2784,83.2587 4.8385,27.9813 -27.0101,111.3431 -27.0101,111.3431 z"
       id="path4066"
       inkscape:connector-curvature="0"
       sodipodi:nodetypes="cscccssszsssssscsssscssssssssssccsccscc" />
    <path
       style="fill:#000000;fill-opacity:1;stroke:#000000;stroke-width:1px;stroke-linecap:butt;stroke-linejoin:miter;stroke-opacity:1"
       d="m 2730.015,1380.405 c 3.09,41.715 -6.18,110.8538 -20.085,127.0763 -13.905,16.2225 -39.3975,17.3812 -71.8425,34.3762 -32.445,16.995 -162.225,63.7313 -219.39,78.4088 -57.165,14.6775 -154.0943,26.3781 -177.2693,38.7381 -23.5194,-4.58 -16.0859,-70.8134 -12.2744,-93.7925 1.241,23.3826 5.4479,39.6362 16.8705,51.8787 40.7013,19.0745 125.9133,3.8676 180.3982,-12.2743 44.805,-13.905 181.8252,-68.723 208.9612,-76.8638 27.0375,-8.1113 36.6938,-11.2013 54.4613,-23.175 21.6768,-14.6083 20.085,-25.1062 27.81,-52.1437 5.9422,-20.7978 12.36,-72.2288 12.36,-72.2288 z"
       id="path4068"
       inkscape:connector-curvature="0"
       sodipodi:nodetypes="csssccccsssc" />
    <path
       style="fill:#000000;fill-opacity:1;stroke:#000000;stroke-width:1px;stroke-linecap:butt;stroke-linejoin:miter;stroke-opacity:1"
       d="m 2284.2825,1076.04 c -21.63,16.995 -40.17,7.725 -50.2125,20.085 -10.0425,12.36 -4.635,7.725 -17.7675,15.45 -13.1325,7.725 -6.18,5.4075 -13.1325,15.45 -6.9525,10.0425 -5.4075,-10.0425 -16.995,0.7725 -11.5875,10.815 -56.3925,40.9425 -58.71,54.075 -2.3175,13.1325 11.5875,16.2225 2.3175,17.7675 -9.27,1.545 -5.4075,-2.3175 -16.2225,10.0425 -10.815,12.36 -13.1325,23.175 -23.175,30.9 -10.0425,7.725 -3.8625,-0.7725 -13.1325,3.8625 -9.27,4.635 3.09,6.18 -3.09,13.1325 -6.18,6.9525 -17.7675,-3.09 -30.9,3.8625 -13.1325,6.9525 -12.36,6.18 -12.36,12.36 0,6.18 5.4075,9.27 0,10.815 -5.4075,1.545 2.3175,-1.545 -10.0425,-3.8625 -12.36,-2.3175 -6.9525,4.635 -16.995,4.635 -10.0425,0 -54.8475,14.6775 -67.2075,13.1325 -12.36,-1.545 4.635,-4.635 -19.3125,1.545 -23.9475,6.18 -18.54,10.815 -31.6725,5.4075 -13.1325,-5.4075 -2.3175,-20.085 -17.7675,-18.54 -15.45,1.545 -27.81,25.4925 -45.5775,28.5825 -17.7675,3.09 -61.0275,0.7725 -84.2025,13.1325 -23.175,12.36 -37.8525,14.6775 -54.075,22.4025 -16.2225,7.725 -7.725,10.815 -19.3125,12.36 -11.5875,1.545 -21.63,5.4075 -38.625,12.36 -16.995,6.9525 -31.6725,0 -44.0325,13.1325 -12.36,13.1325 -16.2225,23.9475 -23.175,35.535 -6.9525,11.5875 3.8625,12.36 -5.4075,24.72 -9.27,12.36 10.815,-8.4975 14.6775,-11.5875 3.8625,-3.09 1.545,-24.72 20.8575,-35.535 19.3125,-10.815 71.07,-29.355 76.4775,-29.355 5.4075,0 11.5875,-3.8625 19.3125,-10.0425 7.725,-6.18 40.17,-14.6775 57.9375,-23.175 17.7675,-8.4975 60.255,-5.4075 81.1125,-14.6775 20.8575,-9.27 25.4925,-27.0375 41.715,-18.54 16.2225,8.4975 33.2175,23.9475 44.0325,15.45 10.815,-8.4975 70.2975,-23.9475 90.3825,-22.4025 20.085,1.545 24.72,16.2225 32.445,6.18 7.725,-10.0425 3.09,-22.4025 13.905,-24.72 10.815,-2.3175 7.725,-6.9525 21.63,-6.18 13.905,0.7725 15.45,-3.8625 19.3125,-13.1325 3.8625,-9.27 0.7725,6.9525 19.3125,-13.905 18.54,-20.8575 16.2225,-31.6725 22.4025,-31.6725 6.18,0 13.1325,8.4975 13.1325,-7.725 0,-16.2225 -7.725,-16.2225 20.8575,-38.625 28.5825,-22.4025 30.1275,-24.72 40.17,-23.175 10.0425,1.545 2.3175,-0.7725 14.6775,-11.5875 12.36,-10.815 20.085,-3.8625 29.355,-22.4025 9.27,-18.54 37.08,-36.3075 37.08,-36.3075 z"
       id="path4070"
       inkscape:connector-curvature="0"
       sodipodi:nodetypes="csssssssssssssssssssssssssssssssssssssssssssssssc" />
    <path
       style="fill:#000000;fill-opacity:1;stroke:#000000;stroke-width:1px;stroke-linecap:butt;stroke-linejoin:miter;stroke-opacity:1"
       d="m 1555.8903,1455.5837 c -10.9248,9.8323 -10.3043,20.6553 -8.1193,30.4877 3.8236,5.4624 11.1002,11.1965 26.1178,3.3048 14.78,-7.7669 5.8807,-5.6062 12.0607,0.1875 5.0213,5.0213 17.1067,6.2625 20.5972,-0.8 6.1686,-12.4812 4.4264,-0.7949 14.4285,4.5299 9.6055,1.3433 13.1759,-3.1722 18.3652,-7.5422 5.8762,-11.8572 3.5038,-11.631 7.8737,-2.8911 7.3742,7.3742 12.575,8.2209 20.2223,1.6661 9.013,-4.643 7.0349,-12.8641 14.136,-13.6834 13.656,-7.1011 7.971,-25.2621 7.7216,-30.8271 -1.2719,9.021 3.1174,17.4831 -5.755,22.3797 -8.4667,4.643 -4.7182,1.0686 -11.791,10.9329 -8.3654,6.7129 -13.0823,11.3659 -19.6372,6.4497 -4.3699,-4.0968 -3.5585,-10.094 -5.1973,-17.1952 -4.6429,12.8367 -17.7819,29.5506 -28.5176,20.2852 -4.0968,-6.5549 -5.5415,-4.8668 -3.2306,-17.7802 -5.1035,10.0198 -15.4273,19.8052 -20.6165,17.6202 -7.495,-2.8194 -7.454,-8.3512 -7.4953,-16.0089 -5.0923,11.7989 -19.1231,21.9207 -30.2033,18.0065 -9.3328,-4.1436 -6.3285,-14.1359 -6.3285,-14.1359 z"
       id="path4072"
       inkscape:connector-curvature="0"
       sodipodi:nodetypes="ccscsccccccccccccccccc" />
    <path
       style="fill:#000000;fill-opacity:1;stroke:#000000;stroke-width:1px;stroke-linecap:butt;stroke-linejoin:miter;stroke-opacity:1"
       d="m 1707.5462,1451.6583 c 46.9766,-4.37 50.2541,-12.0173 81.936,-6.5549 31.6819,5.4624 37.1443,3.2774 52.439,15.2947 15.2947,12.0173 21.3034,22.3958 33.3207,2.7312 -24.5808,16.3872 -6.0087,-12.0173 -20.7572,-2.1849 -13.656,-30.0433 9.2861,-16.9335 -24.5807,-15.841 -36.0519,-13.1098 -30.0432,-2.185 -68.8262,-8.1936 -14.2023,4.9162 -53.5316,14.7485 -53.5316,14.7485 z"
       id="path4074"
       inkscape:connector-curvature="0"
       sodipodi:nodetypes="cssccccc" />
    <path
       style="fill:#000000;fill-opacity:1;stroke:#000000;stroke-width:1px;stroke-linecap:butt;stroke-linejoin:miter;stroke-opacity:1"
       d="m 1690.0665,1463.6755 c 23.7614,-1.3655 33.8669,-5.4624 34.9594,3.2775 7.9285,17.3319 18.7073,10.1562 20.484,4.9161 8.3341,-5.4155 9.9535,-1.3461 12.6846,-8.7203 0.6126,-9.4187 8.6188,-11.7831 16.8124,-16.1336 -11.5807,1.7968 -9.1776,3.0112 -16.8946,4.2568 -1.0971,5.4353 -12.042,17.2573 -22.9455,18.931 -8.3486,-2.3729 -3.5426,-9.325 -10.3706,-15.0605 -10.9248,0.8193 -34.7297,8.533 -34.7297,8.533 z"
       id="path4076"
       inkscape:connector-curvature="0"
       sodipodi:nodetypes="ccccccccc" />
    <path
       style="fill:#000000;fill-opacity:1;stroke:#000000;stroke-width:1px;stroke-linecap:butt;stroke-linejoin:miter;stroke-opacity:1"
       d="m 1897.26,1343.325 c 52.9825,1.8262 84.0539,11.2836 107.8528,15.0912 18.3364,9.27 50.7819,20.4029 69.8222,15.6214 31.0714,-5.4624 13.905,18.7274 83.43,3.2774 69.525,-15.45 62.7988,-27.9814 73.504,-22.0986 11.2514,17.3538 20.9418,10.8605 45.6645,34.0998 -31.5399,-14.9975 -44.0874,-19.18 -54.2624,-22.7386 -16.7299,15.0136 -25.7964,13.5462 -45.4289,19.2737 -18.54,4.635 -35.4051,2.7706 -55.3388,9.7225 -25.3962,-7.7965 -39.1874,-20.0234 -62.2847,-9.535 -23.5703,-10.9665 -70.2587,-25.7188 -93.4337,-30.3538 -23.175,-4.635 -69.525,-12.36 -69.525,-12.36 z"
       id="path4078"
       inkscape:connector-curvature="0"
       sodipodi:nodetypes="cccsccccccsc" />
    <path
       style="fill:#000000;fill-opacity:1;stroke:#000000;stroke-width:1px;stroke-linecap:butt;stroke-linejoin:miter;stroke-opacity:1"
       d="m 2218.6976,1376.5425 c -32.445,20.8575 -2.4955,50.489 -20.1626,63.345 -14.1836,10.3211 -22.0825,24.3612 -29.0738,55.2612 -16.2774,26.5301 -27.2927,44.6844 -22.0049,59.2013 4.9001,13.4525 16.6254,15.5422 26.3587,13.7725 8.4975,-1.545 19.5548,-7.0234 36.0036,-21.7398 -25.0635,6.9934 -30.4015,22.5197 -47.9111,12.3922 -9.27,-12.36 -3.1775,-18.1406 2.6375,-31.5949 9.5512,-22.0986 9.5204,-56.9278 35.6126,-71.1476 19.7216,-14.7635 19.251,-34.0222 10.7762,-51.6411 -0.8274,-14.8877 7.7638,-27.8488 7.7638,-27.8488 z"
       id="path4080"
       inkscape:connector-curvature="0"
       sodipodi:nodetypes="cscssccsccc" />
    <path
       style="fill:#000000;fill-opacity:1;stroke:#000000;stroke-width:1px;stroke-linecap:butt;stroke-linejoin:miter;stroke-opacity:1"
       d="m 2256.4725,1392.765 c 36.3075,0 48.7801,-1.188 66.435,-6.9525 25.7658,-8.4127 27.9842,-17.4146 42.4875,-23.9475 14.7244,-6.6325 16.8625,-10.6276 15.4969,-18.0018 7.6473,1.9118 12.2274,-9.926 9.2231,-26.8032 6.2348,-11.779 9.8243,-25.8125 0,-43.26 6.2898,-6.7958 1.7485,-4.2119 -3.8237,-21.5524 13.8193,21.7157 17.7367,28.5825 17.7367,48.6675 -6.2817,16.5345 -6.6405,27.5918 -6.188,42.4099 -5.0099,10.7213 3.9254,9.8404 15.2706,12.8206 12.6252,4.5187 4.9536,4.7822 18.0018,15.6294 -15.3563,-3.9014 -3.5264,-7.0851 -24.6263,-11.7281 -19.188,1.6387 -9.278,-3.9562 -34.8254,10.3156 -11.6183,12.0869 -27.154,19.8976 -44.149,24.5326 -16.995,4.635 -71.0392,-2.1301 -71.0392,-2.1301 z"
       id="path4082"
       inkscape:connector-curvature="0"
       sodipodi:nodetypes="cssccccccccccsc" />
    <path
       style="fill:#000000;fill-opacity:1;stroke:#000000;stroke-width:1px;stroke-linecap:butt;stroke-linejoin:miter;stroke-opacity:1"
       d="m 2199.3075,1531.0425 c 56.3925,27.0375 33.99,24.72 73.3875,31.6725 7.725,13.905 109.7509,29.2592 152.1825,13.1325 59.4825,-13.1325 24.72,-10.0425 58.71,-23.9475 53.3025,-28.5825 61.0275,-54.8475 74.9325,-70.2975 16.5546,-44.071 14.0158,-38.464 47.1225,-51.7575 18.54,-10.0425 23.4781,-23.8522 65.6625,-41.715 -21.8775,17.6561 -50.985,47.895 -50.985,47.895 0,0 -23.175,6.9525 -38.625,17.7675 -15.45,10.815 -19.3125,41.715 -25.4925,57.165 -6.18,15.45 -95.79,68.7525 -112.785,74.9325 -16.995,6.18 -54.8475,13.905 -84.2025,12.36 -29.355,-1.545 -54.075,-4.635 -78.795,-20.085 -29.355,-6.9525 -42.4875,-13.905 -57.9375,-27.0375 -13.905,-9.27 -23.175,-20.085 -23.175,-20.085 z"
       id="path4084"
       inkscape:connector-curvature="0"
       sodipodi:nodetypes="ccccccccssssccc" />
    <path
       style="fill:#000000;fill-opacity:1;stroke:#000000;stroke-width:1px;stroke-linecap:butt;stroke-linejoin:miter;stroke-opacity:1"
       d="m 1876.4025,1464.6075 c 21.63,5.4075 13.4525,8.045 31.22,6.5 17.2212,-8.6461 1.225,-3.41 20.5375,-1.865 19.3125,1.545 12.4343,8.4531 27.8488,1.1313 15.9025,-7.5536 29.1837,-3.2774 46.0622,2.8637 14.2316,6.5867 25.5683,-13.2898 41.1366,-7.4987 8.2003,10.7762 14.9419,5.2723 25.5313,7.1788 27.5222,4.9549 28.2559,12.6572 35.0209,18.6498 19.863,11.6833 20.9519,30.0539 40.3802,54.1914 -10.1729,-31.8026 -18.986,-37.9557 -37.2902,-65.6464 -14.6775,-10.0425 -20.8186,-21.5135 -39.6947,-14.6387 -13.9599,1.4125 -14.225,-17.6122 -31.6337,-5.86 -12.0217,-1.5902 -4.7675,-4.1276 -23.3075,2.0524 -19.0863,7.2725 -13.4137,-2.841 -27.0375,-5.3847 -18.4765,-3.4498 -15.9802,-2.9963 -27.6614,3.6911 -8.9444,5.1206 -11.8687,3.1288 -26.5462,0.039 -14.6775,-3.09 -12.1725,-6.18 -28.5825,4.0111 -13.4609,1.8291 -25.9838,0.5851 -25.9838,0.5851 z"
       id="path4086"
       inkscape:connector-curvature="0"
       sodipodi:nodetypes="ccssccsccccccssscc" />
    <path
       style="fill:#000000;fill-opacity:1;stroke:#000000;stroke-width:1px;stroke-linecap:butt;stroke-linejoin:miter;stroke-opacity:1"
       d="m 1539.2063,1434.8662 c 0,0 3.8625,-3.4762 8.4975,-5.0212 4.635,-1.545 4.635,0.3862 8.1112,-0.3863 3.4763,-0.7725 3.4763,1.545 -2.7037,2.7038 -6.18,1.1587 -3.4763,0.3862 -8.4975,1.545 -5.0213,1.1587 -5.4075,1.1587 -5.4075,1.1587 z"
       id="path4088"
       inkscape:connector-curvature="0" />
    <path
       style="fill:#000000;fill-opacity:1;stroke:#000000;stroke-width:1px;stroke-linecap:butt;stroke-linejoin:miter;stroke-opacity:1"
       d="m 1538.4338,1466.5387 c 7.3387,1.545 6.18,1.545 9.6562,1.9313 3.4763,0.3862 -1.545,1.545 -5.0212,1.545 -3.4763,0 -4.635,-3.4763 -4.635,-3.4763 z"
       id="path4090"
       inkscape:connector-curvature="0" />
    <path
       style="fill:#000000;fill-opacity:1;stroke:#000000;stroke-width:1px;stroke-linecap:butt;stroke-linejoin:miter;stroke-opacity:1"
       d="m 1485.4706,1439.7355 c 1.112,-9.0243 4.21,-12.2355 8.7318,-15.938 0.2302,-7.0314 1.3776,-14.1299 4.2682,-17.9 2.7038,-3.4763 2.8832,-0.3863 7.1319,-4.635 4.2488,-4.2488 6.8475,-10.6082 10.7293,-15.2237 12.9052,-2.1458 16.9221,1.1257 17.0145,9.9956 -1.1588,6.9525 -4.5688,12.5668 -7.2725,17.2018 -2.7038,4.635 1.1587,2.7038 3.8625,6.5663 2.7037,3.8625 4.635,0.3862 6.5662,4.2487 1.9313,3.8625 1.9313,6.18 2.7038,13.5188 0.7725,7.3387 1.9312,15.0637 0,6.18 -1.9313,-8.8838 -3.4568,-15.5906 -8.4781,-18.2944 -11.3256,-4.8146 -11.2841,-5.8811 -8.8757,-15.9494 5.942,-7.0006 14.0711,-18.1611 -0.8662,-18.0874 -13.8959,2.9097 -9.0332,15.3194 -20.2725,19.4999 -4.2488,5.755 -0.1794,8.7513 -2.8832,13.7725 -2.7037,5.0213 -3.2968,2.0832 -5.5205,5.22 -3.8625,2.3175 -6.8395,9.8243 -6.8395,9.8243 z"
       id="path4092"
       inkscape:connector-curvature="0"
       sodipodi:nodetypes="cccscccccssccccccc" />
    <path
       style="fill:#000000;fill-opacity:1;stroke:#000000;stroke-width:1px;stroke-linecap:butt;stroke-linejoin:miter;stroke-opacity:1"
       d="m 1486.6763,1427.5275 c -14.2913,0.3862 -45.3132,1.9092 -202.7813,3.4762 -124.6842,1.2407 -737.7375,8.1113 -741.98625,9.27 -11.72949,-1.3304 -31.51792,9.1505 -42.10125,16.1951 11.37895,9.0596 22.97181,14.5594 35.14875,15.8637 221.77457,1.9573 443.69662,0.5215 665.50875,0.3862 0,0 279.7416,-0.1931 285.1491,-0.5794 -8.499,-1.8245 -23.591,-0.9374 -28.5825,-2.9934 -4.635,0.097 -892.21959,-1.0153 -892.21959,-1.0153 -32.1466,-0.3159 -34.76343,4.1122 -57.94692,-11.6149 24.41553,-16.0024 37.96809,-13.1313 57.79554,-13.7532 41.14873,-2.2742 848.60197,-7.4608 919.31187,-11.7588 1.9313,-0.7725 2.7038,-3.4762 2.7038,-3.4762 z"
       id="path4094"
       inkscape:connector-curvature="0"
       sodipodi:nodetypes="csccccccccccc" />
    <path
       style="fill:#000000;fill-opacity:1;stroke:#000000;stroke-width:1px;stroke-linecap:butt;stroke-linejoin:miter;stroke-opacity:1"
       d="m 2229.435,1334.055 c -1.545,-37.08 -0.086,-42.2612 7.6393,-54.6212 7.725,-12.36 5.0875,-13.9211 -2.2867,-21.4587 2.7312,-11.6343 5.3179,-11.4286 12.7349,-22.1682 12.7393,-18.4462 8.0516,-7.3019 21.3649,-24.0024 -12.36,23.175 -19.4531,29.5425 -12.2663,38.0788 3.09,12.36 -6.8521,26.6559 -11.2916,39.8273 -12.36,16.995 -15.8945,44.3444 -15.8945,44.3444 z"
       id="path4096"
       inkscape:connector-curvature="0"
       sodipodi:nodetypes="cscscccc" />
    <path
       style="fill:#000000;fill-opacity:1;stroke:#000000;stroke-width:1px;stroke-linecap:butt;stroke-linejoin:miter;stroke-opacity:1"
       d="m 1646.97,1440.66 c 0,0 8.4975,-5.4075 13.905,-13.1325 5.4075,-7.725 13.905,-23.175 11.5875,-17.7675 -2.3175,5.4075 -5.4075,20.8575 -9.27,23.175 -3.8625,2.3175 -16.2225,7.725 -16.2225,7.725 z"
       id="path4098"
       inkscape:connector-curvature="0" />
    <path
       style="fill:#000000;fill-opacity:1;stroke:#000000;stroke-width:1px;stroke-linecap:butt;stroke-linejoin:miter;stroke-opacity:1"
       d="m 1484.3228,1462.9038 c 1.112,9.0243 4.21,12.2355 8.7318,15.938 0.2302,7.0314 1.3776,14.1299 4.2682,17.9 2.7038,3.4763 2.8832,0.3863 7.1319,4.635 4.2488,4.2488 6.8475,10.6082 10.7293,15.2237 12.9052,2.1458 16.9221,-1.1257 17.0145,-9.9956 -1.1588,-6.9525 -4.5688,-12.5668 -7.2725,-17.2018 -2.7038,-4.635 1.1587,-2.7038 3.8625,-6.5663 2.7037,-3.8625 4.635,-0.3862 6.5662,-4.2487 1.9313,-3.8625 1.9313,-6.18 2.7038,-13.5188 0.7725,-7.3387 1.9312,-15.0637 0,-6.18 -1.9313,8.8838 -3.4568,15.5906 -8.4781,18.2944 -11.3256,4.8146 -11.2841,5.8811 -8.8757,15.9494 5.942,7.0006 14.0711,18.1611 -0.8662,18.0874 -13.8959,-2.9097 -9.0332,-15.3194 -20.2725,-19.4999 -4.2488,-5.755 -0.1794,-8.7513 -2.8832,-13.7725 -2.7037,-5.0213 -3.2968,-2.0832 -5.5205,-5.22 -3.8625,-2.3175 -6.8395,-9.8243 -6.8395,-9.8243 z"
       id="path4100"
       inkscape:connector-curvature="0"
       sodipodi:nodetypes="cccscccccssccccccc" />
  </g>
</svg>
