<?xml version="1.0" encoding="UTF-8" standalone="no"?>
<!-- Created with Inkscape (http://www.inkscape.org/) -->

<svg
   xmlns:dc="http://purl.org/dc/elements/1.1/"
   xmlns:cc="http://creativecommons.org/ns#"
   xmlns:rdf="http://www.w3.org/1999/02/22-rdf-syntax-ns#"
   xmlns:svg="http://www.w3.org/2000/svg"
   xmlns="http://www.w3.org/2000/svg"
   xmlns:xlink="http://www.w3.org/1999/xlink"
   xmlns:sodipodi="http://sodipodi.sourceforge.net/DTD/sodipodi-0.dtd"
   xmlns:inkscape="http://www.inkscape.org/namespaces/inkscape"
   width="2481.563"
   height="1337.6477"
   id="svg5750"
   version="1.1"
   inkscape:version="0.48.2 r9819"
   sodipodi:docname="Nouveau document 6">
  <defs
     id="defs5752">
    <linearGradient
       inkscape:collect="always"
       xlink:href="#linearGradient3810-1"
       id="linearGradient4917"
       gradientUnits="userSpaceOnUse"
       gradientTransform="translate(2.9957,-3.2547)"
       x1="545.71881"
       y1="1210.4979"
       x2="2326.1562"
       y2="1185.4979" />
    <linearGradient
       inkscape:collect="always"
       id="linearGradient3810-1">
      <stop
         style="stop-color:#000000;stop-opacity:1;"
         offset="0"
         id="stop3812-7" />
      <stop
         style="stop-color:#000000;stop-opacity:0;"
         offset="1"
         id="stop3814-4" />
    </linearGradient>
    <linearGradient
       inkscape:collect="always"
       xlink:href="#linearGradient3818-1"
       id="linearGradient4914"
       gradientUnits="userSpaceOnUse"
       gradientTransform="translate(2.6951,-1.6933)"
       x1="2252.2793"
       y1="1609.3025"
       x2="458.34033"
       y2="1815.2002" />
    <linearGradient
       inkscape:collect="always"
       id="linearGradient3818-1">
      <stop
         style="stop-color:#000000;stop-opacity:1;"
         offset="0"
         id="stop3820-7" />
      <stop
         style="stop-color:#000000;stop-opacity:0;"
         offset="1"
         id="stop3822-4" />
    </linearGradient>
    <filter
       color-interpolation-filters="sRGB"
       inkscape:collect="always"
       id="filter5588">
      <feGaussianBlur
         inkscape:collect="always"
         stdDeviation="16.270886"
         id="feGaussianBlur5590" />
    </filter>
  </defs>
  <sodipodi:namedview
     inkscape:document-units="mm"
     pagecolor="#ffffff"
     bordercolor="#666666"
     borderopacity="1.0"
     inkscape:pageopacity="0.0"
     inkscape:pageshadow="2"
     inkscape:zoom="0.21707918"
     inkscape:cx="828.00483"
     inkscape:cy="843.3718"
     inkscape:current-layer="layer1"
     id="namedview5754"
     showgrid="false"
     units="cm"
     fit-margin-top="2"
     fit-margin-left="2"
     fit-margin-right="2"
     fit-margin-bottom="2"
     inkscape:window-width="1232"
     inkscape:window-height="794"
     inkscape:window-x="388"
     inkscape:window-y="246"
     inkscape:window-maximized="0" />
  <metadata
     id="metadata5756">
    <rdf:RDF>
      <cc:Work
         rdf:about="">
        <dc:format>image/svg+xml</dc:format>
        <dc:type
           rdf:resource="http://purl.org/dc/dcmitype/StillImage" />
        <dc:title></dc:title>
      </cc:Work>
    </rdf:RDF>
  </metadata>
  <g
     inkscape:label="Layer 1"
     inkscape:groupmode="layer"
     id="layer1"
     transform="translate(630.56752,228.77115)">
    <g
       transform="translate(-1019.62,-783.5465)"
       id="g5639">
      <g
         id="g4588">
        <path
           style="fill:#000000;fill-opacity:1;stroke:#000000;stroke-width:1px;stroke-linecap:butt;stroke-linejoin:miter;stroke-opacity:1"
           d="m 2720.745,1390.4475 c 0,0 40.9425,-54.075 39.3975,-109.695 -1.545,-55.62 -60.5361,-139.4798 -67.5823,-173.5796 -19.6098,-12.7964 -11.4939,0.5235 -17.3539,-14.9265 -6.9525,-15.45 -2.6763,-30.331 -24.9623,-30.6349 -34.4504,-15.3624 -35.1923,-33.7183 -46.0073,-52.2583 -10.815,-18.53996 -35.6742,-66.9557 -37.9917,-79.3157 -2.3175,-12.36 -0.1874,-12.28236 -5.5949,-28.50486 -5.4075,-16.2225 -14.3575,-10.57266 -19.3125,-23.25264 -4.955,-12.67998 -0.96,-15.05238 -5.595,-28.95738 -4.635,-13.905 -81.8964,-172.66512 -122.0664,-180.39012 -40.17,-7.725 -172.1193,-3.24345 -198.5325,11.5875 -23.7123,13.31446 -60.6412,78.0225 -62.9587,120.51 -2.3175,42.4875 -6.9083,109.74854 18.9262,162.225 24.72,50.2125 41.2894,100.7399 114.7163,105.4463 22.5913,1.4479 19.3125,58.3237 19.3125,58.3237 0,0 1.545,40.9425 16.2225,58.71 14.6775,17.7675 38.5805,17.2104 63.7313,4.635 23.9475,-11.9738 30.8564,-7.8803 47.8514,-34.1453 16.995,-26.265 20.9124,-29.4212 22.4574,-42.5537 1.545,-13.1325 6.5549,-32.2235 6.5549,-32.2235 0,0 -14.6223,34.0353 -20.8462,44.2863 -6.5662,10.815 -20.2288,29.9513 -38.7688,40.7663 -18.54,10.815 -38.7576,18.54 -56.5251,14.6775 -17.7675,-3.8625 -17.1938,-11.2126 -21.8288,-30.5251 -3.9702,-16.5428 -1.9976,-35.9875 -3.5426,-49.12 -1.545,-13.1325 -8.4253,-36.7159 -18.54,-43.9549 -11.1499,-7.9799 -42.796,2.0638 -66.7435,-24.2012 -23.9475,-26.265 -64.604,-88.40985 -65.354,-148.78386 -0.7725,-62.18625 15.3175,-167.90895 60.895,-187.99395 45.5775,-20.085 140.5615,-18.7934 176.9367,-4.83381 58.422,22.42042 85.2742,118.18308 115.9413,162.8328 -3.1998,30.44748 -6.3676,32.41089 18.3297,54.36087 15.9574,39.42966 -3.0245,19.54549 41.077,98.79485 12.621,22.6796 21.1737,32.4468 39.6513,63.3819 51.4355,15.77 19.2832,27.4292 39.9759,44.6725 37.6203,42.0923 41.9539,44.5565 52.8613,80.038 10.3474,33.66 24.1624,51.9999 32.2784,83.2587 4.8385,27.9813 -27.0101,111.3431 -27.0101,111.3431 z"
           id="path3881"
           inkscape:connector-curvature="0"
           sodipodi:nodetypes="cscccssszsssssscsssscssssssssssccsccscc" />
        <path
           style="fill:#000000;fill-opacity:1;stroke:#000000;stroke-width:1px;stroke-linecap:butt;stroke-linejoin:miter;stroke-opacity:1"
           d="m 2730.015,1380.405 c 3.09,41.715 -6.18,110.8538 -20.085,127.0763 -13.905,16.2225 -39.3975,17.3812 -71.8425,34.3762 -32.445,16.995 -162.225,63.7313 -219.39,78.4088 -57.165,14.6775 -154.0943,26.3781 -177.2693,38.7381 -23.5194,-4.58 -16.0859,-70.8134 -12.2744,-93.7925 1.241,23.3826 5.4479,39.6362 16.8705,51.8787 40.7013,19.0745 125.9133,3.8676 180.3982,-12.2743 44.805,-13.905 181.8252,-68.723 208.9612,-76.8638 27.0375,-8.1113 36.6938,-11.2013 54.4613,-23.175 21.6768,-14.6083 20.085,-25.1062 27.81,-52.1437 5.9422,-20.7978 12.36,-72.2288 12.36,-72.2288 z"
           id="path3889"
           inkscape:connector-curvature="0"
           sodipodi:nodetypes="csssccccsssc" />
        <path
           style="fill:#000000;fill-opacity:1;stroke:#000000;stroke-width:1px;stroke-linecap:butt;stroke-linejoin:miter;stroke-opacity:1"
           d="m 2284.2825,1076.04 c -21.63,16.995 -40.17,7.725 -50.2125,20.085 -10.0425,12.36 -4.635,7.725 -17.7675,15.45 -13.1325,7.725 -6.18,5.4075 -13.1325,15.45 -6.9525,10.0425 -5.4075,-10.0425 -16.995,0.7725 -11.5875,10.815 -56.3925,40.9425 -58.71,54.075 -2.3175,13.1325 11.5875,16.2225 2.3175,17.7675 -9.27,1.545 -5.4075,-2.3175 -16.2225,10.0425 -10.815,12.36 -13.1325,23.175 -23.175,30.9 -10.0425,7.725 -3.8625,-0.7725 -13.1325,3.8625 -9.27,4.635 3.09,6.18 -3.09,13.1325 -6.18,6.9525 -17.7675,-3.09 -30.9,3.8625 -13.1325,6.9525 -12.36,6.18 -12.36,12.36 0,6.18 5.4075,9.27 0,10.815 -5.4075,1.545 2.3175,-1.545 -10.0425,-3.8625 -12.36,-2.3175 -6.9525,4.635 -16.995,4.635 -10.0425,0 -54.8475,14.6775 -67.2075,13.1325 -12.36,-1.545 4.635,-4.635 -19.3125,1.545 -23.9475,6.18 -18.54,10.815 -31.6725,5.4075 -13.1325,-5.4075 -2.3175,-20.085 -17.7675,-18.54 -15.45,1.545 -27.81,25.4925 -45.5775,28.5825 -17.7675,3.09 -61.0275,0.7725 -84.2025,13.1325 -23.175,12.36 -37.8525,14.6775 -54.075,22.4025 -16.2225,7.725 -7.725,10.815 -19.3125,12.36 -11.5875,1.545 -21.63,5.4075 -38.625,12.36 -16.995,6.9525 -31.6725,0 -44.0325,13.1325 -12.36,13.1325 -16.2225,23.9475 -23.175,35.535 -6.9525,11.5875 3.8625,12.36 -5.4075,24.72 -9.27,12.36 10.815,-8.4975 14.6775,-11.5875 3.8625,-3.09 1.545,-24.72 20.8575,-35.535 19.3125,-10.815 71.07,-29.355 76.4775,-29.355 5.4075,0 11.5875,-3.8625 19.3125,-10.0425 7.725,-6.18 40.17,-14.6775 57.9375,-23.175 17.7675,-8.4975 60.255,-5.4075 81.1125,-14.6775 20.8575,-9.27 25.4925,-27.0375 41.715,-18.54 16.2225,8.4975 33.2175,23.9475 44.0325,15.45 10.815,-8.4975 70.2975,-23.9475 90.3825,-22.4025 20.085,1.545 24.72,16.2225 32.445,6.18 7.725,-10.0425 3.09,-22.4025 13.905,-24.72 10.815,-2.3175 7.725,-6.9525 21.63,-6.18 13.905,0.7725 15.45,-3.8625 19.3125,-13.1325 3.8625,-9.27 0.7725,6.9525 19.3125,-13.905 18.54,-20.8575 16.2225,-31.6725 22.4025,-31.6725 6.18,0 13.1325,8.4975 13.1325,-7.725 0,-16.2225 -7.725,-16.2225 20.8575,-38.625 28.5825,-22.4025 30.1275,-24.72 40.17,-23.175 10.0425,1.545 2.3175,-0.7725 14.6775,-11.5875 12.36,-10.815 20.085,-3.8625 29.355,-22.4025 9.27,-18.54 37.08,-36.3075 37.08,-36.3075 z"
           id="path3963"
           inkscape:connector-curvature="0"
           sodipodi:nodetypes="csssssssssssssssssssssssssssssssssssssssssssssssc" />
        <path
           style="fill:#000000;fill-opacity:1;stroke:#000000;stroke-width:1px;stroke-linecap:butt;stroke-linejoin:miter;stroke-opacity:1"
           d="m 1555.8903,1455.5837 c -10.9248,9.8323 -10.3043,20.6553 -8.1193,30.4877 3.8236,5.4624 11.1002,11.1965 26.1178,3.3048 14.78,-7.7669 5.8807,-5.6062 12.0607,0.1875 5.0213,5.0213 17.1067,6.2625 20.5972,-0.8 6.1686,-12.4812 4.4264,-0.7949 14.4285,4.5299 9.6055,1.3433 13.1759,-3.1722 18.3652,-7.5422 5.8762,-11.8572 3.5038,-11.631 7.8737,-2.8911 7.3742,7.3742 12.575,8.2209 20.2223,1.6661 9.013,-4.643 7.0349,-12.8641 14.136,-13.6834 13.656,-7.1011 7.971,-25.2621 7.7216,-30.8271 -1.2719,9.021 3.1174,17.4831 -5.755,22.3797 -8.4667,4.643 -4.7182,1.0686 -11.791,10.9329 -8.3654,6.7129 -13.0823,11.3659 -19.6372,6.4497 -4.3699,-4.0968 -3.5585,-10.094 -5.1973,-17.1952 -4.6429,12.8367 -17.7819,29.5506 -28.5176,20.2852 -4.0968,-6.5549 -5.5415,-4.8668 -3.2306,-17.7802 -5.1035,10.0198 -15.4273,19.8052 -20.6165,17.6202 -7.495,-2.8194 -7.454,-8.3512 -7.4953,-16.0089 -5.0923,11.7989 -19.1231,21.9207 -30.2033,18.0065 -9.3328,-4.1436 -6.3285,-14.1359 -6.3285,-14.1359 z"
           id="path3965"
           inkscape:connector-curvature="0"
           sodipodi:nodetypes="ccscsccccccccccccccccc" />
        <path
           style="fill:#000000;fill-opacity:1;stroke:#000000;stroke-width:1px;stroke-linecap:butt;stroke-linejoin:miter;stroke-opacity:1"
           d="m 1778.6162,1444.3195 c 20.7116,1.81 18.7594,-3.6937 32.8823,-0.3749 13.9328,7.3016 15.9005,4.0499 33.1265,9.1147 3.604,11.9317 13.9646,30.5071 30.6169,10.07 -26.1258,17.546 -6.0087,-12.0173 -20.7572,-2.1849 -13.656,-30.0433 -0.3702,-10.3672 -19.5594,-14.296 -6.3107,0.409 -14.9795,-0.64 -22.8625,-9.7386 -14.2023,4.9162 -33.4466,7.4097 -33.4466,7.4097 z"
           id="path3967"
           inkscape:connector-curvature="0"
           sodipodi:nodetypes="cccccccc" />
        <path
           style="fill:#000000;fill-opacity:1;stroke:#000000;stroke-width:1px;stroke-linecap:butt;stroke-linejoin:miter;stroke-opacity:1"
           d="m 1690.0665,1463.6755 c 23.7614,-1.3655 33.8669,-5.4624 34.9594,3.2775 7.9285,17.3319 18.7073,10.1562 20.484,4.9161 8.3341,-5.4155 9.9535,-1.3461 12.6846,-8.7203 0.6126,-9.4187 8.6188,-11.7831 16.8124,-16.1336 -11.5807,1.7968 -9.1776,3.0112 -16.8946,4.2568 -1.0971,5.4353 -12.042,17.2573 -22.9455,18.931 -8.3486,-2.3729 -3.5426,-9.325 -10.3706,-15.0605 -10.9248,0.8193 -34.7297,8.533 -34.7297,8.533 z"
           id="path3969"
           inkscape:connector-curvature="0"
           sodipodi:nodetypes="ccccccccc" />
        <path
           style="fill:#000000;fill-opacity:1;stroke:#000000;stroke-width:1px;stroke-linecap:butt;stroke-linejoin:miter;stroke-opacity:1"
           d="m 1897.26,1343.325 c 52.9825,1.8262 84.0539,11.2836 107.8528,15.0912 18.3364,9.27 50.7819,20.4029 69.8222,15.6214 18.7114,-0.055 57.0664,17.9011 127.0762,4.8223 35.1488,-6.5662 18.7664,-17.5526 29.4716,-11.6698 13.1826,11.9463 12.8305,1.9768 28.6695,23.6711 -18.4074,-16.1563 -21.2987,-13.3863 -31.4737,-16.9449 -8.6187,3.0399 -3.0077,3.5038 -22.6402,9.2313 -18.54,4.635 -63.6013,5.4743 -83.535,12.4262 -25.3962,-7.7965 -39.1874,-20.0234 -62.2847,-9.535 -23.5703,-10.9665 -70.2587,-25.7188 -93.4337,-30.3538 -23.175,-4.635 -69.525,-12.36 -69.525,-12.36 z"
           id="path3971"
           inkscape:connector-curvature="0"
           sodipodi:nodetypes="cccsccccccsc" />
        <path
           style="fill:#000000;fill-opacity:1;stroke:#000000;stroke-width:1px;stroke-linecap:butt;stroke-linejoin:miter;stroke-opacity:1"
           d="m 2242.1813,1392.765 c 36.3075,0 50.9626,1.7204 80.7262,-3.6751 23.0116,-4.1715 15.8949,-8.4062 29.3777,-16.8463 24.5568,-15.3724 22.3249,-23.7374 36.8003,-19.0943 -8.7399,-12.8367 10.0424,-27.9519 -0.063,-39.913 6.2348,-11.779 20.7491,-20.3501 -0.5462,-44.3525 9.021,1.9441 12.127,5.6205 13.1097,-15.5437 7.2644,26.6318 9.5431,46.6084 -3.0204,55.2224 -4.0967,16.5345 7.0155,10.1121 -5.0955,33.1238 0.4525,22.1923 8.2953,11.4791 19.6405,14.4593 12.6252,4.5187 4.9536,4.7822 18.0018,15.6294 -15.3563,-3.9014 -3.5264,-7.0851 -24.6263,-11.7281 -19.188,1.6387 -9.278,-3.9562 -34.8254,10.3156 -11.6183,12.0869 -27.154,19.8976 -44.149,24.5326 -16.995,4.635 -85.3304,-2.1301 -85.3304,-2.1301 z"
           id="path3975"
           inkscape:connector-curvature="0"
           sodipodi:nodetypes="cssccccccccccsc" />
        <path
           style="fill:#000000;fill-opacity:1;stroke:#000000;stroke-width:1px;stroke-linecap:butt;stroke-linejoin:miter;stroke-opacity:1"
           d="m 2199.3075,1531.0425 c 56.3925,27.0375 33.99,24.72 73.3875,31.6725 7.725,13.905 109.7509,29.2592 152.1825,13.1325 59.4825,-13.1325 24.72,-10.0425 58.71,-23.9475 53.3025,-28.5825 61.0275,-54.8475 74.9325,-70.2975 16.5546,-44.071 14.0158,-38.464 47.1225,-51.7575 18.54,-10.0425 23.4781,-23.8522 65.6625,-41.715 -21.8775,17.6561 -50.985,47.895 -50.985,47.895 0,0 -23.175,6.9525 -38.625,17.7675 -15.45,10.815 -19.3125,41.715 -25.4925,57.165 -6.18,15.45 -95.79,68.7525 -112.785,74.9325 -16.995,6.18 -54.8475,13.905 -84.2025,12.36 -29.355,-1.545 -54.075,-4.635 -78.795,-20.085 -29.355,-6.9525 -42.4875,-13.905 -57.9375,-27.0375 -13.905,-9.27 -23.175,-20.085 -23.175,-20.085 z"
           id="path3977"
           inkscape:connector-curvature="0"
           sodipodi:nodetypes="ccccccccssssccc" />
        <path
           style="fill:#000000;fill-opacity:1;stroke:#000000;stroke-width:1px;stroke-linecap:butt;stroke-linejoin:miter;stroke-opacity:1"
           d="m 1876.4025,1464.6075 c 21.63,5.4075 13.4525,8.045 31.22,6.5 17.2212,-8.6461 1.225,-3.41 20.5375,-1.865 19.3125,1.545 12.4343,8.4531 27.8488,1.1313 15.9025,-7.5536 29.1837,-3.2774 46.0622,2.8637 14.2316,6.5867 25.5683,-13.2898 41.1366,-7.4987 8.2003,10.7762 14.9419,5.2723 25.5313,7.1788 27.5222,4.9549 28.2559,12.6572 35.0209,18.6498 19.863,11.6833 71.9369,23.1014 91.3652,47.2389 -10.1729,-31.8026 -69.971,-31.0032 -88.2752,-58.6939 -14.6775,-10.0425 -20.8186,-21.5135 -39.6947,-14.6387 -13.9599,1.4125 -14.225,-17.6122 -31.6337,-5.86 -12.0217,-1.5902 -4.7675,-4.1276 -23.3075,2.0524 -19.0863,7.2725 -13.4137,-2.841 -27.0375,-5.3847 -18.4765,-3.4498 -15.9802,-2.9963 -27.6614,3.6911 -8.9444,5.1206 -11.8687,3.1288 -26.5462,0.039 -14.6775,-3.09 -12.1725,-6.18 -28.5825,4.0111 -13.4609,1.8291 -25.9838,0.5851 -25.9838,0.5851 z"
           id="path3979"
           inkscape:connector-curvature="0"
           sodipodi:nodetypes="ccssccsccccccsssccc" />
        <path
           style="fill:#000000;fill-opacity:1;stroke:#000000;stroke-width:1px;stroke-linecap:butt;stroke-linejoin:miter;stroke-opacity:1"
           d="m 1539.2063,1434.8662 c 0,0 3.8625,-3.4762 8.4975,-5.0212 4.635,-1.545 4.635,0.3862 8.1112,-0.3863 3.4763,-0.7725 3.4763,1.545 -2.7037,2.7038 -6.18,1.1587 -3.4763,0.3862 -8.4975,1.545 -5.0213,1.1587 -5.4075,1.1587 -5.4075,1.1587 z"
           id="path4010"
           inkscape:connector-curvature="0" />
        <path
           style="fill:#000000;fill-opacity:1;stroke:#000000;stroke-width:1px;stroke-linecap:butt;stroke-linejoin:miter;stroke-opacity:1"
           d="m 1538.4338,1466.5387 c 7.3387,1.545 6.18,1.545 9.6562,1.9313 3.4763,0.3862 -1.545,1.545 -5.0212,1.545 -3.4763,0 -4.635,-3.4763 -4.635,-3.4763 z"
           id="path4012"
           inkscape:connector-curvature="0" />
        <path
           style="fill:#000000;fill-opacity:1;stroke:#000000;stroke-width:1px;stroke-linecap:butt;stroke-linejoin:miter;stroke-opacity:1"
           d="m 1485.4706,1439.7355 c 1.112,-9.0243 4.21,-12.2355 8.7318,-15.938 0.2302,-7.0314 1.3776,-14.1299 4.2682,-17.9 2.7038,-3.4763 2.8832,-0.3863 7.1319,-4.635 4.2488,-4.2488 6.8475,-10.6082 10.7293,-15.2237 12.9052,-2.1458 16.9221,1.1257 17.0145,9.9956 -1.1588,6.9525 -4.5688,12.5668 -7.2725,17.2018 -2.7038,4.635 1.1587,2.7038 3.8625,6.5663 2.7037,3.8625 4.635,0.3862 6.5662,4.2487 1.9313,3.8625 1.9313,6.18 2.7038,13.5188 0.7725,7.3387 1.9312,15.0637 0,6.18 -1.9313,-8.8838 -3.4568,-15.5906 -8.4781,-18.2944 -11.3256,-4.8146 -11.2841,-5.8811 -8.8757,-15.9494 5.942,-7.0006 14.0711,-18.1611 -0.8662,-18.0874 -13.8959,2.9097 -9.0332,15.3194 -20.2725,19.4999 -4.2488,5.755 -0.1794,8.7513 -2.8832,13.7725 -2.7037,5.0213 -3.2968,2.0832 -5.5205,5.22 -3.8625,2.3175 -6.8395,9.8243 -6.8395,9.8243 z"
           id="path4014"
           inkscape:connector-curvature="0"
           sodipodi:nodetypes="cccscccccssccccccc" />
        <path
           style="fill:#000000;fill-opacity:1;stroke:#000000;stroke-width:1px;stroke-linecap:butt;stroke-linejoin:miter;stroke-opacity:1"
           d="m 1486.6763,1427.5275 c -14.2913,0.3862 -45.3132,1.9092 -202.7813,3.4762 -124.6842,1.2407 -737.7375,8.1113 -741.98625,9.27 -11.72949,-1.3304 -31.51792,9.1505 -42.10125,16.1951 11.37895,9.0596 22.97181,14.5594 35.14875,15.8637 221.77457,1.9573 443.69662,0.5215 665.50875,0.3862 0,0 279.7416,-0.1931 285.1491,-0.5794 -8.499,-1.8245 -23.591,-0.9374 -28.5825,-2.9934 -4.635,0.097 -892.21959,-1.0153 -892.21959,-1.0153 -32.1466,-0.3159 -34.76343,4.1122 -57.94692,-11.6149 24.41553,-16.0024 37.96809,-13.1313 57.79554,-13.7532 41.14873,-2.2742 848.60197,-7.4608 919.31187,-11.7588 1.9313,-0.7725 2.7038,-3.4762 2.7038,-3.4762 z"
           id="path4018"
           inkscape:connector-curvature="0"
           sodipodi:nodetypes="csccccccccccc" />
        <path
           style="fill:#000000;fill-opacity:1;stroke:#000000;stroke-width:1px;stroke-linecap:butt;stroke-linejoin:miter;stroke-opacity:1"
           d="m 2229.435,1334.055 c -1.545,-37.08 -0.086,-42.2612 7.6393,-54.6212 7.725,-12.36 5.0875,-13.9211 -2.2867,-21.4587 2.7312,-11.6343 5.3179,-11.4286 12.7349,-22.1682 12.7393,-18.4462 8.0516,-7.3019 21.3649,-24.0024 -12.36,23.175 -19.4531,29.5425 -12.2663,38.0788 3.09,12.36 -6.8521,26.6559 -11.2916,39.8273 -12.36,16.995 -15.8945,44.3444 -15.8945,44.3444 z"
           id="path4020"
           inkscape:connector-curvature="0"
           sodipodi:nodetypes="cscscccc" />
        <path
           style="fill:#000000;fill-opacity:1;stroke:#000000;stroke-width:1px;stroke-linecap:butt;stroke-linejoin:miter;stroke-opacity:1"
           d="m 1646.97,1440.66 c 0,0 8.4975,-5.4075 13.905,-13.1325 5.4075,-7.725 13.905,-23.175 11.5875,-17.7675 -2.3175,5.4075 -5.4075,20.8575 -9.27,23.175 -3.8625,2.3175 -16.2225,7.725 -16.2225,7.725 z"
           id="path4022"
           inkscape:connector-curvature="0" />
        <path
           style="fill:#000000;fill-opacity:1;stroke:#000000;stroke-width:1px;stroke-linecap:butt;stroke-linejoin:miter;stroke-opacity:1"
           d="m 1484.3228,1462.9038 c 1.112,9.0243 4.21,12.2355 8.7318,15.938 0.2302,7.0314 1.3776,14.1299 4.2682,17.9 2.7038,3.4763 2.8832,0.3863 7.1319,4.635 4.2488,4.2488 6.8475,10.6082 10.7293,15.2237 12.9052,2.1458 16.9221,-1.1257 17.0145,-9.9956 -1.1588,-6.9525 -4.5688,-12.5668 -7.2725,-17.2018 -2.7038,-4.635 1.1587,-2.7038 3.8625,-6.5663 2.7037,-3.8625 4.635,-0.3862 6.5662,-4.2487 1.9313,-3.8625 1.9313,-6.18 2.7038,-13.5188 0.7725,-7.3387 1.9312,-15.0637 0,-6.18 -1.9313,8.8838 -3.4568,15.5906 -8.4781,18.2944 -11.3256,4.8146 -11.2841,5.8811 -8.8757,15.9494 5.942,7.0006 14.0711,18.1611 -0.8662,18.0874 -13.8959,-2.9097 -9.0332,-15.3194 -20.2725,-19.4999 -4.2488,-5.755 -0.1794,-8.7513 -2.8832,-13.7725 -2.7037,-5.0213 -3.2968,-2.0832 -5.5205,-5.22 -3.8625,-2.3175 -6.8395,-9.8243 -6.8395,-9.8243 z"
           id="path4014-1"
           inkscape:connector-curvature="0"
           sodipodi:nodetypes="cccscccccssccccccc" />
        <path
           sodipodi:nodetypes="ccccccccc"
           inkscape:connector-curvature="0"
           id="path4586"
           d="m 1690.0665,1427.2361 c 23.7614,1.3655 33.8669,5.4624 34.9594,-3.2775 7.9285,-17.3319 18.7073,-10.1562 20.484,-4.9161 8.3341,5.4155 9.9535,1.3461 12.6846,8.7203 0.6126,9.4187 8.6188,11.7831 16.8124,16.1336 -11.5807,-1.7968 -9.1776,-3.0112 -16.8946,-4.2568 -1.0971,-5.4353 -12.042,-17.2573 -22.9455,-18.931 -8.3486,2.3729 -3.5426,9.325 -10.3706,15.0605 -10.9248,-0.8193 -34.7297,-8.533 -34.7297,-8.533 z"
           style="fill:#000000;fill-opacity:1;stroke:#000000;stroke-width:1px;stroke-linecap:butt;stroke-linejoin:miter;stroke-opacity:1" />
      </g>
      <path
         sodipodi:nodetypes="czc"
         inkscape:connector-curvature="0"
         id="path3922-7-4-0"
         d="m 2735.1799,1352.5706 c 0,0 -863.2661,-288.3392 -1312.6529,-290.6251 -449.3867,-2.2859 -889.81659,138.0687 -889.81659,138.0687"
         style="fill:none;stroke:url(#linearGradient4917);stroke-width:25.44410133;stroke-linecap:round;stroke-linejoin:miter;stroke-miterlimit:4;stroke-opacity:1;stroke-dasharray:none;display:inline" />
      <path
         sodipodi:nodetypes="czc"
         inkscape:connector-curvature="0"
         id="path3922-7-0"
         d="m 2265.5571,1636.4011 c 0,0 -418.0098,170.1197 -867.3966,172.4056 -449.3867,2.2859 -923.59037,-150 -923.59037,-150"
         style="fill:none;stroke:url(#linearGradient4914);stroke-width:25.44410133;stroke-linecap:round;stroke-linejoin:miter;stroke-miterlimit:4;stroke-opacity:1;stroke-dasharray:none;display:inline" />
      <text
         sodipodi:linespacing="125%"
         id="text3039"
         y="1399.0554"
         x="514.76379"
         style="font-size:72px;font-style:oblique;font-variant:normal;font-weight:normal;font-stretch:normal;line-height:125%;letter-spacing:0px;word-spacing:0px;fill:#000000;fill-opacity:1;stroke:none;font-family:Arial;-inkscape-font-specification:Century Gothic Bold Oblique"
         xml:space="preserve"><tspan
           rotate="0 0 0 0 0 0 0 0 0 0"
           style="font-size:200px;font-style:oblique;font-variant:normal;font-weight:bold;font-stretch:normal;font-family:Century Gothic;-inkscape-font-specification:Century Gothic Bold Oblique"
           y="1399.0554"
           x="514.76379"
           id="tspan3041"
           sodipodi:role="line">TAIJIJIAN</tspan></text>
      <text
         transform="scale(1.1703153,0.85447059)"
         inkscape:transform-center-y="-163.51849"
         inkscape:transform-center-x="348.04744"
         sodipodi:linespacing="125%"
         id="text3039-1"
         y="1893.1073"
         x="425.45926"
         style="font-size:84.26269531px;font-style:normal;font-variant:normal;font-weight:normal;font-stretch:normal;line-height:125%;letter-spacing:0px;word-spacing:0px;fill:#000000;fill-opacity:1;stroke:none;font-family:Arial;-inkscape-font-specification:Arial"
         xml:space="preserve"><tspan
           rotate="0 0 0 0 0 0 0 0 0 0 0 0 0 0 0 0 0 0 0 0"
           style="font-size:150px;font-style:oblique;font-variant:normal;font-weight:normal;font-stretch:normal;font-family:Century Gothic;-inkscape-font-specification:Century Gothic Oblique"
           y="1893.1073"
           x="425.45926"
           id="tspan3041-7"
           sodipodi:role="line">Taiji sword fencing</tspan></text>
      <g
         style="filter:url(#filter5588)"
         id="g5014">
        <path
           sodipodi:nodetypes="cscccssszsssssscsssscssssssssssccsccscc"
           inkscape:connector-curvature="0"
           id="path5016"
           d="m 2720.745,1390.4475 c 0,0 40.9425,-54.075 39.3975,-109.695 -1.545,-55.62 -60.5361,-139.4798 -67.5823,-173.5796 -19.6098,-12.7964 -11.4939,0.5235 -17.3539,-14.9265 -6.9525,-15.45 -2.6763,-30.331 -24.9623,-30.6349 -34.4504,-15.3624 -35.1923,-33.7183 -46.0073,-52.2583 -10.815,-18.53996 -35.6742,-66.9557 -37.9917,-79.3157 -2.3175,-12.36 -0.1874,-12.28236 -5.5949,-28.50486 -5.4075,-16.2225 -14.3575,-10.57266 -19.3125,-23.25264 -4.955,-12.67998 -0.96,-15.05238 -5.595,-28.95738 -4.635,-13.905 -81.8964,-172.66512 -122.0664,-180.39012 -40.17,-7.725 -172.1193,-3.24345 -198.5325,11.5875 -23.7123,13.31446 -60.6412,78.0225 -62.9587,120.51 -2.3175,42.4875 -6.9083,109.74854 18.9262,162.225 24.72,50.2125 41.2894,100.7399 114.7163,105.4463 22.5913,1.4479 19.3125,58.3237 19.3125,58.3237 0,0 1.545,40.9425 16.2225,58.71 14.6775,17.7675 38.5805,17.2104 63.7313,4.635 23.9475,-11.9738 30.8564,-7.8803 47.8514,-34.1453 16.995,-26.265 20.9124,-29.4212 22.4574,-42.5537 1.545,-13.1325 6.5549,-32.2235 6.5549,-32.2235 0,0 -14.6223,34.0353 -20.8462,44.2863 -6.5662,10.815 -20.2288,29.9513 -38.7688,40.7663 -18.54,10.815 -38.7576,18.54 -56.5251,14.6775 -17.7675,-3.8625 -17.1938,-11.2126 -21.8288,-30.5251 -3.9702,-16.5428 -1.9976,-35.9875 -3.5426,-49.12 -1.545,-13.1325 -8.4253,-36.7159 -18.54,-43.9549 -11.1499,-7.9799 -42.796,2.0638 -66.7435,-24.2012 -23.9475,-26.265 -64.604,-88.40985 -65.354,-148.78386 -0.7725,-62.18625 15.3175,-167.90895 60.895,-187.99395 45.5775,-20.085 140.5615,-18.7934 176.9367,-4.83381 58.422,22.42042 85.2742,118.18308 115.9413,162.8328 -3.1998,30.44748 -6.3676,32.41089 18.3297,54.36087 15.9574,39.42966 -3.0245,19.54549 41.077,98.79485 12.621,22.6796 21.1737,32.4468 39.6513,63.3819 51.4355,15.77 19.2832,27.4292 39.9759,44.6725 37.6203,42.0923 41.9539,44.5565 52.8613,80.038 10.3474,33.66 24.1624,51.9999 32.2784,83.2587 4.8385,27.9813 -27.0101,111.3431 -27.0101,111.3431 z"
           style="fill:#000000;fill-opacity:1;stroke:#000000;stroke-width:1px;stroke-linecap:butt;stroke-linejoin:miter;stroke-opacity:1" />
        <path
           sodipodi:nodetypes="csssccccsssc"
           inkscape:connector-curvature="0"
           id="path5018"
           d="m 2730.015,1380.405 c 3.09,41.715 -6.18,110.8538 -20.085,127.0763 -13.905,16.2225 -39.3975,17.3812 -71.8425,34.3762 -32.445,16.995 -162.225,63.7313 -219.39,78.4088 -57.165,14.6775 -154.0943,26.3781 -177.2693,38.7381 -23.5194,-4.58 -16.0859,-70.8134 -12.2744,-93.7925 1.241,23.3826 5.4479,39.6362 16.8705,51.8787 40.7013,19.0745 125.9133,3.8676 180.3982,-12.2743 44.805,-13.905 181.8252,-68.723 208.9612,-76.8638 27.0375,-8.1113 36.6938,-11.2013 54.4613,-23.175 21.6768,-14.6083 20.085,-25.1062 27.81,-52.1437 5.9422,-20.7978 12.36,-72.2288 12.36,-72.2288 z"
           style="fill:#000000;fill-opacity:1;stroke:#000000;stroke-width:1px;stroke-linecap:butt;stroke-linejoin:miter;stroke-opacity:1" />
        <path
           sodipodi:nodetypes="csssssssssssssssssssssssssssssssssssssssssssssssc"
           inkscape:connector-curvature="0"
           id="path5020"
           d="m 2284.2825,1076.04 c -21.63,16.995 -40.17,7.725 -50.2125,20.085 -10.0425,12.36 -4.635,7.725 -17.7675,15.45 -13.1325,7.725 -6.18,5.4075 -13.1325,15.45 -6.9525,10.0425 -5.4075,-10.0425 -16.995,0.7725 -11.5875,10.815 -56.3925,40.9425 -58.71,54.075 -2.3175,13.1325 11.5875,16.2225 2.3175,17.7675 -9.27,1.545 -5.4075,-2.3175 -16.2225,10.0425 -10.815,12.36 -13.1325,23.175 -23.175,30.9 -10.0425,7.725 -3.8625,-0.7725 -13.1325,3.8625 -9.27,4.635 3.09,6.18 -3.09,13.1325 -6.18,6.9525 -17.7675,-3.09 -30.9,3.8625 -13.1325,6.9525 -12.36,6.18 -12.36,12.36 0,6.18 5.4075,9.27 0,10.815 -5.4075,1.545 2.3175,-1.545 -10.0425,-3.8625 -12.36,-2.3175 -6.9525,4.635 -16.995,4.635 -10.0425,0 -54.8475,14.6775 -67.2075,13.1325 -12.36,-1.545 4.635,-4.635 -19.3125,1.545 -23.9475,6.18 -18.54,10.815 -31.6725,5.4075 -13.1325,-5.4075 -2.3175,-20.085 -17.7675,-18.54 -15.45,1.545 -27.81,25.4925 -45.5775,28.5825 -17.7675,3.09 -61.0275,0.7725 -84.2025,13.1325 -23.175,12.36 -37.8525,14.6775 -54.075,22.4025 -16.2225,7.725 -7.725,10.815 -19.3125,12.36 -11.5875,1.545 -21.63,5.4075 -38.625,12.36 -16.995,6.9525 -31.6725,0 -44.0325,13.1325 -12.36,13.1325 -16.2225,23.9475 -23.175,35.535 -6.9525,11.5875 3.8625,12.36 -5.4075,24.72 -9.27,12.36 10.815,-8.4975 14.6775,-11.5875 3.8625,-3.09 1.545,-24.72 20.8575,-35.535 19.3125,-10.815 71.07,-29.355 76.4775,-29.355 5.4075,0 11.5875,-3.8625 19.3125,-10.0425 7.725,-6.18 40.17,-14.6775 57.9375,-23.175 17.7675,-8.4975 60.255,-5.4075 81.1125,-14.6775 20.8575,-9.27 25.4925,-27.0375 41.715,-18.54 16.2225,8.4975 33.2175,23.9475 44.0325,15.45 10.815,-8.4975 70.2975,-23.9475 90.3825,-22.4025 20.085,1.545 24.72,16.2225 32.445,6.18 7.725,-10.0425 3.09,-22.4025 13.905,-24.72 10.815,-2.3175 7.725,-6.9525 21.63,-6.18 13.905,0.7725 15.45,-3.8625 19.3125,-13.1325 3.8625,-9.27 0.7725,6.9525 19.3125,-13.905 18.54,-20.8575 16.2225,-31.6725 22.4025,-31.6725 6.18,0 13.1325,8.4975 13.1325,-7.725 0,-16.2225 -7.725,-16.2225 20.8575,-38.625 28.5825,-22.4025 30.1275,-24.72 40.17,-23.175 10.0425,1.545 2.3175,-0.7725 14.6775,-11.5875 12.36,-10.815 20.085,-3.8625 29.355,-22.4025 9.27,-18.54 37.08,-36.3075 37.08,-36.3075 z"
           style="fill:#000000;fill-opacity:1;stroke:#000000;stroke-width:1px;stroke-linecap:butt;stroke-linejoin:miter;stroke-opacity:1" />
        <path
           sodipodi:nodetypes="ccscsccccccccccccccccc"
           inkscape:connector-curvature="0"
           id="path5022"
           d="m 1555.8903,1455.5837 c -10.9248,9.8323 -10.3043,20.6553 -8.1193,30.4877 3.8236,5.4624 11.1002,11.1965 26.1178,3.3048 14.78,-7.7669 5.8807,-5.6062 12.0607,0.1875 5.0213,5.0213 17.1067,6.2625 20.5972,-0.8 6.1686,-12.4812 4.4264,-0.7949 14.4285,4.5299 9.6055,1.3433 13.1759,-3.1722 18.3652,-7.5422 5.8762,-11.8572 3.5038,-11.631 7.8737,-2.8911 7.3742,7.3742 12.575,8.2209 20.2223,1.6661 9.013,-4.643 7.0349,-12.8641 14.136,-13.6834 13.656,-7.1011 7.971,-25.2621 7.7216,-30.8271 -1.2719,9.021 3.1174,17.4831 -5.755,22.3797 -8.4667,4.643 -4.7182,1.0686 -11.791,10.9329 -8.3654,6.7129 -13.0823,11.3659 -19.6372,6.4497 -4.3699,-4.0968 -3.5585,-10.094 -5.1973,-17.1952 -4.6429,12.8367 -17.7819,29.5506 -28.5176,20.2852 -4.0968,-6.5549 -5.5415,-4.8668 -3.2306,-17.7802 -5.1035,10.0198 -15.4273,19.8052 -20.6165,17.6202 -7.495,-2.8194 -7.454,-8.3512 -7.4953,-16.0089 -5.0923,11.7989 -19.1231,21.9207 -30.2033,18.0065 -9.3328,-4.1436 -6.3285,-14.1359 -6.3285,-14.1359 z"
           style="fill:#000000;fill-opacity:1;stroke:#000000;stroke-width:1px;stroke-linecap:butt;stroke-linejoin:miter;stroke-opacity:1" />
        <path
           sodipodi:nodetypes="cccccccc"
           inkscape:connector-curvature="0"
           id="path5024"
           d="m 1778.6162,1444.3195 c 20.7116,1.81 18.7594,-3.6937 32.8823,-0.3749 13.9328,7.3016 15.9005,4.0499 33.1265,9.1147 3.604,11.9317 13.9646,30.5071 30.6169,10.07 -26.1258,17.546 -6.0087,-12.0173 -20.7572,-2.1849 -13.656,-30.0433 -0.3702,-10.3672 -19.5594,-14.296 -6.3107,0.409 -14.9795,-0.64 -22.8625,-9.7386 -14.2023,4.9162 -33.4466,7.4097 -33.4466,7.4097 z"
           style="fill:#000000;fill-opacity:1;stroke:#000000;stroke-width:1px;stroke-linecap:butt;stroke-linejoin:miter;stroke-opacity:1" />
        <path
           sodipodi:nodetypes="ccccccccc"
           inkscape:connector-curvature="0"
           id="path5026"
           d="m 1690.0665,1463.6755 c 23.7614,-1.3655 33.8669,-5.4624 34.9594,3.2775 7.9285,17.3319 18.7073,10.1562 20.484,4.9161 8.3341,-5.4155 9.9535,-1.3461 12.6846,-8.7203 0.6126,-9.4187 8.6188,-11.7831 16.8124,-16.1336 -11.5807,1.7968 -9.1776,3.0112 -16.8946,4.2568 -1.0971,5.4353 -12.042,17.2573 -22.9455,18.931 -8.3486,-2.3729 -3.5426,-9.325 -10.3706,-15.0605 -10.9248,0.8193 -34.7297,8.533 -34.7297,8.533 z"
           style="fill:#000000;fill-opacity:1;stroke:#000000;stroke-width:1px;stroke-linecap:butt;stroke-linejoin:miter;stroke-opacity:1" />
        <path
           sodipodi:nodetypes="cccsccccccsc"
           inkscape:connector-curvature="0"
           id="path5028"
           d="m 1897.26,1343.325 c 52.9825,1.8262 84.0539,11.2836 107.8528,15.0912 18.3364,9.27 50.7819,20.4029 69.8222,15.6214 18.7114,-0.055 57.0664,17.9011 127.0762,4.8223 35.1488,-6.5662 18.7664,-17.5526 29.4716,-11.6698 13.1826,11.9463 12.8305,1.9768 28.6695,23.6711 -18.4074,-16.1563 -21.2987,-13.3863 -31.4737,-16.9449 -8.6187,3.0399 -3.0077,3.5038 -22.6402,9.2313 -18.54,4.635 -63.6013,5.4743 -83.535,12.4262 -25.3962,-7.7965 -39.1874,-20.0234 -62.2847,-9.535 -23.5703,-10.9665 -70.2587,-25.7188 -93.4337,-30.3538 -23.175,-4.635 -69.525,-12.36 -69.525,-12.36 z"
           style="fill:#000000;fill-opacity:1;stroke:#000000;stroke-width:1px;stroke-linecap:butt;stroke-linejoin:miter;stroke-opacity:1" />
        <path
           sodipodi:nodetypes="cssccccccccccsc"
           inkscape:connector-curvature="0"
           id="path5030"
           d="m 2242.1813,1392.765 c 36.3075,0 50.9626,1.7204 80.7262,-3.6751 23.0116,-4.1715 15.8949,-8.4062 29.3777,-16.8463 24.5568,-15.3724 22.3249,-23.7374 36.8003,-19.0943 -8.7399,-12.8367 10.0424,-27.9519 -0.063,-39.913 6.2348,-11.779 20.7491,-20.3501 -0.5462,-44.3525 9.021,1.9441 12.127,5.6205 13.1097,-15.5437 7.2644,26.6318 9.5431,46.6084 -3.0204,55.2224 -4.0967,16.5345 7.0155,10.1121 -5.0955,33.1238 0.4525,22.1923 8.2953,11.4791 19.6405,14.4593 12.6252,4.5187 4.9536,4.7822 18.0018,15.6294 -15.3563,-3.9014 -3.5264,-7.0851 -24.6263,-11.7281 -19.188,1.6387 -9.278,-3.9562 -34.8254,10.3156 -11.6183,12.0869 -27.154,19.8976 -44.149,24.5326 -16.995,4.635 -85.3304,-2.1301 -85.3304,-2.1301 z"
           style="fill:#000000;fill-opacity:1;stroke:#000000;stroke-width:1px;stroke-linecap:butt;stroke-linejoin:miter;stroke-opacity:1" />
        <path
           sodipodi:nodetypes="ccccccccssssccc"
           inkscape:connector-curvature="0"
           id="path5032"
           d="m 2199.3075,1531.0425 c 56.3925,27.0375 33.99,24.72 73.3875,31.6725 7.725,13.905 109.7509,29.2592 152.1825,13.1325 59.4825,-13.1325 24.72,-10.0425 58.71,-23.9475 53.3025,-28.5825 61.0275,-54.8475 74.9325,-70.2975 16.5546,-44.071 14.0158,-38.464 47.1225,-51.7575 18.54,-10.0425 23.4781,-23.8522 65.6625,-41.715 -21.8775,17.6561 -50.985,47.895 -50.985,47.895 0,0 -23.175,6.9525 -38.625,17.7675 -15.45,10.815 -19.3125,41.715 -25.4925,57.165 -6.18,15.45 -95.79,68.7525 -112.785,74.9325 -16.995,6.18 -54.8475,13.905 -84.2025,12.36 -29.355,-1.545 -54.075,-4.635 -78.795,-20.085 -29.355,-6.9525 -42.4875,-13.905 -57.9375,-27.0375 -13.905,-9.27 -23.175,-20.085 -23.175,-20.085 z"
           style="fill:#000000;fill-opacity:1;stroke:#000000;stroke-width:1px;stroke-linecap:butt;stroke-linejoin:miter;stroke-opacity:1" />
        <path
           sodipodi:nodetypes="ccssccsccccccsssccc"
           inkscape:connector-curvature="0"
           id="path5034"
           d="m 1876.4025,1464.6075 c 21.63,5.4075 13.4525,8.045 31.22,6.5 17.2212,-8.6461 1.225,-3.41 20.5375,-1.865 19.3125,1.545 12.4343,8.4531 27.8488,1.1313 15.9025,-7.5536 29.1837,-3.2774 46.0622,2.8637 14.2316,6.5867 25.5683,-13.2898 41.1366,-7.4987 8.2003,10.7762 14.9419,5.2723 25.5313,7.1788 27.5222,4.9549 28.2559,12.6572 35.0209,18.6498 19.863,11.6833 71.9369,23.1014 91.3652,47.2389 -10.1729,-31.8026 -69.971,-31.0032 -88.2752,-58.6939 -14.6775,-10.0425 -20.8186,-21.5135 -39.6947,-14.6387 -13.9599,1.4125 -14.225,-17.6122 -31.6337,-5.86 -12.0217,-1.5902 -4.7675,-4.1276 -23.3075,2.0524 -19.0863,7.2725 -13.4137,-2.841 -27.0375,-5.3847 -18.4765,-3.4498 -15.9802,-2.9963 -27.6614,3.6911 -8.9444,5.1206 -11.8687,3.1288 -26.5462,0.039 -14.6775,-3.09 -12.1725,-6.18 -28.5825,4.0111 -13.4609,1.8291 -25.9838,0.5851 -25.9838,0.5851 z"
           style="fill:#000000;fill-opacity:1;stroke:#000000;stroke-width:1px;stroke-linecap:butt;stroke-linejoin:miter;stroke-opacity:1" />
        <path
           inkscape:connector-curvature="0"
           id="path5036"
           d="m 1539.2063,1434.8662 c 0,0 3.8625,-3.4762 8.4975,-5.0212 4.635,-1.545 4.635,0.3862 8.1112,-0.3863 3.4763,-0.7725 3.4763,1.545 -2.7037,2.7038 -6.18,1.1587 -3.4763,0.3862 -8.4975,1.545 -5.0213,1.1587 -5.4075,1.1587 -5.4075,1.1587 z"
           style="fill:#000000;fill-opacity:1;stroke:#000000;stroke-width:1px;stroke-linecap:butt;stroke-linejoin:miter;stroke-opacity:1" />
        <path
           inkscape:connector-curvature="0"
           id="path5038"
           d="m 1538.4338,1466.5387 c 7.3387,1.545 6.18,1.545 9.6562,1.9313 3.4763,0.3862 -1.545,1.545 -5.0212,1.545 -3.4763,0 -4.635,-3.4763 -4.635,-3.4763 z"
           style="fill:#000000;fill-opacity:1;stroke:#000000;stroke-width:1px;stroke-linecap:butt;stroke-linejoin:miter;stroke-opacity:1" />
        <path
           sodipodi:nodetypes="cccscccccssccccccc"
           inkscape:connector-curvature="0"
           id="path5040"
           d="m 1485.4706,1439.7355 c 1.112,-9.0243 4.21,-12.2355 8.7318,-15.938 0.2302,-7.0314 1.3776,-14.1299 4.2682,-17.9 2.7038,-3.4763 2.8832,-0.3863 7.1319,-4.635 4.2488,-4.2488 6.8475,-10.6082 10.7293,-15.2237 12.9052,-2.1458 16.9221,1.1257 17.0145,9.9956 -1.1588,6.9525 -4.5688,12.5668 -7.2725,17.2018 -2.7038,4.635 1.1587,2.7038 3.8625,6.5663 2.7037,3.8625 4.635,0.3862 6.5662,4.2487 1.9313,3.8625 1.9313,6.18 2.7038,13.5188 0.7725,7.3387 1.9312,15.0637 0,6.18 -1.9313,-8.8838 -3.4568,-15.5906 -8.4781,-18.2944 -11.3256,-4.8146 -11.2841,-5.8811 -8.8757,-15.9494 5.942,-7.0006 14.0711,-18.1611 -0.8662,-18.0874 -13.8959,2.9097 -9.0332,15.3194 -20.2725,19.4999 -4.2488,5.755 -0.1794,8.7513 -2.8832,13.7725 -2.7037,5.0213 -3.2968,2.0832 -5.5205,5.22 -3.8625,2.3175 -6.8395,9.8243 -6.8395,9.8243 z"
           style="fill:#000000;fill-opacity:1;stroke:#000000;stroke-width:1px;stroke-linecap:butt;stroke-linejoin:miter;stroke-opacity:1" />
        <path
           sodipodi:nodetypes="csccccccccccc"
           inkscape:connector-curvature="0"
           id="path5042"
           d="m 1486.6763,1427.5275 c -14.2913,0.3862 -45.3132,1.9092 -202.7813,3.4762 -124.6842,1.2407 -737.7375,8.1113 -741.98625,9.27 -11.72949,-1.3304 -31.51792,9.1505 -42.10125,16.1951 11.37895,9.0596 22.97181,14.5594 35.14875,15.8637 221.77457,1.9573 443.69662,0.5215 665.50875,0.3862 0,0 279.7416,-0.1931 285.1491,-0.5794 -8.499,-1.8245 -23.591,-0.9374 -28.5825,-2.9934 -4.635,0.097 -892.21959,-1.0153 -892.21959,-1.0153 -32.1466,-0.3159 -34.76343,4.1122 -57.94692,-11.6149 24.41553,-16.0024 37.96809,-13.1313 57.79554,-13.7532 41.14873,-2.2742 848.60197,-7.4608 919.31187,-11.7588 1.9313,-0.7725 2.7038,-3.4762 2.7038,-3.4762 z"
           style="fill:#000000;fill-opacity:1;stroke:#000000;stroke-width:1px;stroke-linecap:butt;stroke-linejoin:miter;stroke-opacity:1" />
        <path
           sodipodi:nodetypes="cscscccc"
           inkscape:connector-curvature="0"
           id="path5044"
           d="m 2229.435,1334.055 c -1.545,-37.08 -0.086,-42.2612 7.6393,-54.6212 7.725,-12.36 5.0875,-13.9211 -2.2867,-21.4587 2.7312,-11.6343 5.3179,-11.4286 12.7349,-22.1682 12.7393,-18.4462 8.0516,-7.3019 21.3649,-24.0024 -12.36,23.175 -19.4531,29.5425 -12.2663,38.0788 3.09,12.36 -6.8521,26.6559 -11.2916,39.8273 -12.36,16.995 -15.8945,44.3444 -15.8945,44.3444 z"
           style="fill:#000000;fill-opacity:1;stroke:#000000;stroke-width:1px;stroke-linecap:butt;stroke-linejoin:miter;stroke-opacity:1" />
        <path
           inkscape:connector-curvature="0"
           id="path5046"
           d="m 1646.97,1440.66 c 0,0 8.4975,-5.4075 13.905,-13.1325 5.4075,-7.725 13.905,-23.175 11.5875,-17.7675 -2.3175,5.4075 -5.4075,20.8575 -9.27,23.175 -3.8625,2.3175 -16.2225,7.725 -16.2225,7.725 z"
           style="fill:#000000;fill-opacity:1;stroke:#000000;stroke-width:1px;stroke-linecap:butt;stroke-linejoin:miter;stroke-opacity:1" />
        <path
           sodipodi:nodetypes="cccscccccssccccccc"
           inkscape:connector-curvature="0"
           id="path5048"
           d="m 1484.3228,1462.9038 c 1.112,9.0243 4.21,12.2355 8.7318,15.938 0.2302,7.0314 1.3776,14.1299 4.2682,17.9 2.7038,3.4763 2.8832,0.3863 7.1319,4.635 4.2488,4.2488 6.8475,10.6082 10.7293,15.2237 12.9052,2.1458 16.9221,-1.1257 17.0145,-9.9956 -1.1588,-6.9525 -4.5688,-12.5668 -7.2725,-17.2018 -2.7038,-4.635 1.1587,-2.7038 3.8625,-6.5663 2.7037,-3.8625 4.635,-0.3862 6.5662,-4.2487 1.9313,-3.8625 1.9313,-6.18 2.7038,-13.5188 0.7725,-7.3387 1.9312,-15.0637 0,-6.18 -1.9313,8.8838 -3.4568,15.5906 -8.4781,18.2944 -11.3256,4.8146 -11.2841,5.8811 -8.8757,15.9494 5.942,7.0006 14.0711,18.1611 -0.8662,18.0874 -13.8959,-2.9097 -9.0332,-15.3194 -20.2725,-19.4999 -4.2488,-5.755 -0.1794,-8.7513 -2.8832,-13.7725 -2.7037,-5.0213 -3.2968,-2.0832 -5.5205,-5.22 -3.8625,-2.3175 -6.8395,-9.8243 -6.8395,-9.8243 z"
           style="fill:#000000;fill-opacity:1;stroke:#000000;stroke-width:1px;stroke-linecap:butt;stroke-linejoin:miter;stroke-opacity:1" />
        <path
           style="fill:#000000;fill-opacity:1;stroke:#000000;stroke-width:1px;stroke-linecap:butt;stroke-linejoin:miter;stroke-opacity:1"
           d="m 1690.0665,1427.2361 c 23.7614,1.3655 33.8669,5.4624 34.9594,-3.2775 7.9285,-17.3319 18.7073,-10.1562 20.484,-4.9161 8.3341,5.4155 9.9535,1.3461 12.6846,8.7203 0.6126,9.4187 8.6188,11.7831 16.8124,16.1336 -11.5807,-1.7968 -9.1776,-3.0112 -16.8946,-4.2568 -1.0971,-5.4353 -12.042,-17.2573 -22.9455,-18.931 -8.3486,2.3729 -3.5426,9.325 -10.3706,15.0605 -10.9248,-0.8193 -34.7297,-8.533 -34.7297,-8.533 z"
           id="path5050"
           inkscape:connector-curvature="0"
           sodipodi:nodetypes="ccccccccc" />
      </g>
    </g>
  </g>
</svg>
