<?xml version="1.0" encoding="UTF-8" standalone="no"?>
<!-- Created with Inkscape (http://www.inkscape.org/) -->

<svg
   xmlns:dc="http://purl.org/dc/elements/1.1/"
   xmlns:cc="http://creativecommons.org/ns#"
   xmlns:rdf="http://www.w3.org/1999/02/22-rdf-syntax-ns#"
   xmlns:svg="http://www.w3.org/2000/svg"
   xmlns="http://www.w3.org/2000/svg"
   xmlns:xlink="http://www.w3.org/1999/xlink"
   xmlns:sodipodi="http://sodipodi.sourceforge.net/DTD/sodipodi-0.dtd"
   xmlns:inkscape="http://www.inkscape.org/namespaces/inkscape"
   width="722.40729"
   height="1137.4948"
   id="svg2"
   version="1.1"
   inkscape:version="0.48.2 r9819"
   sodipodi:docname="alignment.svg">
  <defs
     id="defs4" />
  <sodipodi:namedview
     id="base"
     pagecolor="#ffffff"
     bordercolor="#666666"
     borderopacity="1.0"
     inkscape:pageopacity="0.0"
     inkscape:pageshadow="2"
     inkscape:zoom="0.82920136"
     inkscape:cx="668.1102"
     inkscape:cy="641.96285"
     inkscape:document-units="px"
     inkscape:current-layer="layer2"
     showgrid="false"
     inkscape:window-width="1396"
     inkscape:window-height="832"
     inkscape:window-x="25"
     inkscape:window-y="0"
     inkscape:window-maximized="0"
     inkscape:snap-to-guides="false"
     inkscape:snap-grids="false"
     inkscape:snap-nodes="false"
     units="cm"
     fit-margin-top="2"
     fit-margin-left="2"
     fit-margin-right="2"
     fit-margin-bottom="2" />
  <metadata
     id="metadata7">
    <rdf:RDF>
      <cc:Work
         rdf:about="">
        <dc:format>image/svg+xml</dc:format>
        <dc:type
           rdf:resource="http://purl.org/dc/dcmitype/StillImage" />
        <dc:title />
      </cc:Work>
    </rdf:RDF>
  </metadata>
  <g
     inkscape:label="Layer 1"
     inkscape:groupmode="layer"
     id="layer1"
     style="display:none"
     sodipodi:insensitive="true"
     transform="translate(-7.3472573,97.523774)">
    <image
       y="-62.184971"
       x="38.543415"
       id="image2993"
       xlink:href="file:///C:/Users/fred.IGBMC/Documents/Divers/Taijijian/EscrimeTaiji/Images/SwordGrip/alignment_photo.jpg"
       height="1120"
       width="640"
       style="stroke:#000000;stroke-width:3;stroke-miterlimit:4;stroke-opacity:1;stroke-dasharray:none" />
  </g>
  <g
     inkscape:groupmode="layer"
     id="layer2"
     inkscape:label="dessin"
     style="display:inline"
     transform="translate(-7.3472573,97.523774)"
     sodipodi:insensitive="true">
    <path
       style="fill:#333333;fill-opacity:1;stroke:#333333;stroke-width:0.38031235;stroke-linecap:round;stroke-linejoin:round;stroke-miterlimit:4;stroke-opacity:1;stroke-dasharray:none;stroke-dashoffset:0"
       d="m 382.4717,856.73076 c -0.18337,-0.22095 -1.65355,0.47817 -2.26819,0.0553 -1.38978,-0.95619 -1.42295,-3.90642 -1.64751,-6.22346 -0.089,-0.91862 -0.31855,-2.18364 -0.51005,-2.81115 -0.19149,-0.62752 -0.48578,-2.45302 -0.65397,-4.05667 -0.30716,-2.9287 -0.15578,-6.20362 0.54497,-11.78968 0.13995,-1.11559 0.18924,-3.22632 0.10954,-4.69052 -0.0797,-1.4642 -0.26275,-5.74272 -0.40677,-9.50781 -0.14403,-3.76509 -2.18815,-7.29134 -1.25833,-7.42749 -0.70555,-1.10843 1.85522,-2.66859 2.02349,-2.72613 0.17157,-0.0587 0.42779,3.0206 1.73893,5.63918 l 2.26041,4.51444 -0.33896,1.39448 c -1.19848,4.93053 -1.39474,6.84946 -1.52989,14.9585 -0.16901,10.13977 0.28422,13.27866 2.71065,23.62025 0.23628,1.00707 -0.15663,1.52155 -0.36569,0.68529 z"
       id="path3963"
       inkscape:connector-curvature="0"
       sodipodi:nodetypes="csccssssccscssssc" />
    <path
       style="fill:#333333;fill-opacity:1;stroke:#333333;stroke-width:0.38031235;stroke-linecap:round;stroke-linejoin:round;stroke-miterlimit:4;stroke-opacity:1;stroke-dasharray:none;stroke-dashoffset:0"
       d="m 402.58262,764.51536 c -0.4532,-0.8765 -1.77747,-1.79766 -1.77747,-1.88053 0,-0.28381 3.75106,-1.88351 5.70612,-2.27455 2.98866,-0.59777 6.43589,-0.64572 8.51207,0.087 0.94034,0.33188 1.98,1.87451 2.64331,2.26273 1.17221,0.68605 5.46358,4.22455 5.28152,4.40661 -0.0498,0.0498 -2.24668,-1.28995 -3.05061,-1.64549 -4.05156,-1.79179 -7.47852,-2.26437 -11.01925,-1.51955 -1.38962,0.29231 -4.68692,2.31782 -5.88975,3.03522 -0.0697,0.0416 0.0473,-1.59498 -0.40594,-2.47148 z"
       id="path3967"
       inkscape:connector-curvature="0"
       sodipodi:nodetypes="cssssssscsc" />
    <path
       style="fill:#333333;fill-opacity:1;stroke:#333333;stroke-width:0.91000003;stroke-linecap:round;stroke-linejoin:round;stroke-miterlimit:4;stroke-opacity:1;stroke-dasharray:none;stroke-dashoffset:0"
       d="m 432.09855,884.14708 c 0.46277,-0.32252 0.63525,-1.25369 0.71625,-1.23688 0.081,0.0168 -0.77484,-0.19335 -0.57,-0.46703 0.20483,-0.27367 1.83962,0.24427 1.96806,0.31855 0.12846,0.0743 0.30644,-0.0426 0.39552,-0.25992 0.0891,-0.21724 0.35664,-0.395 0.59456,-0.395 0.23792,0 0.43258,-0.17843 0.43258,-0.39651 0,-0.21807 0.24063,-0.39652 0.53473,-0.39652 0.29409,0 0.61098,-0.18597 0.7042,-0.41327 0.0933,-0.2273 0.29837,-0.33871 0.45593,-0.24758 0.15755,0.0911 0.3649,-0.0257 0.46078,-0.25941 0.20931,-0.51045 2.35474,-2.51621 2.69142,-2.51621 0.13063,0 0.23752,-0.17168 0.23752,-0.38152 0,-0.20984 0.25341,-0.54764 0.56316,-0.75065 0.30973,-0.20302 0.48002,-0.44693 0.37842,-0.542 -0.10159,-0.0951 0.07,-0.3818 0.38129,-0.63715 0.31132,-0.25536 0.51179,-0.61297 0.44547,-0.7947 -0.0662,-0.18175 0.0806,-0.33044 0.32669,-0.33044 0.246,0 0.42024,-0.0893 0.38724,-0.19825 -0.033,-0.10905 0.0986,-0.46591 0.29242,-0.79303 0.19383,-0.32713 0.27531,-0.59478 0.18107,-0.59478 -0.0942,0 -0.003,-0.17431 0.20191,-0.38734 0.86895,-0.90169 1.03626,-1.15103 0.87416,-1.30273 -0.0942,-0.0882 -0.0155,-0.16034 0.1749,-0.16034 0.19043,0 0.27437,-0.10879 0.18656,-0.24175 -0.0878,-0.13298 -0.0261,-0.28343 0.13711,-0.33436 0.16324,-0.0509 0.3182,-0.35846 0.34436,-0.68343 0.0262,-0.32498 0.14762,-0.59085 0.26992,-0.59085 0.1223,0 0.20732,-0.0893 0.18891,-0.19826 -0.0935,-0.55424 0.0684,-0.87013 0.35958,-0.70171 0.1947,0.11261 0.24973,0.073 0.13654,-0.0984 -0.20886,-0.31627 0.6398,-2.17374 0.99317,-2.17374 0.12171,0 0.14813,-0.17844 0.0588,-0.39651 -0.0894,-0.21808 -0.036,-0.39652 0.11872,-0.39652 0.15472,0 0.26685,-0.14869 0.2492,-0.33042 -0.062,-0.6375 0.42949,-2.57841 0.62434,-2.46571 0.19639,0.11358 0.30977,-0.48089 0.31622,-1.65811 0.002,-0.34169 0.0898,-0.75202 0.19531,-0.91186 0.23347,-0.3535 0.30923,-0.98149 0.46883,-3.88592 0.0678,-1.2358 0.14619,-2.3064 0.17397,-2.3791 0.14779,-0.38682 0.019,-9.55241 -0.14762,-10.50764 -0.13845,-0.79368 -0.0976,-1.12346 0.13926,-1.12346 0.18439,0 0.26213,0.11073 0.17273,0.24607 -0.0893,0.13534 -0.0313,0.322 0.12918,0.41478 0.16043,0.0928 0.22679,0.26698 0.14746,0.38709 -0.0794,0.1201 0.0538,0.28948 0.29578,0.37637 0.242,0.087 0.36911,0.26534 0.28247,0.39652 -0.0866,0.13118 0.0324,0.30673 0.26458,0.39009 0.23214,0.0834 0.42209,0.34076 0.42209,0.57198 0,0.23123 0.12712,0.3469 0.28247,0.25704 0.25405,-0.14693 0.40483,0.20004 0.31594,0.72695 -0.0184,0.10904 0.15721,0.19826 0.39026,0.19826 0.23304,0 0.42372,0.1577 0.42372,0.35043 0,0.19274 0.31778,0.62982 0.70619,0.97128 0.3884,0.34146 0.70619,0.72675 0.70619,0.85618 0,0.12942 0.38134,0.53562 0.84743,0.90262 0.46608,0.36701 0.84742,0.83097 0.84742,1.03101 0,0.20005 0.25382,0.49083 0.56403,0.64619 1.0666,0.53419 1.86814,2.48436 2.11884,5.15517 0.0409,0.43617 0.17135,1.13655 0.28981,1.55641 0.17714,0.62794 0.0968,0.84703 -0.45272,1.23496 -0.36743,0.25935 -0.76696,0.41439 -0.88781,0.34448 -0.12088,-0.0699 -0.21976,-0.001 -0.21976,0.15284 0,0.15397 -0.11928,0.27994 -0.26504,0.27994 -0.14578,0 -0.68256,0.35686 -1.19286,0.79304 -0.51031,0.43616 -1.11135,0.79302 -1.33566,0.79302 -0.22432,0 -0.33787,0.0655 -0.25236,0.14551 0.0856,0.08 -0.87844,1.06139 -2.14212,2.18083 -1.26367,1.11944 -2.40377,2.30372 -2.53357,2.63176 -0.12979,0.32802 -0.3554,0.52735 -0.50133,0.44295 -0.14594,-0.0845 -0.24715,-0.0555 -0.2249,0.0644 0.10427,0.56162 -0.0642,0.87876 -0.46684,0.87876 -0.24221,0 -0.36182,0.11895 -0.2658,0.26434 0.096,0.14539 0.0324,0.26434 -0.14124,0.26434 -0.17371,0 -0.23726,0.11896 -0.14125,0.26435 0.096,0.14539 0.0324,0.26434 -0.14123,0.26434 -0.1737,0 -0.23726,0.11895 -0.14124,0.26435 0.096,0.14538 0.0324,0.26434 -0.14123,0.26434 -0.1737,0 -0.2436,0.10936 -0.15533,0.24303 0.0882,0.13367 -0.0404,0.43106 -0.28596,0.66087 -0.24558,0.2298 -0.3694,0.41782 -0.27515,0.41782 0.0942,0 0.0125,0.26765 -0.18167,0.59477 -0.19416,0.32712 -0.36789,0.65425 -0.38606,0.72695 -0.22965,0.91865 -0.50893,1.58606 -0.66367,1.58606 -0.10555,0 -0.21244,0.25694 -0.23771,0.57098 -0.0253,0.31404 -0.21123,0.66908 -0.41321,0.78899 -0.20199,0.11989 -0.26744,0.21982 -0.14545,0.22204 0.12198,0.002 0.0631,0.27169 -0.13063,0.59881 -0.19384,0.32713 -0.32543,0.68399 -0.29243,0.79304 0.033,0.10903 -0.0559,0.19826 -0.19759,0.19826 -0.14167,0 -0.22271,0.29738 -0.18007,0.66086 0.0474,0.40439 -0.0655,0.66086 -0.29113,0.66086 -0.2166,0 -0.32378,0.21805 -0.25986,0.52868 0.0598,0.29078 0.0157,0.52869 -0.0982,0.52869 -0.1138,0 -0.5781,0.59477 -1.03178,1.32172 -0.45368,0.72694 -0.92529,1.32171 -1.04801,1.32171 -0.12272,0 -0.20261,0.0893 -0.17753,0.19826 0.0892,0.38773 -0.60165,1.65215 -0.90271,1.65215 -0.16838,0 -0.24637,0.0905 -0.17329,0.20118 0.0731,0.11063 -0.0395,0.42179 -0.25025,0.69147 -0.30094,0.38513 -0.61367,0.45768 -1.45795,0.33823 -1.88813,-0.26716 -6.09315,-1.18503 -6.91438,-0.88696 -1.1826,0.42927 -0.18988,1.29325 0.74895,0.63895 l 0,0 z"
       id="path3961"
       inkscape:connector-curvature="0"
       sodipodi:nodetypes="ccsccssscccssccccscssccscccsccsscscccccccsccccccsccsssscssccccsscscssccscscscsccsccscccccscscssscsccccccc" />
    <path
       style="fill:none;stroke:#000000;stroke-width:3;stroke-linecap:round;stroke-linejoin:round;stroke-miterlimit:4;stroke-opacity:1;stroke-dasharray:none;stroke-dashoffset:0"
       d="m 561.95244,27.092215 c 21.32647,-12.795881 59.18095,-33.0560256 77.30845,-42.652936 18.1275,-9.596911 18.1275,-9.596911 18.1275,-9.596911"
       id="path3769"
       inkscape:connector-curvature="0" />
    <path
       style="fill:none;stroke:#000000;stroke-width:3;stroke-linecap:round;stroke-linejoin:round;stroke-miterlimit:4;stroke-opacity:1;stroke-dasharray:none;stroke-dashoffset:0"
       d="m 486.77664,66.01302 c 11.1964,-7.997426 19.19382,-13.862204 32.52287,-20.260145 13.32904,-6.39794 26.65808,-15.461689 38.38764,-17.061175 11.72956,-1.599485 34.12235,1.066324 41.05345,2.132647 6.9311,1.066324 26.65809,2.665809 26.65809,2.665809"
       id="path3771"
       inkscape:connector-curvature="0" />
    <path
       style="fill:none;stroke:#000000;stroke-width:3;stroke-linecap:round;stroke-linejoin:round;stroke-miterlimit:4;stroke-opacity:1;stroke-dasharray:none;stroke-dashoffset:0"
       d="m 485.92312,66.439398 c -27.72441,21.326469 -26.33773,48.624502 -35.93464,71.550452 -9.59691,22.92595 -15.46169,67.17838 -15.99485,91.17065 -0.53316,23.99228 6.93111,62.37993 11.72956,82.64007 1.59948,39.45397 -5.326,54.228 -6.39794,83.70638 -1.06633,29.3239 -7.11617,54.73059 -12.79588,75.17581 -4.06156,14.62038 -10.66324,25.0586 -17.06118,36.25499 -19.72698,35.18868 -20.7933,40.52029 -20.26014,58.64779 0.53316,18.1275 4.26529,45.85191 4.79845,52.24985 2.13265,13.8622 -4.26529,14.92853 0.53317,46.38507 6.71711,44.03436 11.19639,51.71668 12.26271,58.11462"
       id="path3773"
       inkscape:connector-curvature="0"
       sodipodi:nodetypes="csscsscscsc" />
    <path
       style="fill:none;stroke:#000000;stroke-width:3;stroke-linecap:round;stroke-linejoin:round;stroke-miterlimit:4;stroke-opacity:1;stroke-dasharray:none;stroke-dashoffset:0"
       d="m 595.72194,225.18978 c 1.31506,7.23283 5.26023,7.89036 3.94518,21.69848 -1.31506,13.80813 -3.86108,37.62256 -7.77663,59.20731 -3.78848,20.88423 -20.14077,112.57652 -20.86797,125.47445 -0.88499,15.6966 -2.8872,42.48234 -3.54473,47.08505 -0.85046,14.28776 -6.05622,38.31436 -8.85932,52.73032 -2.80311,14.41596 -0.7914,21.52713 -0.40045,34.03769 0.40044,12.81418 -0.40044,19.62172 -1.60178,28.83192 -1.20132,19.62172 -5.20576,30.43369 -7.20797,47.25231 -2.00222,16.81862 -2.80311,34.83857 -7.60843,49.65498 -4.80532,14.8164 -28.83192,65.6727 -38.843,81.69044"
       id="path3775"
       inkscape:connector-curvature="0"
       sodipodi:nodetypes="cssscssc" />
    <path
       style="fill:none;stroke:#000000;stroke-width:3;stroke-linecap:round;stroke-linejoin:round;stroke-miterlimit:4;stroke-opacity:1;stroke-dasharray:none;stroke-dashoffset:0"
       d="m 503.75773,742.41903 c -4.40488,10.41153 -6.4071,11.61286 -5.20577,19.62173 1.20133,8.00887 0.80089,11.21241 8.40932,20.82305 7.60842,9.61064 16.77238,23.3303 18.82083,36.44035 2.00222,12.81419 6.40709,22.02438 2.8031,35.23901 -7.36406,22.00902 -3.16433,48.78997 -8.49652,64.87182 -10.95077,8.18649 -19.86135,6.72272 -28.34426,13.61507 -6.4071,5.20577 -11.21242,10.01109 -18.4204,18.4204"
       id="path3777"
       inkscape:connector-curvature="0"
       sodipodi:nodetypes="csssccsc" />
    <path
       style="fill:none;stroke:#000000;stroke-width:3;stroke-linecap:round;stroke-linejoin:round;stroke-miterlimit:4;stroke-opacity:1;stroke-dasharray:none;stroke-dashoffset:0"
       d="m 472.67107,951.6734 c -4.18511,1.23091 -8.12404,3.44656 -13.04769,0.24618 -6.23999,-4.05909 -7.6273,-8.827 -7.38549,-21.91028"
       id="path3779"
       inkscape:connector-curvature="0"
       sodipodi:nodetypes="ccc" />
    <path
       style="fill:none;stroke:#000000;stroke-width:1.5;stroke-linecap:round;stroke-linejoin:round;stroke-miterlimit:4;stroke-opacity:1;stroke-dasharray:none;stroke-dashoffset:0"
       d="m 473.60061,827.75996 c 4.31428,10.55704 3.36651,7.78241 3.05447,14.54169 -0.34732,7.52374 1.6169,16.51766 2.81098,22.1592"
       id="path3781"
       inkscape:connector-curvature="0"
       sodipodi:nodetypes="csc" />
    <path
       style="fill:none;stroke:#000000;stroke-width:3;stroke-linecap:round;stroke-linejoin:round;stroke-miterlimit:4;stroke-opacity:1;stroke-dasharray:none;stroke-dashoffset:0"
       d="m 478.67604,865.81084 c 2.57235,6.95063 0.64196,11.26916 0.88815,17.17754 0.24618,5.90839 0.49236,6.64694 -0.24619,9.35495"
       id="path3783"
       inkscape:connector-curvature="0"
       sodipodi:nodetypes="csc" />
    <path
       style="fill:none;stroke:#000000;stroke-width:3;stroke-linecap:round;stroke-linejoin:round;stroke-miterlimit:4;stroke-opacity:1;stroke-dasharray:none;stroke-dashoffset:0"
       d="m 421.71122,917.45398 c 6.64694,-0.24618 11.30956,-3.23221 19.44845,-3.20038 5.89697,0.0231 15.93128,-2.77358 20.43316,-6.15457 3.21048,-2.41112 5.16985,-8.12403 6.64695,-18.21753 1.4993,-10.24519 6.40075,-20.18699 5.90838,-24.61828 -0.49236,-4.43129 -4.67747,-8.86258 -11.07822,-7.63167 -6.40075,1.23092 -13.04769,6.89312 -15.26334,13.78624 -3.05266,9.49717 -5.90839,10.0935 -5.66221,12.06296"
       id="path3785"
       inkscape:connector-curvature="0"
       sodipodi:nodetypes="cssssssc" />
    <path
       style="fill:none;stroke:#000000;stroke-width:3;stroke-linecap:round;stroke-linejoin:round;stroke-miterlimit:4;stroke-opacity:1;stroke-dasharray:none;stroke-dashoffset:0"
       d="m 429.83525,887.17349 c 3.69275,-1.23091 3.72934,-3.7744 7.38548,-3.20037 4.0398,0.63427 1.98264,-0.0797 4.92366,1.72328"
       id="path3787"
       inkscape:connector-curvature="0"
       sodipodi:nodetypes="csc" />
    <path
       style="fill:none;stroke:#000000;stroke-width:3;stroke-linecap:round;stroke-linejoin:round;stroke-miterlimit:4;stroke-opacity:1;stroke-dasharray:none;stroke-dashoffset:0"
       d="m 442.63676,829.32052 c 5.66221,5.16984 6.89312,11.07823 12.06296,17.2328 5.16984,6.15457 5.90838,5.16984 11.32441,8.37022 5.41602,3.20037 3.44656,-1.4771 6.64694,2.46182 3.20038,3.93893 5.6622,8.61641 5.6622,8.61641"
       id="path3789"
       inkscape:connector-curvature="0"
       sodipodi:nodetypes="csssc" />
    <path
       style="fill:none;stroke:#000000;stroke-width:3;stroke-linecap:round;stroke-linejoin:round;stroke-miterlimit:4;stroke-opacity:1;stroke-dasharray:none;stroke-dashoffset:0"
       d="m 387.73798,917.2078 c -5.6622,-0.73855 -8.05143,-6.84888 -12.80151,-25.8492 -3.93891,-15.7557 -9.93909,-37.75102 -14.52478,-48.74421 -3.45705,-8.28751 -6.40076,-14.2786 -7.63167,-19.20226 -1.23091,-4.92365 -1.23091,-9.35494 5.41602,-15.01715 6.64694,-5.6622 13.29388,-11.07823 14.27861,-12.06296"
       id="path3793"
       inkscape:connector-curvature="0"
       sodipodi:nodetypes="cssssc" />
    <path
       style="fill:none;stroke:#000000;stroke-width:3;stroke-linecap:round;stroke-linejoin:round;stroke-miterlimit:4;stroke-opacity:1;stroke-dasharray:none;stroke-dashoffset:0"
       d="m 351.30292,820.95031 c -7.38548,14.2786 -13.78624,18.70989 -14.2786,25.11065 -0.49237,6.40075 -0.22409,12.54144 2.70801,17.2328 2.46182,3.93892 4.97096,5.36497 9.10876,7.87785 5.20974,3.16387 6.68206,5.14046 10.83205,9.84731 6.12872,6.95108 11.32441,13.78624 18.95608,24.86447"
       id="path3795"
       inkscape:connector-curvature="0"
       sodipodi:nodetypes="cssssc" />
    <path
       style="fill:none;stroke:#000000;stroke-width:3;stroke-linecap:round;stroke-linejoin:round;stroke-miterlimit:4;stroke-opacity:1;stroke-dasharray:none;stroke-dashoffset:0"
       d="m 399.55476,928.28603 c 3.20038,3.20037 8.86258,10.09349 13.04769,12.80151 4.18511,2.70801 6.89312,3.20037 12.06296,2.95419 5.16984,-0.24618 8.86258,-5.90839 13.29388,-8.6164 4.43129,-2.70801 5.6622,-1.4771 9.10876,-3.69274 3.44656,-2.21565 14.52479,-11.81678 19.20226,-17.47898 4.67748,-5.66221 9.35495,-16.74044 11.81678,-20.67936"
       id="path3797"
       inkscape:connector-curvature="0" />
    <path
       style="fill:none;stroke:#000000;stroke-width:3;stroke-linecap:round;stroke-linejoin:round;stroke-miterlimit:4;stroke-opacity:1;stroke-dasharray:none;stroke-dashoffset:0"
       d="m 342.44034,866.9865 c -0.49237,4.43129 -2.21564,6.64694 -0.24618,10.33968 1.96946,3.69274 4.43129,7.63167 7.1393,9.10877 2.70801,1.47709 7.63167,5.16983 11.32441,7.87784 3.69274,2.70801 11.20943,10.60402 16.00189,17.47899 3.35377,4.81113 24.67463,26.02494 34.95796,33.23468 5.69418,3.99224 10.74034,10.2227 18.7099,6.40075 10.79804,-4.25958 15.4657,-11.83637 21.4179,-17.23279"
       id="path3799"
       inkscape:connector-curvature="0"
       sodipodi:nodetypes="cssssscc" />
    <path
       style="fill:none;stroke:#000000;stroke-width:3;stroke-linecap:round;stroke-linejoin:round;stroke-miterlimit:4;stroke-opacity:1;stroke-dasharray:none;stroke-dashoffset:0"
       d="m 349.82583,887.66586 c 0.73854,6.15457 -1.96947,17.72516 0.98473,21.91027 2.95419,4.18511 9.35495,8.37022 12.06296,9.35495 2.70801,0.98473 35.94269,19.94081 40.62017,22.64882 4.67747,2.70801 13.29387,7.87785 13.29387,7.87785"
       id="path3801"
       inkscape:connector-curvature="0" />
    <path
       style="fill:none;stroke:#000000;stroke-width:3;stroke-linecap:round;stroke-linejoin:round;stroke-miterlimit:4;stroke-opacity:1;stroke-dasharray:none;stroke-dashoffset:0"
       d="m 429.58907,952.16576 c 6.89312,1.23092 7.52631,3.25662 14.27861,1.23092 4.92365,-1.4771 9.35494,-4.92366 10.09349,-5.41602"
       id="path3803"
       inkscape:connector-curvature="0"
       sodipodi:nodetypes="csc" />
    <path
       style="fill:none;stroke:#000000;stroke-width:3;stroke-linecap:round;stroke-linejoin:round;stroke-miterlimit:4;stroke-opacity:1;stroke-dasharray:none;stroke-dashoffset:0"
       d="m 373.06006,808.43863 c 0,11.48936 1.83356,23.07249 0.55696,26.47674 -1.27659,3.40426 0.85107,17.02128 2.12766,23.82979 1.2766,6.80851 2.12766,14.04255 3.40426,21.2766 1.27659,7.23404 3.82978,9.3617 5.10638,17.02127 1.27659,7.65958 5.53192,25.10638 8.51064,28.08511 2.97872,2.97872 20.42553,2.97872 20.42553,2.97872"
       id="path3805"
       inkscape:connector-curvature="0"
       sodipodi:nodetypes="csssssc" />
    <path
       style="fill:none;stroke:#000000;stroke-width:3;stroke-linecap:round;stroke-linejoin:round;stroke-miterlimit:4;stroke-opacity:1;stroke-dasharray:none;stroke-dashoffset:0"
       d="m 441.70213,810.23452 c 0.85106,10.6383 -0.85107,19.14894 -1.2766,25.53192 -0.42553,6.38298 -1.27659,25.53191 -3.40425,30.6383 -2.12766,5.10638 -2.55319,8.51063 -5.53192,14.89361 -2.97872,6.38298 -2.97872,5.53192 -4.25532,14.04256 -1.27659,8.51063 -3.40425,14.04255 -5.10638,18.7234 -1.70213,4.68085 -3.82979,12.34043 -6.80851,14.04255"
       id="path3807"
       inkscape:connector-curvature="0" />
    <path
       style="fill:none;stroke:#000000;stroke-width:3;stroke-linecap:round;stroke-linejoin:round;stroke-miterlimit:4;stroke-opacity:1;stroke-dasharray:none;stroke-dashoffset:0"
       d="m 428.93617,809.80899 c 0.85106,7.23404 2.12766,9.78724 1.2766,14.04255 -0.85107,4.25532 -3.40426,8.08511 -3.40426,13.61703 0,5.53191 2.55319,15.31914 0.85106,21.27659 -1.70212,5.95745 -5.53191,13.19149 -6.38297,20.42553 -0.85107,7.23405 1.70212,10.6383 -0.42554,17.44681 -2.12766,6.80851 -5.95744,11.48936 -6.80851,17.44681 -0.85106,5.95745 -0.42553,6.38298 0.42554,9.78723"
       id="path3809"
       inkscape:connector-curvature="0" />
    <path
       style="fill:none;stroke:#000000;stroke-width:3;stroke-linecap:round;stroke-linejoin:round;stroke-miterlimit:4;stroke-opacity:1;stroke-dasharray:none;stroke-dashoffset:0"
       d="m 391.48936,745.55368 c 3.66801,-12.11533 2.742,-9.95614 6.38298,-17.87235 4.68086,-3.82978 7.65957,-5.95745 15.31915,-5.53191 7.65957,0.42553 12.76596,0.85106 14.89362,4.25532 2.12766,3.40425 5.53191,25.10638 6.38298,32.34042 0.85106,7.23404 4.25531,30.6383 5.10638,34.89362 0.85106,4.25532 2.55319,11.91489 2.12766,16.17021"
       id="path3811"
       inkscape:connector-curvature="0"
       sodipodi:nodetypes="ccssssc" />
    <path
       style="fill:none;stroke:#000000;stroke-width:3;stroke-linecap:round;stroke-linejoin:round;stroke-miterlimit:4;stroke-opacity:1;stroke-dasharray:none;stroke-dashoffset:0"
       d="m 400.85056,761.29835 c 3.00891,-1.82323 8.76196,-2.56491 12.12995,-2.12766 5.31685,1.06358 9.57217,4.4663 12.12536,8.72162 2.5532,4.25532 1.65014,7.60657 1.22461,13.98954 -0.42553,6.38298 1.25575,6.46884 1.91362,11.27584 0.6406,4.68085 0.61081,8.43133 -1.51944,15.03498"
       id="path3817"
       inkscape:connector-curvature="0"
       sodipodi:nodetypes="ccsssc" />
    <path
       style="fill:none;stroke:#000000;stroke-width:3;stroke-linecap:round;stroke-linejoin:round;stroke-miterlimit:4;stroke-opacity:1;stroke-dasharray:none;stroke-dashoffset:0"
       d="m 372.98211,808.63848 c 1.91719,-2.13021 2.887,-4.42361 2.60608,-8.19446"
       id="path3819"
       inkscape:connector-curvature="0"
       sodipodi:nodetypes="cc" />
    <path
       style="fill:none;stroke:#000000;stroke-width:1.5;stroke-linecap:round;stroke-linejoin:round;stroke-miterlimit:4;stroke-opacity:1;stroke-dasharray:none;stroke-dashoffset:0"
       d="m 447.34458,835.93261 c 1.9172,7.45575 2.13022,12.78128 1.27813,20.87609 -0.85208,8.0948 -2.76927,10.01199 -5.32553,14.91148 -3.4824,6.67459 -6.81668,7.45575 -11.0771,10.65106"
       id="path3821"
       inkscape:connector-curvature="0"
       sodipodi:nodetypes="cssc" />
    <path
       style="fill:none;stroke:#000000;stroke-width:3;stroke-linecap:round;stroke-linejoin:round;stroke-miterlimit:4;stroke-opacity:1;stroke-dasharray:none;stroke-dashoffset:0"
       d="m 440.52791,955.01148 c 0.85208,3.83438 0.42604,8.73387 2.55625,10.22502 2.13021,1.49115 9.58596,1.49115 12.56825,1.27813 2.9823,-0.21302 10.012,2.55625 13.20732,0 3.19532,-2.55626 7.24272,-12.9943 8.09481,-16.18962"
       id="path3823"
       inkscape:connector-curvature="0" />
    <path
       style="fill:none;stroke:#000000;stroke-width:1.5;stroke-linecap:round;stroke-linejoin:round;stroke-miterlimit:4;stroke-opacity:1;stroke-dasharray:none;stroke-dashoffset:0"
       d="m 458.20867,940.95208 c 2.98229,-3.40834 1.70417,-3.62136 6.17761,-6.17762 4.47345,-2.55625 6.17762,-4.26042 9.79898,-4.89949 3.62136,-0.63906 6.81668,0 9.79898,1.06511 2.98229,1.06511 0.63906,0.21302 4.89949,1.91719"
       id="path3825"
       inkscape:connector-curvature="0"
       sodipodi:nodetypes="csssc" />
    <path
       style="fill:none;stroke:#000000;stroke-width:2;stroke-linecap:round;stroke-linejoin:round;stroke-miterlimit:4;stroke-opacity:1;stroke-dasharray:none;stroke-dashoffset:0"
       d="m 459.27377,940.52604 c 2.9823,3.62136 2.9823,5.96459 7.24273,7.24272 4.26042,1.27813 4.26043,0.85209 7.66876,0.85209"
       id="path3827"
       inkscape:connector-curvature="0"
       sodipodi:nodetypes="csc" />
    <path
       style="fill:none;stroke:#000000;stroke-width:2;stroke-linecap:round;stroke-linejoin:round;stroke-miterlimit:4;stroke-opacity:1;stroke-dasharray:none;stroke-dashoffset:0"
       d="m 472.69411,865.11652 c -1.91719,0.42604 -3.19532,0 -4.47344,0.21302"
       id="path3829"
       inkscape:connector-curvature="0" />
    <path
       style="fill:none;stroke:#000000;stroke-width:1.5;stroke-linecap:round;stroke-linejoin:round;stroke-miterlimit:4;stroke-opacity:1;stroke-dasharray:none;stroke-dashoffset:0"
       d="m 468.43369,884.28843 c -1.27813,-3.40834 -1.49115,-7.66876 -1.27813,-11.29012 0.21302,-3.62136 0.42604,-5.11251 0.21302,-6.81668"
       id="path3831"
       inkscape:connector-curvature="0" />
    <path
       style="fill:none;stroke:#000000;stroke-width:3;stroke-linecap:round;stroke-linejoin:round;stroke-miterlimit:4;stroke-opacity:1;stroke-dasharray:none;stroke-dashoffset:0"
       d="m 380.02988,856.80869 c 7.74224,6.18839 9.81362,9.68938 20.66305,9.37294 10.84943,-0.31645 19.5329,-2.06983 23.21932,-10.65106"
       id="path3833"
       inkscape:connector-curvature="0"
       sodipodi:nodetypes="czc" />
    <path
       style="fill:none;stroke:#000000;stroke-width:3;stroke-linecap:round;stroke-linejoin:round;stroke-miterlimit:4;stroke-opacity:1;stroke-dasharray:none;stroke-dashoffset:0"
       d="m 387.91166,826.98572 -0.21302,4.47345 c 0,0 2.34323,2.13021 4.26042,6.39063 1.9172,4.26043 0.85209,3.83439 2.55626,6.81668 3.42156,6.7758 2.83745,11.50512 6.60366,11.71617 3.76622,0.21106 7.45574,-10.43804 9.58595,-16.18961 2.13022,-5.75158 2.76928,-8.30783 4.89949,-13.63336 2.13021,-5.32553 2.93744,-5.94321 2.76928,-11.50315 -0.16816,-5.55994 -0.3608,-11.13503 -1.9172,-16.61565 -1.55639,-5.48062 -0.72686,-7.12606 -2.55625,-14.48545 -1.82938,-7.35939 -2.55626,-9.15991 -7.88179,-14.27242"
       id="path3835"
       inkscape:connector-curvature="0"
       sodipodi:nodetypes="ccsczsszzzc" />
    <path
       style="fill:none;stroke:#000000;stroke-width:3;stroke-linecap:round;stroke-linejoin:round;stroke-miterlimit:4;stroke-opacity:1;stroke-dasharray:none;stroke-dashoffset:0"
       d="m 392.59813,838.70189 c 2.55625,2.98229 3.93606,3.51968 5.11251,2.34323 2.55625,-2.55626 2.76927,-7.24272 3.19531,-10.43804 0.42604,-3.19531 0.63907,-7.0297 2.13022,-11.29012"
       id="path3837"
       inkscape:connector-curvature="0"
       sodipodi:nodetypes="cssc" />
    <path
       style="fill:none;stroke:#000000;stroke-width:3;stroke-linecap:round;stroke-linejoin:round;stroke-miterlimit:4;stroke-opacity:1;stroke-dasharray:none;stroke-dashoffset:0"
       d="m 405.41553,769.68301 c 1.78577,4.10159 1.66366,5.97335 1.99879,9.44083 0.42424,4.38954 -0.33074,8.23993 -1.39585,12.07431"
       id="path3839"
       inkscape:connector-curvature="0"
       sodipodi:nodetypes="csc" />
    <path
       style="fill:none;stroke:#000000;stroke-width:3;stroke-linecap:round;stroke-linejoin:round;stroke-miterlimit:4;stroke-opacity:1;stroke-dasharray:none;stroke-dashoffset:0"
       d="m 404.3143,819.31696 c 1.70417,2.76927 4.13346,1.97996 5.1125,-1.27813 0.97905,-3.25809 1.24976,-5.96211 -0.63906,-11.50315"
       id="path3841"
       inkscape:connector-curvature="0"
       sodipodi:nodetypes="czc" />
    <path
       style="fill:none;stroke:#000000;stroke-width:3;stroke-linecap:round;stroke-linejoin:round;stroke-miterlimit:4;stroke-opacity:1;stroke-dasharray:none;stroke-dashoffset:0"
       d="m 406.23149,791.41117 c 2.55625,3.19532 4.28107,3.21876 4.89949,7.8818 0.61842,4.66303 0.21302,6.39063 -2.34324,6.60365"
       id="path3845"
       inkscape:connector-curvature="0"
       sodipodi:nodetypes="czc" />
    <path
       style="fill:none;stroke:#000000;stroke-width:3;stroke-linecap:round;stroke-linejoin:round;stroke-miterlimit:4;stroke-opacity:1;stroke-dasharray:none;stroke-dashoffset:0"
       d="M 394.87179,838.68697 C 388.03419,823.7297 103.35785,271.52013 97.702991,260.80235 92.048125,250.08457 86.260466,237.34947 83.333334,226.8547 80.010368,214.94072 77.79795,199.11372 82.077992,188.71369"
       id="path3847"
       inkscape:connector-curvature="0"
       sodipodi:nodetypes="czsc" />
    <path
       style="fill:none;stroke:#000000;stroke-width:3;stroke-linecap:round;stroke-linejoin:round;stroke-miterlimit:4;stroke-opacity:1;stroke-dasharray:none;stroke-dashoffset:0"
       d="M 404.51807,771.9405 C 385.54217,733.68748 118.75614,224.6878 115.58735,219.98685 c -2.50281,-3.71295 -9.03196,-18.10995 -15.35726,-23.23043 -6.325304,-5.12048 -11.236616,-6.46335 -17.863122,-8.27058"
       id="path3849"
       inkscape:connector-curvature="0"
       sodipodi:nodetypes="cssc" />
    <path
       style="fill:none;stroke:#000000;stroke-width:1;stroke-linecap:round;stroke-linejoin:round;stroke-miterlimit:4;stroke-opacity:1;stroke-dasharray:none;stroke-dashoffset:0"
       d="m 405.63933,803.04609 c -2.77778,-4.16667 -295.56989,-563.53113 -297.306,-567.6978"
       id="path3851"
       inkscape:connector-curvature="0"
       sodipodi:nodetypes="cc" />
    <path
       style="fill:none;stroke:#000000;stroke-width:1.5;stroke-linecap:round;stroke-linejoin:round;stroke-miterlimit:4;stroke-opacity:1;stroke-dasharray:none;stroke-dashoffset:0"
       d="m 457.92667,851.53794 c 1.7772,7.40502 0.2962,8.29363 0.2962,8.29363"
       id="path3857"
       inkscape:connector-curvature="0" />
    <path
       style="fill:none;stroke:#000000;stroke-width:1.5;stroke-linecap:round;stroke-linejoin:round;stroke-miterlimit:4;stroke-opacity:1;stroke-dasharray:none;stroke-dashoffset:0"
       d="m 403.35164,767.34282 c 2.86298,-2.30695 6.23582,-2.91909 9.47843,-2.92499 3.24262,-0.006 11.99614,3.33227 13.1069,7.14585"
       id="path3859"
       inkscape:connector-curvature="0"
       sodipodi:nodetypes="czc" />
    <path
       style="fill:none;stroke:#000000;stroke-width:1.5;stroke-linecap:round;stroke-linejoin:round;stroke-miterlimit:4;stroke-opacity:1;stroke-dasharray:none;stroke-dashoffset:0"
       d="m 383.17308,818.22757 c -1.6827,6.97115 -1.92308,9.85577 -1.92308,16.58654 0,6.73076 0,10.8173 1.68269,17.30769 1.68269,6.49038 0.96154,6.00961 2.64423,8.65384"
       id="path3863"
       inkscape:connector-curvature="0" />
    <path
       style="fill:none;stroke:#000000;stroke-width:1.5;stroke-linecap:round;stroke-linejoin:round;stroke-miterlimit:4;stroke-opacity:1;stroke-dasharray:none;stroke-dashoffset:0"
       d="m 378.60577,806.44872 c 0,0 0,0 -2.40385,2.40385 0.72116,4.5673 0.72116,7.6923 0.72116,12.25961 0,4.56731 0.65894,8.35446 0.0725,11.48227 -0.58646,3.12781 -1.00947,9.55559 -0.17455,13.86019 0.86567,4.46311 1.24482,9.00296 2.89127,11.16642"
       id="path3865"
       inkscape:connector-curvature="0"
       sodipodi:nodetypes="ccszsc" />
    <path
       style="fill:none;stroke:#000000;stroke-width:1.5;stroke-linecap:round;stroke-linejoin:round;stroke-miterlimit:4;stroke-opacity:1;stroke-dasharray:none;stroke-dashoffset:0"
       d="m 373.55769,808.85257 c 2.64423,0 2.64423,0 2.64423,0"
       id="path3867"
       inkscape:connector-curvature="0" />
    <path
       style="fill:none;stroke:#000000;stroke-width:1.5;stroke-linecap:round;stroke-linejoin:round;stroke-miterlimit:4;stroke-opacity:1;stroke-dasharray:none;stroke-dashoffset:0"
       d="m 382.29599,858.44794 c 0,0 -1.65976,-0.9682 -3.45781,-3.73444 -1.6463,-2.53277 -0.96819,-5.80913 -1.65976,-6.63901"
       id="path3869"
       inkscape:connector-curvature="0"
       sodipodi:nodetypes="csc" />
    <path
       style="fill:none;stroke:#000000;stroke-width:1.5;stroke-linecap:round;stroke-linejoin:round;stroke-miterlimit:4;stroke-opacity:1;stroke-dasharray:none;stroke-dashoffset:0"
       d="m 425.86445,808.93203 c 0.27663,3.87275 1.97417,9.27274 1.24481,13.83126 -0.72936,4.55853 -2.48962,3.73444 -3.3195,9.82019 -0.82988,6.08576 -0.82987,3.59613 -0.13831,9.40526 0.69157,5.80913 1.79807,8.852 -0.13831,13.13969"
       id="path3871"
       inkscape:connector-curvature="0"
       sodipodi:nodetypes="czzsc" />
    <path
       style="fill:none;stroke:#000000;stroke-width:1.5;stroke-linecap:round;stroke-linejoin:round;stroke-miterlimit:4;stroke-opacity:1;stroke-dasharray:none;stroke-dashoffset:0"
       d="m 429.46058,808.6554 c 1.21208,-4.88811 2.10834,-8.14832 2.07468,-12.03319 -0.0336,-3.88487 -0.6903,-8.06518 -1.52143,-10.65008 -0.83113,-2.5849 0.69156,-7.46888 2.07469,-11.34162"
       id="path3873"
       inkscape:connector-curvature="0"
       sodipodi:nodetypes="czzc" />
    <path
       style="fill:none;stroke:#000000;stroke-width:1.5;stroke-linecap:round;stroke-linejoin:round;stroke-miterlimit:4;stroke-opacity:1;stroke-dasharray:none;stroke-dashoffset:0"
       d="m 425.86445,808.93203 c 1.93638,0.13831 2.76626,-0.27662 2.76626,-0.27662"
       id="path3875"
       inkscape:connector-curvature="0" />
    <path
       style="fill:none;stroke:#000000;stroke-width:1;stroke-linecap:round;stroke-linejoin:round;stroke-miterlimit:4;stroke-opacity:1;stroke-dasharray:none;stroke-dashoffset:0"
       d="m 413.69295,810.17684 c 0.82987,0.96819 2.35131,3.04288 4.426,5.94745"
       id="path3877"
       inkscape:connector-curvature="0"
       sodipodi:nodetypes="cc" />
    <path
       style="fill:none;stroke:#000000;stroke-width:1.5;stroke-linecap:round;stroke-linejoin:round;stroke-miterlimit:4;stroke-opacity:1;stroke-dasharray:none;stroke-dashoffset:0"
       d="m 422.68326,858.72456 c 2.76626,-4.84094 2.0747,-4.01107 2.0747,-6.639 0,-2.62794 0.27662,-3.18119 -0.55326,-6.91563"
       id="path3879"
       inkscape:connector-curvature="0"
       sodipodi:nodetypes="csc" />
    <path
       style="fill:none;stroke:#000000;stroke-width:1.5;stroke-linecap:round;stroke-linejoin:round;stroke-miterlimit:4;stroke-opacity:1;stroke-dasharray:none;stroke-dashoffset:0"
       d="m 405.74278,819.55215 c -1.87802,-1.2312 -4.28811,-3.45454 -5.16818,-1.15254 -0.88007,2.30199 -2.03948,9.02288 -2.26761,11.4182 -0.45625,4.79063 -0.94263,9.06397 -2.75237,8.94267"
       id="path3883"
       inkscape:connector-curvature="0"
       sodipodi:nodetypes="cssc" />
    <path
       style="fill:none;stroke:#000000;stroke-width:1.5;stroke-linecap:round;stroke-linejoin:round;stroke-miterlimit:4;stroke-opacity:1;stroke-dasharray:none;stroke-dashoffset:0"
       d="m 409.44514,805.43919 c -1.17076,-0.21286 -2.98011,-0.63859 -3.08654,0.74504 -0.10643,1.38362 0.53216,2.12864 0.95789,4.47015 0.42573,2.34151 0.53216,4.47017 -0.3193,6.27951 -0.85146,1.80935 -0.63859,1.59648 -1.38361,2.02221"
       id="path3885"
       inkscape:connector-curvature="0"
       sodipodi:nodetypes="csssc" />
    <path
       style="fill:none;stroke:#000000;stroke-width:1.5;stroke-linecap:round;stroke-linejoin:round;stroke-miterlimit:4;stroke-opacity:1;stroke-dasharray:none;stroke-dashoffset:0"
       d="m 403.80423,791.9223 c 2.23507,2.87366 3.14581,3.41071 4.25729,5.96021 1.37061,3.14389 0.78739,3.80217 0.31929,7.13096"
       id="path3887"
       inkscape:connector-curvature="0"
       sodipodi:nodetypes="csc" />
    <path
       style="fill:none;stroke:#000000;stroke-width:1.5;stroke-linecap:round;stroke-linejoin:round;stroke-miterlimit:4;stroke-opacity:1;stroke-dasharray:none;stroke-dashoffset:0"
       d="m 403.27206,791.49657 c 0.63859,-0.95789 1.26833,-6.06701 1.38362,-8.83389 0.21286,-5.10875 -0.21286,-7.98242 -0.74502,-11.06895"
       id="path3889"
       inkscape:connector-curvature="0"
       sodipodi:nodetypes="csc" />
    <path
       style="fill:none;stroke:#000000;stroke-width:1.5;stroke-linecap:round;stroke-linejoin:round;stroke-miterlimit:4;stroke-opacity:1;stroke-dasharray:none;stroke-dashoffset:0"
       d="m 502.7993,745.30374 c 4.16355,-7.42341 8.51457,-11.5547 11.43428,-19.21893"
       id="path3891"
       inkscape:connector-curvature="0"
       sodipodi:nodetypes="cc" />
    <path
       style="fill:none;stroke:#000000;stroke-width:1.5;stroke-linecap:round;stroke-linejoin:round;stroke-miterlimit:4;stroke-opacity:1;stroke-dasharray:none;stroke-dashoffset:0"
       d="m 509.82804,734.38329 c -7.4323,9.65376 -4.81203,4.7117 -7.46929,9.61365 -2.243,4.13774 -2.33554,5.00065 -3.36652,8.09358"
       id="path3893"
       inkscape:connector-curvature="0"
       sodipodi:nodetypes="csc" />
    <path
       style="fill:none;stroke:#000000;stroke-width:1.5;stroke-linecap:round;stroke-linejoin:round;stroke-miterlimit:4;stroke-opacity:1;stroke-dasharray:none;stroke-dashoffset:0"
       d="m 462.71758,482.46725 c 4.63748,5.15276 3.60693,6.18331 14.943,13.39717 11.33606,7.21386 18.03465,18.54993 21.64158,25.24851 3.60693,6.69859 5.66803,17.0041 7.21386,24.21796"
       id="path3895"
       inkscape:connector-curvature="0" />
    <path
       style="fill:none;stroke:#000000;stroke-width:1.5;stroke-linecap:round;stroke-linejoin:round;stroke-miterlimit:4;stroke-opacity:1;stroke-dasharray:none;stroke-dashoffset:0"
       d="m 480.33168,462.77817 c 0,9.79024 1.54583,17.51937 3.60693,21.64158 2.0611,4.1222 5.66803,7.21386 7.21386,14.42772"
       id="path3899"
       inkscape:connector-curvature="0" />
    <path
       style="fill:none;stroke:#000000;stroke-width:1.5;stroke-linecap:round;stroke-linejoin:round;stroke-miterlimit:4;stroke-opacity:1;stroke-dasharray:none;stroke-dashoffset:0"
       d="m 525.27323,529.41024 c 6.81157,2.3629 7.03678,1.38851 12.82388,4.49783 5.78711,3.10932 9.09895,6.66285 11.07417,9.41308"
       id="path3905"
       inkscape:connector-curvature="0"
       sodipodi:nodetypes="czc" />
    <path
       style="fill:none;stroke:#000000;stroke-width:1.5;stroke-linecap:round;stroke-linejoin:round;stroke-miterlimit:4;stroke-opacity:1;stroke-dasharray:none;stroke-dashoffset:0"
       d="m 602.73437,225.25077 c 2.12395,8.19059 -0.81769,23.31487 -3.16144,27.22112"
       id="path3907"
       inkscape:connector-curvature="0"
       sodipodi:nodetypes="cc" />
    <path
       style="fill:none;stroke:#000000;stroke-width:1.5;stroke-linecap:round;stroke-linejoin:round;stroke-miterlimit:4;stroke-opacity:1;stroke-dasharray:none;stroke-dashoffset:0"
       d="m 598.53749,258.49074 c 1.90415,-3.64962 1.29578,-1.87885 5.71245,-6.50584 3.33226,-3.49094 6.00263,-4.62466 8.56866,-8.56866 2.29213,-3.52301 2.60245,-6.55595 3.01491,-11.58358"
       id="path3909"
       inkscape:connector-curvature="0"
       sodipodi:nodetypes="cssc" />
    <path
       style="fill:none;stroke:#000000;stroke-width:1.5;stroke-linecap:round;stroke-linejoin:round;stroke-miterlimit:4;stroke-opacity:1;stroke-dasharray:none;stroke-dashoffset:0"
       d="m 517.46032,485.69551 c -2.77244,11.356 -3.79409,17.94868 -0.90092,23.2894 3.96173,7.31328 8.71973,6.33796 20.83707,8.05447"
       id="path3915"
       inkscape:connector-curvature="0"
       sodipodi:nodetypes="csc" />
    <path
       style="fill:none;stroke:#000000;stroke-width:1;stroke-linecap:round;stroke-linejoin:round;stroke-miterlimit:4;stroke-opacity:1;stroke-dasharray:none;stroke-dashoffset:0"
       d="m 465.50308,826.48949 c 3.28542,2.46407 3.08008,2.87475 5.74949,6.77618 2.6694,3.90144 3.79573,6.2598 4.82242,7.2865"
       id="path3931"
       inkscape:connector-curvature="0"
       sodipodi:nodetypes="csc" />
    <path
       style="fill:none;stroke:#000000;stroke-width:1;stroke-linecap:round;stroke-linejoin:round;stroke-miterlimit:4;stroke-opacity:1;stroke-dasharray:none;stroke-dashoffset:0"
       d="m 443.12115,821.15068 c 5.74949,3.49076 9.03491,6.77618 13.55236,11.70432 4.51746,4.92813 6.77618,10.0616 11.0883,14.98973 4.31211,4.92813 5.54414,8.82957 6.77618,10.26694"
       id="path3933"
       inkscape:connector-curvature="0" />
    <path
       style="fill:none;stroke:#000000;stroke-width:1;stroke-linecap:round;stroke-linejoin:round;stroke-miterlimit:4;stroke-opacity:1;stroke-dasharray:none;stroke-dashoffset:0"
       d="m 458.7269,822.99873 c 6.16016,8.00822 8.21355,9.65093 11.49897,15.40041 3.28542,5.74949 4.51746,8.82957 6.77618,11.90965"
       id="path3935"
       inkscape:connector-curvature="0" />
    <path
       style="fill:none;stroke:#000000;stroke-width:1.5;stroke-linecap:round;stroke-linejoin:round;stroke-miterlimit:4;stroke-opacity:1;stroke-dasharray:none;stroke-dashoffset:0"
       d="m 479.75133,891.7938 c 0.8881,2.6643 0.53286,3.5524 2.84192,4.61812 2.30906,1.06572 3.73002,1.59858 5.15098,1.59858"
       id="path3941"
       inkscape:connector-curvature="0" />
    <path
       style="fill:none;stroke:#000000;stroke-width:1.5;stroke-linecap:round;stroke-linejoin:round;stroke-miterlimit:4;stroke-opacity:1;stroke-dasharray:none;stroke-dashoffset:0"
       d="m 441.91829,885.5771 c 2.48668,1.95382 2.6643,2.13144 4.08526,4.61812 1.42096,2.48668 2.13144,4.08526 2.30906,5.3286"
       id="path3943"
       inkscape:connector-curvature="0" />
    <path
       style="fill:none;stroke:#000000;stroke-width:1.5;stroke-linecap:round;stroke-linejoin:round;stroke-miterlimit:4;stroke-opacity:1;stroke-dasharray:none;stroke-dashoffset:0"
       d="m 441.38544,886.10996 c 1.42095,2.48668 1.24333,3.19716 1.77619,4.26288"
       id="path3945"
       inkscape:connector-curvature="0" />
    <path
       style="fill:none;stroke:#000000;stroke-width:1.5;stroke-linecap:round;stroke-linejoin:round;stroke-miterlimit:4;stroke-opacity:1;stroke-dasharray:none;stroke-dashoffset:0"
       d="m 467.49556,956.0922 c 0,4.08526 -0.17762,5.15098 0.8881,8.52576"
       id="path3947"
       inkscape:connector-curvature="0"
       sodipodi:nodetypes="cc" />
    <path
       style="fill:none;stroke:#000000;stroke-width:1;stroke-linecap:round;stroke-linejoin:round;stroke-miterlimit:4;stroke-opacity:1;stroke-dasharray:none;stroke-dashoffset:0"
       d="m 501.22231,922.59263 c 3.26938,1.00597 7.42091,1.62801 12.70223,0.62204"
       id="path3949"
       inkscape:connector-curvature="0"
       sodipodi:nodetypes="cc" />
    <path
       style="fill:none;stroke:#000000;stroke-width:1.5;stroke-linecap:round;stroke-linejoin:round;stroke-miterlimit:4;stroke-opacity:1;stroke-dasharray:none;stroke-dashoffset:0"
       d="m 479.90293,868.82402 c 0.84828,-5.22047 -1.58089,-5.30801 3.80919,-10.62743"
       id="path3955"
       inkscape:connector-curvature="0"
       sodipodi:nodetypes="cc" />
    <path
       style="fill:#333333;fill-opacity:1;stroke:#333333;stroke-width:0.38031235;stroke-linecap:round;stroke-linejoin:round;stroke-miterlimit:4;stroke-opacity:1;stroke-dasharray:none;stroke-dashoffset:0"
       d="m 433.19777,882.92589 c 0,-0.0671 1.1783,-0.93578 2.61845,-1.93032 4.47507,-3.09039 5.74598,-4.43173 8.07628,-8.52384 3.78011,-6.63805 4.89438,-9.68871 5.55646,-15.21249 0.36835,-3.0732 0.47125,-12.52485 0.15596,-14.3251 l -0.19982,-1.14094 0.94218,1.52125 c 1.2521,2.02164 3.14976,4.44702 5.05857,6.46531 1.70136,1.79895 1.97021,2.48889 2.34634,6.02151 l 0.19571,1.83808 -1.78971,1.051 c -2.34925,1.37959 -6.51615,5.56599 -7.91288,7.94992 -0.57192,0.97614 -1.57086,3.19185 -2.21987,4.92382 -1.50772,4.02348 -2.40655,5.89575 -3.93202,8.19041 -0.6745,1.0146 -1.30931,2.11414 -1.4107,2.44343 -0.16202,0.5262 -0.29634,0.58096 -1.10908,0.45211 -3.23292,-0.51252 -4.23868,-0.47582 -5.93217,0.21652 -0.24404,0.0998 -0.4437,0.12647 -0.4437,0.0593 z"
       id="path3959"
       inkscape:connector-curvature="0" />
  </g>
  <g
     inkscape:groupmode="layer"
     id="layer3"
     inkscape:label="plan"
     style="display:inline"
     transform="translate(-7.3472573,97.523774)">
    <path
       style="fill:none;stroke:#000000;stroke-width:1.50000000000000000;stroke-linecap:round;stroke-linejoin:round;stroke-miterlimit:4;stroke-opacity:1;stroke-dasharray:6, 6;stroke-dashoffset:0.14999999999999999"
       d="m 402.08052,855.44583 c -0.51549,4.1239 -0.51549,10.30975 -0.51549,10.30975"
       id="path3982"
       inkscape:connector-curvature="0" />
    <path
       style="fill:none;stroke:#000000;stroke-width:1.5;stroke-linecap:round;stroke-linejoin:round;stroke-miterlimit:4;stroke-opacity:1;stroke-dasharray:9,9;stroke-dashoffset:0"
       d="m 396.41015,866.78656 c 0,0 -1.03098,5.67037 0,10.82524 1.03098,5.15488 2.57744,9.27879 2.06195,14.94915 -0.51549,5.67037 -1.03097,14.94915 0,19.58854 1.03098,4.63939 3.60842,13.91817 3.60842,13.91817"
       id="path3984"
       inkscape:connector-curvature="0" />
    <path
       style="fill:none;stroke:#000000;stroke-width:1.50000000000000000;stroke-linecap:round;stroke-linejoin:round;stroke-miterlimit:4;stroke-opacity:1;stroke-dasharray:6, 6;stroke-dashoffset:0"
       d="m 413.42125,928.6451 c 1.54646,6.18585 -0.51549,9.79427 4.63939,12.8872 5.15488,3.09292 6.70134,2.06195 6.70134,2.06195"
       id="path3986"
       inkscape:connector-curvature="0" />
    <path
       style="fill:none;stroke:#000000;stroke-width:1.50000000000000000;stroke-linecap:round;stroke-linejoin:round;stroke-miterlimit:4;stroke-opacity:1;stroke-dasharray:6, 6;stroke-dashoffset:0"
       d="m 420.63808,943.59425 c 1.54646,5.67036 0,6.18585 3.60841,7.73232"
       id="path3988"
       inkscape:connector-curvature="0" />
    <path
       style="fill:none;stroke:#000000;stroke-width:1.50000000000000000;stroke-linecap:round;stroke-linejoin:round;stroke-miterlimit:4;stroke-opacity:1;stroke-dasharray:6, 6;stroke-dashoffset:0"
       d="m 434.04076,949.7801 c 4.63939,2.06195 2.57744,3.09293 7.21683,2.57744"
       id="path3990"
       inkscape:connector-curvature="0" />
    <path
       style="fill:none;stroke:#000000;stroke-width:1.50000000000000000;stroke-linecap:square;stroke-linejoin:round;stroke-miterlimit:4;stroke-opacity:1;stroke-dasharray:4.50000000000000000, 4.50000000000000000;stroke-dashoffset:0"
       d="m 450.55241,953.15483 c 1.03098,5.15488 1.03098,6.70134 3.09294,10.82524"
       id="path3992"
       inkscape:connector-curvature="0" />
    <path
       style="fill:none;stroke:#000000;stroke-width:1.50000000000000000;stroke-linecap:square;stroke-linejoin:round;stroke-miterlimit:4;stroke-opacity:1;stroke-dasharray:4.50000000000000000, 4.50000000000000000;stroke-dashoffset:0"
       d="m 411.32812,774.23718 c 0,-1.5625 2.34375,-12.10937 2.34375,-12.10937"
       id="path3994"
       inkscape:connector-curvature="0" />
    <path
       style="fill:none;stroke:#000000;stroke-width:1.5;stroke-linecap:square;stroke-linejoin:round;stroke-miterlimit:4;stroke-opacity:1;stroke-dasharray:6,6;stroke-dashoffset:0"
       d="m 412.89062,723.06531 c -2.34375,6.64062 -1.95312,11.32812 -2.73437,14.45312 -0.78125,3.125 -2.73438,8.20313 -2.73438,12.89063 0,4.6875 -0.39062,4.6875 -1.5625,7.03125"
       id="path3996"
       inkscape:connector-curvature="0" />
    <path
       style="fill:none;stroke:#000000;stroke-width:1.5;stroke-linecap:square;stroke-linejoin:round;stroke-miterlimit:4;stroke-opacity:1;stroke-dasharray:12,12;stroke-dashoffset:0"
       d="m 438.10121,779.44667 c 3.31477,-15.46889 6.07707,-25.96564 9.39183,-41.43454 3.31477,-15.46889 9.39183,-69.05757 11.60168,-76.79202 2.20984,-7.73444 8.83936,-67.95264 13.81151,-82.31662 4.97214,-14.36397 12.67567,-38.92361 20.55503,-50.06342 5.84909,-8.26942 5.3622,-5.23741 6.17356,-20.73052 1.07554,-20.5376 4.50568,-35.62719 2.99029,-53.1677 -1.37461,-15.91089 -1.06944,-43.07772 0.0355,-59.09908 1.10492,-16.02135 4.49819,-74.93835 7.2605,-92.06463 2.7623,-17.12628 6.07706,-36.4624 8.83936,-48.61653 2.76231,-12.15413 2.76231,-33.70009 3.31477,-52.48375 0.55246,-18.78366 -11.04921,-56.35098 -6.62953,-76.23956 4.41969,-19.88858 12.70659,-61.875577 16.57382,-67.400182 3.86722,-5.524606 14.91643,-22.650883 18.2312,-25.413185 3.31476,-2.762303 8.2869,-1.657382 8.83936,-3.867224"
       id="path3998"
       inkscape:connector-curvature="0"
       sodipodi:nodetypes="csssssssssssssc" />
  </g>
</svg>
