<?xml version="1.0" encoding="UTF-8" standalone="no"?>
<!-- Created with Inkscape (http://www.inkscape.org/) -->

<svg
   xmlns:dc="http://purl.org/dc/elements/1.1/"
   xmlns:cc="http://creativecommons.org/ns#"
   xmlns:rdf="http://www.w3.org/1999/02/22-rdf-syntax-ns#"
   xmlns:svg="http://www.w3.org/2000/svg"
   xmlns="http://www.w3.org/2000/svg"
   xmlns:xlink="http://www.w3.org/1999/xlink"
   xmlns:sodipodi="http://sodipodi.sourceforge.net/DTD/sodipodi-0.dtd"
   xmlns:inkscape="http://www.inkscape.org/namespaces/inkscape"
   width="1325.1182"
   height="748.88873"
   id="svg2"
   version="1.1"
   inkscape:version="0.48.2 r9819"
   sodipodi:docname="sword_grip.svg">
  <defs
     id="defs4" />
  <sodipodi:namedview
     id="base"
     pagecolor="#ffffff"
     bordercolor="#666666"
     borderopacity="1.0"
     inkscape:pageopacity="0.0"
     inkscape:pageshadow="2"
     inkscape:zoom="0.32"
     inkscape:cx="752.44682"
     inkscape:cy="405.81251"
     inkscape:document-units="px"
     inkscape:current-layer="layer1"
     showgrid="false"
     showguides="false"
     inkscape:guide-bbox="true"
     inkscape:window-width="1305"
     inkscape:window-height="792"
     inkscape:window-x="60"
     inkscape:window-y="24"
     inkscape:window-maximized="0"
     units="cm"
     fit-margin-top="2"
     fit-margin-left="2"
     fit-margin-bottom="2"
     fit-margin-right="2"
     inkscape:snap-global="false">
    <sodipodi:guide
       orientation="0,1"
       position="1165.0497,764.16831"
       id="guide3053" />
  </sodipodi:namedview>
  <metadata
     id="metadata7">
    <rdf:RDF>
      <cc:Work
         rdf:about="">
        <dc:format>image/svg+xml</dc:format>
        <dc:type
           rdf:resource="http://purl.org/dc/dcmitype/StillImage" />
        <dc:title />
      </cc:Work>
    </rdf:RDF>
  </metadata>
  <g
     inkscape:label="Layer 1"
     inkscape:groupmode="layer"
     id="layer1"
     style="display:none"
     transform="translate(328.01269,-182.45506)"
     sodipodi:insensitive="true">
    <image
       y="52.579346"
       x="-210.72847"
       id="image2993"
       xlink:href="file:///C:/Users/fred.IGBMC/Documents/Divers/Taijijian/EscrimeTaiji/Images/SwordGrip/IMG_2209.JPG"
       height="979.20001"
       width="1305.6"
       sodipodi:insensitive="true" />
  </g>
  <g
     inkscape:groupmode="layer"
     id="layer2"
     inkscape:label="dessin"
     style="display:inline"
     transform="translate(328.01269,-182.45506)">
    <path
       style="fill:#4d4d4d;fill-opacity:1;stroke:#4d4d4d;stroke-width:1.6661303;stroke-linecap:round;stroke-linejoin:round;stroke-miterlimit:4;stroke-opacity:1;stroke-dasharray:none;stroke-dashoffset:0"
       d="m 453.26284,245.63015 c -2.41299,-1.20832 -5.56256,-2.93961 -6.99905,-3.84732 l -3.34708,-1.28272 3.50257,-3.32284 c 1.61543,-1.53253 3.8211,-5.05794 5.10911,-7.62797 1.54065,-3.07414 0.75036,-7.61371 4.39555,-8.51574 l 7.79544,-1.92903 5.38212,0.34364 c 8.4478,0.53937 14.06781,13.26158 8.40809,13.26158 -3.00774,0 -13.33341,6.10834 -16.79257,10.88357 l -1.87207,5.98008 z"
       id="path4015"
       inkscape:connector-curvature="0"
       transform="translate(-328.01269,182.45506)"
       sodipodi:nodetypes="cscssscssscc" />
    <path
       style="fill:#4d4d4d;fill-opacity:1;stroke:#4d4d4d;stroke-width:1.6661303;stroke-linecap:round;stroke-linejoin:round;stroke-miterlimit:4;stroke-opacity:1;stroke-dasharray:none;stroke-dashoffset:0"
       d="m 393.46692,423.56418 c -2.26369,-2.26369 -2.89207,-9.32548 -2.8997,-15.60271 -0.005,-4.13513 -0.8389,-6.28065 -4.43768,-11.41809 -4.69967,-6.709 -10.58012,-15.2948 -9.98341,-15.87103 0.19777,-0.19099 9.24989,4.65884 17.19178,7.85337 13.34052,5.36606 16.80645,2.66406 16.49423,5.15408 -0.18588,1.48237 -2.82819,10.06526 -2.94777,14.97944 -0.166,6.82189 0.2303,9.61819 1.67579,11.82429 1.83304,2.79756 3.72929,4.82418 1.35854,5.45984 -4.64435,1.24526 -14.7243,-0.65171 -16.45178,-2.37919 z"
       id="path4017"
       inkscape:connector-curvature="0"
       transform="translate(-328.01269,182.45506)"
       sodipodi:nodetypes="ssscssssss" />
    <path
       style="fill:#4d4d4d;fill-opacity:1;stroke:#4d4d4d;stroke-width:0.72235835;stroke-linecap:round;stroke-linejoin:round;stroke-miterlimit:4;stroke-opacity:1;stroke-dasharray:none;stroke-dashoffset:0"
       d="m 739.97481,487.06847 c 0,-0.1494 3.18704,-4.47374 4.83557,-6.91358 1.64853,-2.43984 4.14067,-6.49476 5.53808,-9.01094 1.39741,-2.51618 7.80757,-18.6042 7.81193,-18.20694 0.004,0.39726 -6.36868,18.21891 -7.72941,22.05945 -1.36073,3.84054 -1.4386,7.96854 -1.52108,8.27465 -0.0825,0.3061 -1.97184,-0.0239 -2.85055,0.16546 -0.87871,0.1893 -2.1936,0.64872 -2.92197,1.02092 -0.72838,0.3722 -3.16257,2.76037 -3.16257,2.61098 z"
       id="path4029"
       inkscape:connector-curvature="0"
       transform="translate(-328.01269,182.45506)"
       sodipodi:nodetypes="ssscsccss" />
    <path
       style="fill:#4d4d4d;fill-opacity:1;stroke:#4d4d4d;stroke-width:1.66600001;stroke-linecap:round;stroke-linejoin:round;stroke-miterlimit:4;stroke-opacity:1;stroke-dasharray:none;stroke-dashoffset:0"
       d="m 650.75504,467.23219 c -0.86003,-1.80642 -8.39204,1.08398 -5.99965,-0.68283 0.26656,-0.19686 5.96991,-4.79102 10.34571,-9.46099 9.42816,-10.06197 13.01888,-15.45116 17.55533,-26.34822 8.11238,-19.48679 12.2319,-44.82828 10.18799,-62.67196 -0.59479,-5.19261 -2.96458,-10.5029 -3.03439,-10.8375 -0.41299,-1.97942 34.8718,13.32108 37.96194,15.48551 1.2343,0.86453 5.72212,8.66554 12.31215,16.75077 14.24417,17.47596 40.90537,44.99212 43.79073,46.72287 1.86877,1.12096 -2.3643,-0.0557 -8.43902,6.47534 l -7.61696,11.46659 -2.72603,-9.58473 c -3.27928,-11.52992 -8.09235,-16.05207 -22.66387,-18.58606 -11.9586,-2.07961 -20.00872,-0.33212 -35.85534,7.78337 -20.2584,10.37488 -26.22469,15.04082 -36.39134,28.4599 -2.42994,3.2073 -2.34051,6.70842 -2.72529,6.61065 -0.38479,-0.0978 -5.67344,0.5776 -6.70196,-1.58271 z"
       id="path4019"
       inkscape:connector-curvature="0"
       transform="translate(-328.01269,182.45506)"
       sodipodi:nodetypes="sssssssssscsssscs" />
    <path
       style="fill:#4d4d4d;fill-opacity:1;stroke:#4d4d4d;stroke-width:1.6661303;stroke-linecap:round;stroke-linejoin:round;stroke-miterlimit:4;stroke-opacity:1;stroke-dasharray:none;stroke-dashoffset:0"
       d="m 920.88928,573.68546 c 0.28427,-1.22183 6.71109,-18.03907 9.01855,-25.6755 4.09614,-13.55603 4.1974,-14.31789 4.28121,-32.21185 0.0846,-18.06796 0.041,-18.41393 -3.08564,-24.43658 -5.95638,-11.47357 -11.68995,-15.70181 -21.41041,-15.78916 -4.39693,-0.0395 -7.51846,0.72979 -11.64207,2.8692 -3.09886,1.60775 -5.83809,6.75101 -6.08717,6.75101 -0.24908,0 -0.45287,-6.03739 -0.45287,-8.73797 0,-4.6435 -2.67484,-5.90829 0.73908,-6.62582 1.98547,-0.4173 10.4095,-1.08395 15.21122,-2.65107 l 8.99037,-4.2791 17.12416,8.99079 c 8.99187,4.72104 18.07883,7.93851 18.06916,8.56569 -0.079,5.12163 -4.80729,30.78469 -5.82228,37.00914 -1.54554,9.47806 -4.90341,20.82462 -10.55269,31.91645 -5.03799,9.89162 -15.108,27.43108 -14.38062,24.30477 z"
       id="path4021"
       inkscape:connector-curvature="0"
       sodipodi:nodetypes="sssssssssscsssss"
       transform="translate(-328.01269,182.45506)" />
    <path
       style="fill:none;stroke:#000000;stroke-width:3;stroke-linecap:round;stroke-linejoin:round;stroke-miterlimit:4;stroke-opacity:1;stroke-dasharray:none"
       d="m 274.59016,513.01792 c 0,0 9.66156,-10.86017 17.55313,-15.51913 8.19672,-4.8391 8.97933,-10.98486 21.79114,-15.62841 12.81181,-4.64355 23.77049,-2.45902 29.50819,-3.27869 5.73771,-0.81967 19.62387,-2.0617 30.06679,-5.05161 12.45043,-3.56468 81.40862,-19.53855 87.14633,-19.53855 5.7377,0 53.27869,-9.0164 59.83606,-11.47541 6.55738,-2.45902 61.47541,-27.86886 71.31148,-31.96722 9.83606,-4.09836 47.54098,-27.04918 54.91803,-32.78688 7.37705,-5.73771 18.85246,-26.22951 28.68853,-33.60656 9.83606,-7.37705 36.88524,-35.2459 49.18032,-44.26229 12.29509,-9.0164 59.83607,-45.08197 59.83607,-45.08197"
       id="path3055"
       inkscape:connector-curvature="0"
       sodipodi:nodetypes="cszssssssssc" />
    <path
       style="fill:none;stroke:#000000;stroke-width:3;stroke-linecap:round;stroke-linejoin:round;stroke-miterlimit:4;stroke-opacity:1;stroke-dasharray:none;stroke-dashoffset:0"
       d="m 350.81967,536.78841 c 0,0 32.78689,11.47541 36.88525,14.7541 4.09836,3.27869 23.77049,29.5082 28.68852,34.42623 4.91804,4.91803 25.25566,28.66671 30.19585,30.63099"
       id="path3827"
       inkscape:connector-curvature="0"
       sodipodi:nodetypes="cssc" />
    <path
       style="font-size:medium;font-style:normal;font-variant:normal;font-weight:normal;font-stretch:normal;text-indent:0;text-align:start;text-decoration:none;line-height:normal;letter-spacing:normal;word-spacing:normal;text-transform:none;direction:ltr;block-progression:tb;writing-mode:lr-tb;text-anchor:start;baseline-shift:baseline;opacity:1;color:#000000;fill:#000000;fill-opacity:1;stroke:none;stroke-width:3;marker:none;visibility:visible;display:inline;overflow:visible;enable-background:accumulate;font-family:Sans;-inkscape-font-specification:Sans"
       d="m 443.57893,569.04955 c 0.84717,8.62893 1.81525,13.68437 1.42493,22.21228 -0.76136,8.99124 2.58461,22.74711 0.27739,31.20692 -1.20016,4.40059 -3.25791,9.91111 -5,14.625 -0.87105,2.35695 -1.66175,4.49832 -2.25,6.25 -0.58825,1.75168 -1,2.89566 -1,4.09375 0,2.45902 -0.004,4.73626 -0.78125,7.84375 -0.2743,1.09721 -1.88533,3.87978 -3.84375,7.28125 -1.95842,3.40147 -4.24702,7.60118 -5.9375,12.25 -1.60941,4.42588 -3.23634,7.65335 -4.5,10.8125 -1.26366,3.15915 -2.15625,6.27675 -2.15625,10.1875 -0.0112,0.79247 0.70745,1.52136 1.5,1.52136 0.79255,0 1.51121,-0.72889 1.5,-1.52136 0,-3.4663 0.74214,-6.10536 1.9375,-9.09375 1.19536,-2.98839 2.86197,-6.31573 4.53125,-10.90625 1.58821,-4.36757 3.78373,-8.38917 5.71875,-11.75 1.93502,-3.36083 3.61088,-5.88102 4.15625,-8.0625 0.86247,-3.44989 0.875,-6.10348 0.875,-8.5625 0,-0.0314 0.27934,-1.4443 0.84375,-3.125 0.56441,-1.6807 1.34799,-3.83133 2.21875,-6.1875 1.74152,-4.71233 3.51969,-9.23052 4.8633,-16.46863 1.3436,-7.2381 -1.21957,-18.3558 -1.14841,-26.66048 0.0712,-8.30468 -0.20281,-16.71991 -3.22971,-25.94634 z"
       id="path3829"
       inkscape:connector-curvature="0"
       sodipodi:nodetypes="ccsssscssscscssssssszzc" />
    <path
       style="fill:none;stroke:#000000;stroke-width:3;stroke-linecap:round;stroke-linejoin:round;stroke-miterlimit:4;stroke-opacity:1;stroke-dasharray:none;stroke-dashoffset:0"
       d="m 421.178,697.2286 c 0,0 -11.0074,13.90409 -14.19376,23.17348 -3.18635,9.26939 -4.34502,19.69746 -4.05535,22.88381 0.28967,3.18636 0.57934,21.1458 1.44834,24.04249 0.86901,2.89668 8.75494,28.11279 20.56647,35.62922 9.55905,6.08304 19.98867,6.18256 23.17347,6.08304 9.2694,-0.28967 21.52843,-10.27385 39.39492,-30.12552 17.3602,-18.81255 20.80699,-38.61469 21.8437,-56.12597"
       id="path3833"
       inkscape:connector-curvature="0"
       sodipodi:nodetypes="cssssscc" />
    <path
       style="font-size:medium;font-style:normal;font-variant:normal;font-weight:normal;font-stretch:normal;text-indent:0;text-align:start;text-decoration:none;line-height:normal;letter-spacing:normal;word-spacing:normal;text-transform:none;direction:ltr;block-progression:tb;writing-mode:lr-tb;text-anchor:start;baseline-shift:baseline;color:#000000;fill:#000000;fill-opacity:1;stroke:none;stroke-width:1.5;marker:none;visibility:visible;display:inline;overflow:visible;enable-background:accumulate;font-family:Sans;-inkscape-font-specification:Sans"
       d="m 424.28125,761.9375 c -0.088,0.016 -0.17315,0.0479 -0.25,0.0937 0,0 -1.88434,0.92649 -4,2.09375 -2.11566,1.16726 -4.40824,2.47074 -5.46875,3.53125 -1.91908,2.96071 -3.22934,4.97062 -3.29138,9.53415 1.61133,-2.48633 2.15017,-6.26661 4.35388,-8.4717 0.6775,-0.6775 3.04047,-2.13116 5.125,-3.28125 2.08453,-1.15009 3.9375,-2.0625 3.9375,-2.0625 0.34505,-0.13282 0.5529,-0.5482 0.45235,-0.90399 -0.10055,-0.3558 -0.49507,-0.60094 -0.8586,-0.53351 z"
       id="path3835"
       inkscape:connector-curvature="0"
       sodipodi:nodetypes="ccscccscscc" />
    <path
       style="font-size:medium;font-style:normal;font-variant:normal;font-weight:normal;font-stretch:normal;text-indent:0;text-align:start;text-decoration:none;line-height:normal;letter-spacing:normal;word-spacing:normal;text-transform:none;direction:ltr;block-progression:tb;writing-mode:lr-tb;text-anchor:start;baseline-shift:baseline;color:#000000;fill:#000000;fill-opacity:1;stroke:none;stroke-width:1.5;marker:none;visibility:visible;display:inline;overflow:visible;enable-background:accumulate;font-family:Sans;-inkscape-font-specification:Sans"
       d="m 423.26324,762.43432 c -2.68252,1.06453 1.02598,0.40001 1.53902,0.68645 0,0 3.53395,1.30509 7.13559,3.16048 3.60164,1.85539 7.88096,3.89302 10.78125,4.65625 2.86146,0.75301 9.48056,1.85252 15.90625,2.6875 3.21285,0.41749 6.36252,0.75455 8.9375,0.96875 2.35931,0.19626 3.99963,0.24934 5.125,0.125 1.92292,1.85637 2.68402,3.45212 2.96875,4.8125 0.29499,1.40939 0.0937,2.59777 0.0937,3.71875 0,0.0124 -0.0801,0.35847 -0.28125,0.78125 -0.20115,0.42278 -0.48636,0.96088 -0.875,1.5625 -0.77728,1.20325 -1.89304,2.66094 -3.125,4.125 -2.46391,2.92813 -5.53039,5.89127 -7.4375,6.78125 -2.16094,1.00844 -5.54399,2.51317 -8.9375,3.65625 -3.39351,1.14308 -6.85437,1.87887 -8.875,1.5 -2.25059,-0.42198 -7.46501,-1.74407 -12.53125,-3.46875 -2.53312,-0.86234 -5.01388,-1.83264 -7.09375,-2.84375 -2.07987,-1.01111 -3.7551,-2.09963 -4.5625,-3.03125 -4.52996,-3.4029 -8.07326,-12.21805 -10.18336,-14.99301 1.26318,4.5723 5.65579,12.58364 9.05836,15.99301 1.07544,1.2409 2.86566,2.32222 5.03125,3.375 2.16559,1.05278 4.70896,2.06183 7.28125,2.9375 5.14458,1.75135 10.33464,3.05298 12.71875,3.5 2.61406,0.49014 6.13888,-0.38823 9.625,-1.5625 3.48612,-1.17427 6.90966,-2.69951 9.09375,-3.71875 2.43792,-1.1377 5.43588,-4.14617 7.96875,-7.15625 1.26643,-1.50504 2.3938,-3.00421 3.21875,-4.28125 0.41247,-0.63852 0.75647,-1.2069 1,-1.71875 0.24353,-0.51185 0.40625,-0.94297 0.40625,-1.4375 0,-0.9067 0.23177,-2.3267 -0.125,-4.03125 -0.35677,-1.70455 -1.33138,-3.6697 -3.59375,-5.78125 -0.16595,-0.15197 -0.4028,-0.22303 -0.625,-0.1875 -0.6474,0.1079 -2.67927,0.055 -5.21875,-0.15625 -2.53948,-0.21125 -5.67893,-0.55344 -8.875,-0.96875 -6.39214,-0.83062 -13.07651,-1.92967 -15.71875,-2.625 -2.60341,-0.68511 -6.90109,-2.69336 -10.46875,-4.53125 -2.17603,-0.8248 -6.09456,-3.06421 -7.0312,-3.17002 -0.93663,-0.10581 -2.33086,0.63559 -2.33086,0.63559 z"
       id="path3837"
       inkscape:connector-curvature="0"
       sodipodi:nodetypes="ccsssscsssssssssscccssssssssssccsssczc" />
    <path
       style="font-size:medium;font-style:normal;font-variant:normal;font-weight:normal;font-stretch:normal;text-indent:0;text-align:start;text-decoration:none;line-height:normal;letter-spacing:normal;word-spacing:normal;text-transform:none;direction:ltr;block-progression:tb;writing-mode:lr-tb;text-anchor:start;baseline-shift:baseline;color:#000000;fill:#000000;fill-opacity:1;stroke:none;stroke-width:3;marker:none;visibility:visible;display:inline;overflow:visible;enable-background:accumulate;font-family:Sans;-inkscape-font-specification:Sans"
       d="m 573.67116,572.2923 c 1.64347,12.12481 2.74747,21.77988 1.70369,28.41463 -1.04379,6.63476 -2.73463,21.59785 -7.23697,28.02972 -4.50234,6.43187 -11.31673,15.47102 -15.61494,19.21886 -3.88191,3.62445 -8.20021,7.75786 -12.6112,11.39416 -4.05703,10.29149 -12.68217,18.17541 -18.28223,27.61544 -5.27968,10.50492 -7.78674,22.13676 -12.35222,32.92965 -2.85064,3.22058 1.42697,6.91775 1.92432,1.95139 4.36695,-10.80127 7.76647,-22.2536 12.68474,-32.8445 5.71186,-9.66939 13.50346,-18.05386 17.98263,-28.45166 6.45019,-5.61643 12.3121,-10.70525 16.60153,-16.36191 4.28943,-5.65666 6.70182,-8.76052 10.47574,-14.57558 3.77392,-5.81506 5.74252,-16.06054 6.73706,-22.97714 0.99453,-6.9166 1.42928,-11.41206 1.23124,-15.166 -0.19804,-3.75394 -0.99442,-9.67125 -3.24339,-19.17706 z"
       id="path3845"
       inkscape:connector-curvature="0"
       sodipodi:nodetypes="czzccccccczzzzc" />
    <path
       style="font-size:medium;font-style:normal;font-variant:normal;font-weight:normal;font-stretch:normal;text-indent:0;text-align:start;text-decoration:none;line-height:normal;letter-spacing:normal;word-spacing:normal;text-transform:none;direction:ltr;block-progression:tb;writing-mode:lr-tb;text-anchor:start;baseline-shift:baseline;color:#000000;fill:#000000;fill-opacity:1;stroke:none;stroke-width:3;marker:none;visibility:visible;display:inline;overflow:visible;enable-background:accumulate;font-family:Sans;-inkscape-font-specification:Sans"
       d="m 629.69156,620.08834 c -7.39753,5.79608 -31.33801,18.7083 -49.94156,25.88041 -10e-5,4e-5 -0.0312,0 -0.0312,0 -0.0249,0.009 -4.87151,1.71839 -11.15625,3.34375 -6.3009,1.62954 -14.03569,3.12947 -19.375,2.71875 -0.7854,-0.0655 -1.55955,0.5896 -1.625,1.375 -0.0654,0.7854 0.5896,1.55955 1.375,1.625 6.08123,0.46779 13.93761,-1.14766 20.375,-2.8125 6.43739,-1.66484 11.4375,-3.4375 11.4375,-3.4375 0.0104,1.1e-4 0.0208,1.1e-4 0.0312,0 0,0 45.26491,-22.26965 52.375,-29.1875 4.24442,-4.96291 18.66732,-16.57816 22.23088,-23.55945 -14.894,14.07594 -19.34936,19.18594 -25.69557,24.05404 z"
       id="path3849"
       inkscape:connector-curvature="0"
       sodipodi:nodetypes="cccscscsccccc" />
    <path
       style="font-size:medium;font-style:normal;font-variant:normal;font-weight:normal;font-stretch:normal;text-indent:0;text-align:start;text-decoration:none;line-height:normal;letter-spacing:normal;word-spacing:normal;text-transform:none;direction:ltr;block-progression:tb;writing-mode:lr-tb;text-anchor:start;baseline-shift:baseline;color:#000000;fill:#000000;fill-opacity:1;stroke:none;stroke-width:3;marker:none;visibility:visible;display:inline;overflow:visible;enable-background:accumulate;font-family:Sans;-inkscape-font-specification:Sans"
       d="m 561.27066,652.79873 c 1.33555,6.55296 0.97633,9.70467 0.9518,13.12129 -0.0481,5.10356 -1.17383,10.96171 -1.44121,14.70498 -0.11557,1.61794 -0.82137,4.89431 -1.90625,8.875 -1.08488,3.98069 -2.54891,8.75541 -4.09375,13.625 -3.08967,9.73918 -6.5792,19.95636 -8.46875,25.625 -1.72239,5.1672 -6.99339,11.61051 -11.84375,16.59375 -4.79222,4.92352 -9.05301,8.41537 -9.15625,8.5 -0.0869,0.0417 -0.091,0.0386 -0.1875,0.0937 -0.30242,0.17281 -0.73392,0.44107 -1.3125,0.875 -1.15716,0.86787 -2.95924,2.39675 -5.6875,5.125 -2.32166,2.32167 -9.94021,7.19461 -16.78125,11.21875 -6.84104,4.02414 -13.03125,7.375 -13.03125,7.375 -0.7459,0.34248 -1.08404,1.36396 -0.68982,2.08386 5.09578,-1.17561 11.40953,-4.67853 15.22107,-6.89636 6.89274,-4.05455 14.34212,-8.59212 17.40625,-11.65625 2.65754,-2.65754 4.37784,-4.09588 5.375,-4.84375 0.49858,-0.37393 0.79991,-0.59102 0.96875,-0.6875 0.16884,-0.0965 0.0625,-0.0312 0.0625,-0.0312 0.18264,-0.0605 0.35343,-0.15659 0.5,-0.28125 0,0 4.49003,-3.66612 9.46875,-8.78125 4.97872,-5.11513 10.48359,-11.60702 12.53125,-17.75 1.88051,-5.64153 5.39601,-15.87192 8.5,-25.65625 1.552,-4.89216 2.99066,-9.67124 4.09375,-13.71875 1.10309,-4.04751 1.87753,-7.31664 2.03125,-9.46875 0.2712,-3.79685 0.54481,-9.27295 0.59375,-14.46875 -0.73118,-3.56793 0.30863,-7.87249 -3.10434,-13.57627 z"
       id="path3851"
       inkscape:connector-curvature="0"
       sodipodi:nodetypes="ccsssssccssscccsscccssssscc" />
    <path
       style="opacity:1;fill:none;stroke:#000000;stroke-width:3;stroke-linecap:round;stroke-linejoin:round;stroke-miterlimit:4;stroke-opacity:1;stroke-dasharray:none;stroke-dashoffset:0"
       d="m 466.40996,800.8455 c 0,0 4.2583,8.35507 10.23301,11.62824 5.13992,2.81584 17.77313,4.30863 24.23609,3.23148 6.46295,-1.07716 12.64338,-5.09597 16.3652,-7.74794 3.45199,-2.4597 8.96073,-6.03463 13.79525,-7.65036 5.33299,-1.78232 36.08484,-12.38734 40.93206,-17.23455 4.84721,-4.84722 17.23454,-16.69597 18.85028,-23.69751 1.61574,-7.00153 11.31018,-34.46909 12.38733,-42.00921 1.07716,-7.54011 4.30864,-29.0833 -1.07715,-40.93205 -5.3858,-11.84875 -12.38734,-17.23455 -21.54319,-16.69597 -9.15585,0.53858 -15.08023,6.46296 -17.77313,9.69444"
       id="path3853"
       inkscape:connector-curvature="0"
       sodipodi:nodetypes="csssssssssc" />
    <path
       style="fill:none;stroke:#000000;stroke-width:3;stroke-linecap:round;stroke-linejoin:round;stroke-miterlimit:4;stroke-opacity:1;stroke-dasharray:none;stroke-dashoffset:0"
       d="m 262.82686,509.47392 c 0,0 41.47063,13.46449 49.01075,15.08023 7.54011,1.61573 39.31631,12.38733 43.08637,13.46449 3.77005,1.07716 34.46909,15.61881 34.46909,15.61881 l 0,-1.07716"
       id="path3855"
       inkscape:connector-curvature="0" />
    <path
       style="fill:none;stroke:#000000;stroke-width:3;stroke-linecap:round;stroke-linejoin:round;stroke-miterlimit:4;stroke-opacity:1;stroke-dasharray:none;stroke-dashoffset:0"
       d="m 228.3173,615.18808 c 0,0 33.97098,19.77489 37.20246,21.39063 3.23148,1.61574 26.92898,16.69597 29.0833,16.15739"
       id="path3857"
       inkscape:connector-curvature="0"
       sodipodi:nodetypes="csc" />
    <path
       style="opacity:1;fill:none;stroke:#000000;stroke-width:3;stroke-linecap:round;stroke-linejoin:round;stroke-miterlimit:4;stroke-opacity:1;stroke-dasharray:none;stroke-dashoffset:0"
       d="m 236.43646,620.42132 c 0,0 -8.0787,33.39194 -8.61728,42.00921 -0.53858,8.61727 -2.80128,26.06741 -1.61574,31.23762 1.16204,5.06773 1.58147,13.5035 10.7716,21.54318 8.60458,7.52743 12.01574,9.15866 19.14298,11.61556 6.37049,2.19605 16.91591,-1.48262 22.32765,-1.38254 5.27554,0.0976 21.54318,1.07716 30.16046,1.61574 8.61727,0.53858 39.31631,1.61574 52.7808,-2.6929 13.46449,-4.30864 23.69751,-19.38887 29.62188,-25.85182 5.92438,-6.46296 24.23608,-37.70058 25.85182,-39.31632 1.61574,-1.61574 10.23302,-17.23454 11.31018,-23.15892 1.07715,-5.92438 -3.23148,-17.23455 -10.23302,-21.54319 -7.00153,-4.30863 -26.3904,-8.07869 -40.93205,-0.53858 -14.54165,7.54012 -29.0833,15.08023 -33.93052,21.00461 -4.84721,5.92438 -8.07869,8.61727 -13.46448,16.69597"
       id="path3859"
       inkscape:connector-curvature="0"
       sodipodi:nodetypes="csssssssssssssc" />
    <path
       style="fill:none;stroke:#000000;stroke-width:3;stroke-linecap:round;stroke-linejoin:round;stroke-miterlimit:4;stroke-opacity:1;stroke-dasharray:none;stroke-dashoffset:0"
       d="m 271.44413,649.50462 c 5.3858,0 24.23609,4.30864 24.23609,4.30864 0,0 9.15585,-2.15432 18.3117,-2.6929 9.15586,-0.53858 14.00307,1.61574 14.00307,1.61574"
       id="path3861"
       inkscape:connector-curvature="0"
       sodipodi:nodetypes="ccsc" />
    <path
       style="fill:none;stroke:#000000;stroke-width:3;stroke-linecap:round;stroke-linejoin:round;stroke-miterlimit:4;stroke-opacity:1;stroke-dasharray:none;stroke-dashoffset:0"
       d="m 298.37311,726.52151 c 0,0 8.61728,26.92898 13.4645,32.85335 4.84721,5.92438 10.77159,12.92592 18.85028,15.08023 8.0787,2.15432 18.85029,5.3858 23.15893,4.30864 4.30863,-1.07716 9.15585,-4.84722 18.85028,-9.15585 9.69444,-4.30864 26.39041,-8.0787 29.62188,-8.61728"
       id="path3863"
       inkscape:connector-curvature="0" />
    <path
       style="fill:none;stroke:#000000;stroke-width:3;stroke-linecap:round;stroke-linejoin:round;stroke-miterlimit:4;stroke-opacity:1;stroke-dasharray:none;stroke-dashoffset:0"
       d="m 409.99136,671.0607 c 0,0 5.79211,-3.24437 10.10075,-3.78295"
       id="path3867"
       inkscape:connector-curvature="0"
       sodipodi:nodetypes="cc" />
    <path
       style="font-size:medium;font-style:normal;font-variant:normal;font-weight:normal;font-stretch:normal;text-indent:0;text-align:start;text-decoration:none;line-height:normal;letter-spacing:normal;word-spacing:normal;text-transform:none;direction:ltr;block-progression:tb;writing-mode:lr-tb;text-anchor:start;baseline-shift:baseline;color:#000000;fill:#000000;fill-opacity:1;stroke:none;stroke-width:3;marker:none;visibility:visible;display:inline;overflow:visible;enable-background:accumulate;font-family:Sans;-inkscape-font-specification:Sans"
       d="m 446.28125,617.84375 c -0.28621,0.0363 -0.56115,0.15724 -0.78125,0.34375 0,0 -7.05601,5.98597 -12.5625,12.59375 -2.95002,3.54003 -4.57508,8.29967 -5.9375,13 -1.36242,4.70033 -2.46135,9.35898 -3.96875,12.625 -0.71592,3.59358 -3.94174,11.47306 -3.10939,18.297 1.57583,-6.10407 4.00273,-12.9159 5.82814,-17.01575 1.72408,-3.73551 2.79452,-8.50359 4.125,-13.09375 1.33048,-4.59016 2.93923,-8.98332 5.375,-11.90625 5.26511,-6.31812 12.1875,-12.1875 12.1875,-12.1875 0.511,-0.40796 0.7005,-1.17157 0.43953,-1.7711 -0.26098,-0.59954 -0.94899,-0.98117 -1.59578,-0.88515 z"
       id="path3869"
       inkscape:connector-curvature="0"
       sodipodi:nodetypes="ccsscccsscsc" />
    <path
       style="opacity:1;fill:none;stroke:#000000;stroke-width:3;stroke-linecap:round;stroke-linejoin:round;stroke-miterlimit:4;stroke-opacity:1;stroke-dasharray:none;stroke-dashoffset:0"
       d="m 381.31438,766.91498 c 0,0 10.79697,22.28958 15.61881,26.3904 4.82184,4.10082 11.22529,8.83778 17.23455,8.61727 6.99682,-0.25675 7.60624,-0.7095 7.60624,-0.7095"
       id="path3871"
       inkscape:connector-curvature="0"
       sodipodi:nodetypes="czsc" />
    <path
       style="font-size:medium;font-style:normal;font-variant:normal;font-weight:normal;font-stretch:normal;text-indent:0;text-align:start;text-decoration:none;line-height:normal;letter-spacing:normal;word-spacing:normal;text-transform:none;direction:ltr;block-progression:tb;writing-mode:lr-tb;text-anchor:start;baseline-shift:baseline;color:#000000;fill:#000000;fill-opacity:1;stroke:none;stroke-width:3;marker:none;visibility:visible;display:inline;overflow:visible;enable-background:accumulate;font-family:Sans;-inkscape-font-specification:Sans"
       d="m 589.8125,642.125 c -0.61469,0.0812 -1.15104,0.58213 -1.27395,1.18985 -0.12291,0.60772 0.17662,1.27773 0.71145,1.5914 0,0 5.95148,3.71706 16.75,9.65625 10.70472,5.88759 19.66651,11.94184 30.21875,14.71875 5.04134,1.32667 8.4863,2.66064 11.59375,3.4375 3.10745,0.77686 5.97188,0.93068 9.21875,-0.25 3.75297,-2.02549 11.02533,-7.76356 11.17903,-13.43436 -3.31122,4.97581 -5.55932,8.13006 -12.17903,10.59061 -2.67751,0.97364 -4.68307,0.86048 -7.5,0.15625 -2.81693,-0.70423 -6.37083,-2.04002 -11.5625,-3.40625 -9.91378,-2.60889 -18.66154,-8.47635 -29.5,-14.4375 -10.74466,-5.90957 -16.65625,-9.5625 -16.65625,-9.5625 -0.29033,-0.19679 -0.65122,-0.28701 -1,-0.25 z"
       id="path3873"
       inkscape:connector-curvature="0"
       sodipodi:nodetypes="cscssscccssscc" />
    <path
       style="font-size:medium;font-style:normal;font-variant:normal;font-weight:normal;font-stretch:normal;text-indent:0;text-align:start;text-decoration:none;line-height:normal;letter-spacing:normal;word-spacing:normal;text-transform:none;direction:ltr;block-progression:tb;writing-mode:lr-tb;text-anchor:start;baseline-shift:baseline;color:#000000;fill:#000000;fill-opacity:1;stroke:none;stroke-width:3;marker:none;visibility:visible;display:inline;overflow:visible;enable-background:accumulate;font-family:Sans;-inkscape-font-specification:Sans"
       d="m 718.40625,591.96875 c -0.43738,0.0209 -0.86093,0.24446 -1.125,0.59375 -2.09289,2.61612 -8.70882,10.30418 -11.40625,14.6875 -2.41974,3.93208 -1.8254,7.57913 -1.5625,11.0625 0.2629,3.48337 0.31124,6.99168 -2.75,12.09375 -3.88213,6.47022 -13.33524,15.92841 -18.4375,19.5 -3.07252,3.33239 -14.90415,10.34205 -18.77599,15.74445 6.46274,-3.24869 16.7165,-10.66145 20.49474,-13.30695 5.66932,-3.96853 14.9808,-13.20758 19.28125,-20.375 3.40171,-5.66952 3.46318,-10.2222 3.1875,-13.875 -0.27568,-3.6528 -0.7639,-6.21179 1.125,-9.28125 2.35195,-3.8219 8.97175,-11.60532 11.1875,-14.375 0.75185,-0.88626 -0.058,-2.52669 -1.21875,-2.46875 z"
       id="path3877"
       inkscape:connector-curvature="0"
       sodipodi:nodetypes="ccssscccssscc" />
    <path
       style="fill:none;stroke:#000000;stroke-width:3;stroke-linecap:round;stroke-linejoin:round;stroke-miterlimit:4;stroke-opacity:1;stroke-dasharray:none;stroke-dashoffset:0"
       d="m 589.15017,644.11882 c 0,0 45.29663,23.69751 47.45095,23.69751 2.15432,0 45.77927,26.3904 49.01075,27.46756 3.23148,1.07716 21.0046,12.38733 21.0046,12.38733"
       id="path3879"
       inkscape:connector-curvature="0"
       sodipodi:nodetypes="cssc" />
    <path
       style="fill:none;stroke:#000000;stroke-width:3;stroke-linecap:round;stroke-linejoin:round;stroke-miterlimit:4;stroke-opacity:1;stroke-dasharray:none;stroke-dashoffset:0"
       d="m 581.666,773.91651 c 0,0 32.85336,10.7716 37.16199,11.31018 4.30864,0.53858 49.01075,14.00307 49.01075,14.00307"
       id="path3881"
       inkscape:connector-curvature="0"
       sodipodi:nodetypes="csc" />
    <path
       style="fill:none;stroke:#000000;stroke-width:3;stroke-linecap:round;stroke-linejoin:round;stroke-miterlimit:4;stroke-opacity:1;stroke-dasharray:none;stroke-dashoffset:0"
       d="m 669.0787,799.40984 c 0,0 8.99305,1.43566 20.30323,-18.49179 11.31017,-19.92745 15.6188,-29.0833 18.85028,-50.08791 3.23148,-21.0046 -1.50666,-22.97337 -1.50666,-22.97337"
       id="path3883"
       inkscape:connector-curvature="0"
       sodipodi:nodetypes="cssc" />
    <path
       style="fill:none;stroke:#000000;stroke-width:3;stroke-linecap:round;stroke-linejoin:round;stroke-miterlimit:4;stroke-opacity:1;stroke-dasharray:none;stroke-dashoffset:0"
       d="m 678.07175,690.43667 c 0,0 3.77006,-15.61881 14.00307,-19.92744 10.23302,-4.30864 18.31171,-10.7716 32.85336,-9.69444 14.54165,1.07716 18.31171,1.07716 29.62188,9.15586 11.31017,8.07869 11.01385,18.66743 15.38511,26.83763 4.18646,7.82481 4.36765,6.20351 14.77535,15.71016 7.86516,7.18423 6.72992,23.61256 10.01948,36.99946 2.56699,10.44637 7.49977,15.02923 14.2166,20.08998"
       id="path3885"
       inkscape:connector-curvature="0"
       sodipodi:nodetypes="cssssssc" />
    <path
       style="fill:none;stroke:#000000;stroke-width:3;stroke-linecap:round;stroke-linejoin:round;stroke-miterlimit:4;stroke-opacity:1;stroke-dasharray:none;stroke-dashoffset:0"
       d="m 641.98692,792.7668 c 0,0 -1.61574,11.84875 -3.23148,22.08177 -1.61574,10.23301 5.92438,22.62034 12.92591,30.16046 7.00154,7.54011 28.00614,16.15738 41.47063,13.46449 13.46449,-2.6929 17.96256,-8.61333 26.77915,-11.0826 7.15704,-2.00448 4.45847,-1.84332 16.8458,0.311 12.38733,2.15432 23.69751,-8.61727 29.0833,-13.46449 5.3858,-4.84721 6.54652,-14.23095 16.69597,-12.92591 6.22858,0.80089 13.02216,0.41441 13.02216,0.41441"
       id="path3887"
       inkscape:connector-curvature="0"
       sodipodi:nodetypes="csssssssc" />
    <path
       style="fill:none;stroke:#000000;stroke-width:3;stroke-linecap:round;stroke-linejoin:round;stroke-miterlimit:4;stroke-opacity:1;stroke-dasharray:none;stroke-dashoffset:0"
       d="m 809.0926,770.04588 c 0.6543,7.32817 -0.87885,17.03685 -3.32231,26.95926 -2.31528,9.40189 -6.33209,19.82686 -9.99617,24.53782"
       id="path3889"
       inkscape:connector-curvature="0"
       sodipodi:nodetypes="csc" />
    <path
       style="font-size:medium;font-style:normal;font-variant:normal;font-weight:normal;font-stretch:normal;text-indent:0;text-align:start;text-decoration:none;line-height:normal;letter-spacing:normal;word-spacing:normal;text-transform:none;direction:ltr;block-progression:tb;writing-mode:lr-tb;text-anchor:start;baseline-shift:baseline;color:#000000;fill:#000000;fill-opacity:1;stroke:none;stroke-width:3;marker:none;visibility:visible;display:inline;overflow:visible;enable-background:accumulate;font-family:Sans;-inkscape-font-specification:Sans"
       d="m 728.875,671.375 c -5.35275,6.24488 -7.95137,19.13867 -9.5625,35.25 -1.5663,15.66306 -10.36634,46.20048 -14.75,59.75 -2.1053,6.50728 -7.91604,17.16464 -13.375,27.28125 -2.72948,5.0583 -5.35733,10.00042 -7.4375,14.3125 -2.08017,4.31208 -3.60374,7.93494 -4.0625,10.6875 -1.63399,9.80392 -1.28355,19.27606 2.09375,26.875 1.66249,3.74059 1.57561,3.88899 3.36263,5.78431 1.94558,1.85138 4.19121,4.69829 9.06062,5.50775 -2.39761,-1.95636 -3.58867,-3.58992 -4.892,-4.94831 -1.51664,-1.60856 -3.24019,-4.09511 -4.78125,-7.5625 -3.02978,-6.81702 -3.47582,-15.73889 -1.90625,-25.15625 0.34213,-2.05276 1.77561,-5.65263 3.8125,-9.875 2.03689,-4.22237 4.67969,-9.13461 7.40625,-14.1875 5.45312,-10.10578 11.26292,-20.67346 13.5625,-27.78125 4.42608,-13.68064 13.23776,-44.0026 14.875,-60.375 1.59241,-15.92415 4.61711,-28.65746 8.875,-33.625 4.07482,-3.77236 10.16216,-5.19917 15.90555,-6.5625 -4.84126,-1.96434 -15.63029,1.60285 -18.1868,4.625 z"
       id="path3893"
       inkscape:connector-curvature="0"
       sodipodi:nodetypes="csssssscccssssssccc" />
    <path
       style="font-size:medium;font-style:normal;font-variant:normal;font-weight:normal;font-stretch:normal;text-indent:0;text-align:start;text-decoration:none;line-height:normal;letter-spacing:normal;word-spacing:normal;text-transform:none;direction:ltr;block-progression:tb;writing-mode:lr-tb;text-anchor:start;baseline-shift:baseline;color:#000000;fill:#000000;fill-opacity:1;stroke:none;stroke-width:1.5;marker:none;visibility:visible;display:inline;overflow:visible;enable-background:accumulate;font-family:Sans;-inkscape-font-specification:Sans"
       d="m 423.53125,551.59375 c -0.0235,7.01371 1.07113,16.41891 1.88548,20.2037 0.81435,3.78479 2.39441,10.96975 5.61447,16.45255 3.22006,5.4828 6.5395,10.71387 7.875,13.71875 2.84064,6.39131 7.0938,10.65625 7.0938,10.65625 0.27815,0.27821 0.78438,0.27824 1.06256,6e-5 0.27818,-0.27818 -0.33161,-0.78441 -0.60982,-1.06256 0,0 -4.18823,-3.22515 -6.29344,-9.08994 -1.19978,-3.34238 -5.71457,-10.13262 -8.91812,-15.58732 -3.20355,-5.4547 -3.88721,-10.51756 -5.00712,-14.63703 -1.1199,-4.11947 -2.03857,-16.04747 -2.70281,-20.65446 z"
       id="path3901"
       inkscape:connector-curvature="0"
       sodipodi:nodetypes="czsscscsszc" />
    <path
       style="font-size:medium;font-style:normal;font-variant:normal;font-weight:normal;font-stretch:normal;text-indent:0;text-align:start;text-decoration:none;line-height:normal;letter-spacing:normal;word-spacing:normal;text-transform:none;direction:ltr;block-progression:tb;writing-mode:lr-tb;text-anchor:start;baseline-shift:baseline;color:#000000;fill:#000000;fill-opacity:1;stroke:none;stroke-width:1.5;marker:none;visibility:visible;display:inline;overflow:visible;enable-background:accumulate;font-family:Sans;-inkscape-font-specification:Sans"
       d="m 408.9375,555.5 c -0.0126,4.15042 11.02006,23.40974 14.34007,27.29044 5.01881,4.18467 19.39482,31.6818 23.84996,32.80971 -6.52235,-6.07532 -15.25959,-23.3882 -22.63121,-32.76559 -4.6096,-4.96163 -12.915,-21.0494 -15.55882,-27.33456 z"
       id="path3903"
       inkscape:connector-curvature="0"
       sodipodi:nodetypes="ccccc" />
    <path
       style="fill:none;stroke:#000000;stroke-width:1.5;stroke-linecap:round;stroke-linejoin:round;stroke-miterlimit:4;stroke-opacity:1;stroke-dasharray:none;stroke-dashoffset:0"
       d="m 397.91667,621.11218 c 0,0 -15.5618,25.44268 -15.27778,34.02778 0.2856,8.63295 0,13.19444 7.63889,17.36111 7.63889,4.16667 13.88889,-1.38889 16.66666,-4.86111 2.77778,-3.47222 16.66667,-25 18.05556,-30.55556 0,-2.77778 -2.73719,-7.84331 -9.02778,-12.5 -6.29059,-4.65669 -12.3642,-4.03087 -18.05555,-3.47222 z"
       id="path3905"
       inkscape:connector-curvature="0"
       sodipodi:nodetypes="csssczc" />
    <path
       style="fill:none;stroke:#000000;stroke-width:1.5;stroke-linecap:round;stroke-linejoin:round;stroke-miterlimit:4;stroke-opacity:1;stroke-dasharray:none;stroke-dashoffset:0"
       d="m 536.11111,669.72329 c 0,0 0.69445,8.33334 6.94445,11.80556 6.25,3.47222 11.68784,2.17749 13.94774,-0.90631 2.25989,-3.08381 7.52118,-15.21892 4.04896,-26.33003"
       id="path3907"
       inkscape:connector-curvature="0"
       sodipodi:nodetypes="cszc" />
    <path
       style="font-size:medium;font-style:normal;font-variant:normal;font-weight:normal;font-stretch:normal;text-indent:0;text-align:start;text-decoration:none;line-height:normal;letter-spacing:normal;word-spacing:normal;text-transform:none;direction:ltr;block-progression:tb;writing-mode:lr-tb;text-anchor:start;baseline-shift:baseline;color:#000000;fill:#000000;fill-opacity:1;stroke:none;stroke-width:1.5;marker:none;visibility:visible;display:inline;overflow:visible;enable-background:accumulate;font-family:Sans;-inkscape-font-specification:Sans"
       d="m 576.09191,670.57537 c -1.86899,5.62507 -2.29341,11.60146 -2.89054,17.46382 -0.41468,5.69908 -0.61785,11.45059 0.58487,15.88368 1.20272,4.4331 3.48782,6.88229 6.15996,8.75979 3.24613,2.71075 7.41138,4.1331 11.6187,4.23667 3.07792,0.15264 6.97883,-1.07475 9.47267,-3.25584 3.39417,-2.92953 3.73454,-7.46857 4.29789,-11.67849 0.7745,-1.09745 -0.67423,-3.29496 -1.36671,-1.59305 -0.48389,4.04472 -0.11534,8.3155 -2.95693,11.47633 -2.18022,2.40238 -6.4442,3.64071 -9.34637,3.56537 -3.92398,-0.0367 -8.0282,-1.77538 -10.78538,-3.94138 -2.75718,-2.166 -5.3122,-4.73324 -5.85937,-8.51408 -0.54718,-3.78083 -0.43198,-7.39573 -0.68776,-11.72911 0.0956,-6.71389 1.46611,-13.33014 1.78878,-20.0265 l -0.007,-0.35408 -0.0225,-0.29313 z"
       id="path3909"
       inkscape:connector-curvature="0"
       sodipodi:nodetypes="cczccccccczzccccc" />
    <path
       style="fill:none;stroke:#000000;stroke-width:1.5;stroke-linecap:round;stroke-linejoin:round;stroke-miterlimit:4;stroke-opacity:1;stroke-dasharray:none;stroke-dashoffset:0"
       d="m 577.20685,671.33451 c 0,0 6.19236,-4.74308 12.38472,-3.55731 6.19236,1.18577 8.69565,3.55731 9.61792,4.61133"
       id="path3911"
       inkscape:connector-curvature="0" />
    <path
       style="fill:none;stroke:#000000;stroke-width:3;stroke-linecap:round;stroke-linejoin:round;stroke-miterlimit:4;stroke-opacity:1;stroke-dasharray:none;stroke-dashoffset:0"
       d="m 623.05869,661.8706 c 0,0 1e-5,29.37326 -5.18351,48.37949 -5.69062,20.8656 -22.11633,44.92381 -27.99098,52.5263"
       id="path3913"
       inkscape:connector-curvature="0"
       sodipodi:nodetypes="csc" />
    <path
       style="font-size:medium;font-style:normal;font-variant:normal;font-weight:normal;font-stretch:normal;text-indent:0;text-align:start;text-decoration:none;line-height:normal;letter-spacing:normal;word-spacing:normal;text-transform:none;direction:ltr;block-progression:tb;writing-mode:lr-tb;text-anchor:start;baseline-shift:baseline;color:#000000;fill:#000000;fill-opacity:1;stroke:none;stroke-width:1.5;marker:none;visibility:visible;display:inline;overflow:visible;enable-background:accumulate;font-family:Sans;-inkscape-font-specification:Sans"
       d="m 611.53125,592 c -3.91026,7.44227 -5.81684,17.85926 -9.15625,24.02481 -4.46419,7.55479 -14.47555,24.01506 -22.65123,30.26885 -0.35228,0.22078 -1.42394,0.68521 -1.17171,1.01571 0.25222,0.3305 0.79827,0.37841 1.10419,0.0969 8.66288,-6.62645 18.28094,-21.78276 22.80151,-29.43295 1.90564,-3.15045 5.86262,-15.9357 9.07349,-25.9733 z"
       id="path3915"
       inkscape:connector-curvature="0"
       sodipodi:nodetypes="cccscccc" />
    <path
       style="fill:none;stroke:#000000;stroke-width:3;stroke-linecap:round;stroke-linejoin:round;stroke-miterlimit:4;stroke-opacity:1;stroke-dasharray:none;stroke-dashoffset:0"
       d="m 719.12654,593.10261 c 1.38227,-1.0367 19.35179,-14.85941 23.15304,-17.27839 3.80125,-2.41897 28.33656,-19.35179 35.93905,-23.84418 7.60249,-4.49238 45.26938,-22.11633 48.37949,-24.53531 3.11011,-2.41897 54.25414,-29.02769 67.04015,-36.28461 12.786,-7.25693 31.10109,-18.3151 31.10109,-18.3151"
       id="path3919"
       inkscape:connector-curvature="0" />
    <path
       style="fill:none;stroke:#000000;stroke-width:3;stroke-linecap:round;stroke-linejoin:round;stroke-miterlimit:4;stroke-opacity:1;stroke-dasharray:none;stroke-dashoffset:0"
       d="m 267.46946,484.59433 -5.87465,29.02769 c 0,0 -11.40374,40.43143 -14.16828,48.37949 -2.76455,7.94806 -17.62396,48.37949 -19.00623,51.14403 -1.38227,2.76454 -5.18352,12.78601 -6.56579,14.85942 0,0 -22.80747,0.69113 -31.79223,8.63919 -8.98477,7.94806 -16.24169,20.3885 -15.55055,31.44667 0.69113,11.05817 -3.80125,43.8871 -8.6392,51.83516 -4.83795,7.94806 -20.73406,22.11634 -34.55678,18.66066 -13.82271,-3.45567 -25.60945,-7.77095 -29.71882,-26.26315 -3.455682,-15.55054 2.41897,-15.20498 3.80124,-36.63018"
       id="path3921"
       inkscape:connector-curvature="0"
       sodipodi:nodetypes="ccsscsssssc" />
    <path
       style="fill:none;stroke:#000000;stroke-width:3;stroke-linecap:round;stroke-linejoin:round;stroke-miterlimit:4;stroke-opacity:1;stroke-dasharray:none;stroke-dashoffset:0"
       d="m 105.39817,675.00217 c 0,0 2.76454,-5.52908 -3.11011,-14.51384 -5.874651,-8.98477 -6.220219,-19.3518 -5.874651,-27.99099 0.345568,-8.6392 10.021461,-18.66066 12.094871,-27.64543 2.07341,-8.98476 1.10605,-15.8957 -5.87465,-31.1011 -4.902107,-10.6778 -1.74273,-19.33867 2.41897,-32.82893 3.48076,-11.28298 9.33034,-34.21121 -3.11011,-47.34279"
       id="path3923"
       inkscape:connector-curvature="0"
       sodipodi:nodetypes="csssssc" />
    <path
       style="fill:none;stroke:#000000;stroke-width:3;stroke-linecap:round;stroke-linejoin:round;stroke-miterlimit:4;stroke-opacity:1;stroke-dasharray:none;stroke-dashoffset:0"
       d="m 102.28806,492.88796 c 0,0 14.85942,0 19.69736,-9.6759 4.83795,-9.6759 9.33033,-31.44667 16.24169,-42.15927 6.91136,-10.7126 20.3885,-10.7126 27.29985,-19.00623 6.91136,-8.29362 0.55448,-25.36629 13.82271,-39.04915 11.05818,-11.40375 10.71261,-5.87466 20.73407,-13.82272 10.02147,-7.94806 12.4476,-26.0653 20.04293,-30.40996 7.59533,-4.34466 20.73407,-6.91136 31.1011,0 10.36704,6.91135 19.3518,15.89612 21.07964,23.84417 1.72784,7.94806 0.69113,33.17451 -7.25693,41.81371 -7.94806,8.63919 -13.47714,10.7126 -15.89611,25.57201 -2.41898,14.85941 -3.11011,24.53531 1.72783,29.37326 4.83795,4.83795 14.85942,21.50849 16.39657,25.04293"
       id="path3925"
       inkscape:connector-curvature="0"
       sodipodi:nodetypes="cssssszsssssc" />
    <path
       style="fill:none;stroke:#000000;stroke-width:3;stroke-linecap:round;stroke-linejoin:round;stroke-miterlimit:4;stroke-opacity:1;stroke-dasharray:none;stroke-dashoffset:0"
       d="m 107.99351,420.99553 c 0,0 5.35272,-3.09578 7.42613,-7.93373 2.0734,-4.83795 9.33033,-27.64542 15.89611,-33.17451 6.56579,-5.52908 13.13158,-7.94806 19.00623,-8.98476 5.87465,-1.0367 13.47715,-6.56579 19.00623,-13.47714 5.52908,-6.91136 13.47714,-16.24169 22.11634,-20.04293 8.63919,-3.80125 16.58954,-5.72025 22.80747,-6.22022 6.21793,-0.49997 22.67407,0.8317 28.88713,3.98477"
       id="path3927"
       inkscape:connector-curvature="0"
       sodipodi:nodetypes="cssssszc" />
    <path
       style="fill:none;stroke:#000000;stroke-width:3;stroke-linecap:round;stroke-linejoin:round;stroke-miterlimit:4;stroke-opacity:1;stroke-dasharray:none;stroke-dashoffset:0"
       d="m 42.850404,560.61924 c 0,0 1.727839,11.40374 6.911356,17.96952 5.183516,6.56579 7.602491,11.40374 5.529084,18.66066 -2.073407,7.25693 -6.698977,17.92811 -4.492381,29.37326 2.194249,11.38111 5.058059,21.10143 13.822711,32.13781 7.095265,8.93431 2.447655,21.40299 4.492381,32.1378 2.764542,14.51384 9.33033,29.71883 17.278389,35.24791 7.948058,5.52909 9.365175,5.92273 18.315086,9.33033 8.12976,3.09533 19.90237,3.96329 30.2694,3.61773"
       id="path3929"
       inkscape:connector-curvature="0"
       sodipodi:nodetypes="csssssssc" />
    <path
       style="fill:none;stroke:#000000;stroke-width:3;stroke-linecap:round;stroke-linejoin:round;stroke-miterlimit:4;stroke-opacity:1;stroke-dasharray:none;stroke-dashoffset:0"
       d="m 111.80191,422.89974 c 0,0 6.57534,-3.67766 9.49238,-10.87464 2.19032,-5.40401 3.0107,-6.30407 8.6392,-10.02147 5.6285,-3.7174 9.24662,-1.67119 14.16827,1.38227 4.92165,3.05346 10.36703,10.71261 8.6392,20.73407"
       id="path3931"
       inkscape:connector-curvature="0"
       sodipodi:nodetypes="cszzc" />
    <path
       style="fill:none;stroke:#000000;stroke-width:3;stroke-linecap:round;stroke-linejoin:round;stroke-miterlimit:4;stroke-opacity:1;stroke-dasharray:none;stroke-dashoffset:0"
       d="m 152.29995,424.4364 c 0,0 -11.5055,4.45944 -16.83738,12.12401 -5.52909,7.94806 -8.13047,14.9795 -9.6759,20.3885 -2.76454,9.67589 -4.1347,19.59951 -7.93325,25.79252 -4.22994,6.89631 -17.03647,9.6759 -19.021036,9.45539"
       id="path3933"
       inkscape:connector-curvature="0"
       sodipodi:nodetypes="csssc" />
    <path
       style="fill:none;stroke:#000000;stroke-width:3;stroke-linecap:round;stroke-linejoin:round;stroke-miterlimit:4;stroke-opacity:1;stroke-dasharray:none;stroke-dashoffset:0"
       d="m 97.450113,494.61579 c 0,0 9.330327,11.05817 8.293617,17.27839 -1.0367,6.22022 0.69114,15.89612 -3.1101,23.49861 -3.801246,7.60249 -8.293628,15.89612 -7.94806,23.49861 0.345568,7.60249 5.87466,16.93282 5.52908,26.26315 -0.323827,8.74309 -3.780022,12.08973 -8.63919,16.24169 -6.858278,5.86012 -10.918442,8.56723 -19.351795,7.94806 -7.399737,-0.54328 -9.33033,-2.07341 -11.058169,-10.71261 -1.727839,-8.63919 2.418975,-10.36703 -4.837949,-18.66066 -7.256923,-8.29362 -8.293626,-13.8227 -8.984762,-17.96952"
       id="path3935"
       inkscape:connector-curvature="0"
       sodipodi:nodetypes="cssssssssc" />
    <path
       style="fill:none;stroke:#000000;stroke-width:3;stroke-linecap:round;stroke-linejoin:round;stroke-miterlimit:4;stroke-opacity:1;stroke-dasharray:none;stroke-dashoffset:0"
       d="m 68.767987,405.45931 c 0,0 -2.090772,-0.38376 2.764542,-0.69113 4.855314,-0.30737 63.930041,30.75553 63.930041,30.75553"
       id="path3937"
       inkscape:connector-curvature="0"
       sodipodi:nodetypes="czc" />
    <path
       style="fill:none;stroke:#000000;stroke-width:3;stroke-linecap:round;stroke-linejoin:round;stroke-miterlimit:4;stroke-opacity:1;stroke-dasharray:none;stroke-dashoffset:0"
       d="m 72.223665,406.84158 c 0,0 -1.727839,8.63919 -1.382271,14.51385 0.345568,5.87465 2.418974,29.37326 1.727839,32.48337 10.712601,-2.07341 10.021465,-3.80125 15.896117,1.0367 5.874652,4.83795 9.33033,12.78601 7.602491,19.69736 -1.727839,6.91136 -4.492381,12.09488 -14.859414,11.40374 7.602491,9.33033 4.492381,19.69736 1.382271,24.53531 -3.11011,4.83795 -7.256923,6.91136 -13.477143,7.94806 -6.22022,1.0367 -8.639194,-6.56579 -12.094872,-12.44044 -4.837949,5.18352 -14.859414,16.93282 -18.66066,23.15304 -3.801246,6.22022 -10.712601,17.27839 -15.55055,21.07964"
       id="path3939"
       inkscape:connector-curvature="0"
       sodipodi:nodetypes="cscsscsscsc" />
    <path
       style="fill:none;stroke:#000000;stroke-width:3;stroke-linecap:round;stroke-linejoin:round;stroke-miterlimit:4;stroke-opacity:1;stroke-dasharray:none;stroke-dashoffset:0"
       d="m 20.734066,547.1421 c 0,0 -2.073406,3.45567 3.11011,5.18351 5.183517,1.72784 73.605936,29.0277 73.605936,29.0277"
       id="path3941"
       inkscape:connector-curvature="0"
       sodipodi:nodetypes="csc" />
    <path
       style="fill:none;stroke:#000000;stroke-width:3;stroke-linecap:round;stroke-linejoin:round;stroke-miterlimit:4;stroke-opacity:1;stroke-dasharray:none;stroke-dashoffset:0"
       d="M 69.016985,406.28441 -208.57552,292.5184"
       id="path3943"
       inkscape:connector-curvature="0"
       sodipodi:nodetypes="cc" />
    <path
       style="fill:none;stroke:#000000;stroke-width:3;stroke-linecap:round;stroke-linejoin:round;stroke-miterlimit:4;stroke-opacity:1;stroke-dasharray:none;stroke-dashoffset:0;display:inline"
       d="M 22.009038,545.70388 -255.64655,431.99824"
       id="path3943-1"
       inkscape:connector-curvature="0"
       sodipodi:nodetypes="cc" />
    <path
       style="fill:none;stroke:#000000;stroke-width:3;stroke-linecap:round;stroke-linejoin:round;stroke-miterlimit:4;stroke-opacity:1;stroke-dasharray:none;stroke-dashoffset:0"
       d="m 350.99812,537.95987 c 0,0 6.91137,27.15175 -2.962,59.73386 -9.87336,32.5821 -17.77206,34.06311 -33.07577,51.83516"
       id="path3963"
       inkscape:connector-curvature="0"
       sodipodi:nodetypes="csc" />
    <path
       style="font-size:medium;font-style:normal;font-variant:normal;font-weight:normal;font-stretch:normal;text-indent:0;text-align:start;text-decoration:none;line-height:normal;letter-spacing:normal;word-spacing:normal;text-transform:none;direction:ltr;block-progression:tb;writing-mode:lr-tb;text-anchor:start;baseline-shift:baseline;color:#000000;fill:#000000;fill-opacity:1;stroke:none;stroke-width:1.5;marker:none;visibility:visible;display:inline;overflow:visible;enable-background:accumulate;font-family:Sans;-inkscape-font-specification:Sans"
       d="m 586.96875,564 c 0.83846,8.60636 1.94694,17.18361 2.76638,25.79086 0.63043,7.77927 0.9615,15.90211 -2.07998,23.26656 -4.1182,10.48705 -10.71603,18.48164 -13.45916,22.13751 -2.74313,3.65587 -4.17207,4.23036 -9.07825,9.85492 7.02904,-5.29248 17.0954,-16.99555 21.93243,-26.7296 3.17127,-6.36176 4.66673,-13.45333 4.35526,-20.57833 -0.0919,-6.00134 -0.76769,-12.19435 -1.62371,-17.33016 -0.85601,-5.1358 -1.5037,-10.40136 -2.81297,-16.41176 z"
       id="path3965"
       inkscape:connector-curvature="0"
       sodipodi:nodetypes="ccczccczc" />
    <path
       style="font-size:medium;font-style:normal;font-variant:normal;font-weight:normal;font-stretch:normal;text-indent:0;text-align:start;text-decoration:none;line-height:normal;letter-spacing:normal;word-spacing:normal;text-transform:none;direction:ltr;block-progression:tb;writing-mode:lr-tb;text-anchor:start;baseline-shift:baseline;color:#000000;fill:#000000;fill-opacity:1;stroke:none;stroke-width:1.5;marker:none;visibility:visible;display:inline;overflow:visible;enable-background:accumulate;font-family:Sans;-inkscape-font-specification:Sans"
       d="m 373.59375,522.78125 c 0.13239,4.2195 9.86562,21.92417 11.90625,24.8125 5.57145,7.66075 20.84375,27.8125 20.84375,27.8125 0.22078,0.35228 0.76012,0.45017 1.09062,0.19794 0.3305,-0.25222 0.37841,-0.79827 0.0969,-1.10419 0,0 -16.76765,-23.67376 -20.35756,-27.91123 -4.36891,-4.92238 -11.5419,-17.57655 -13.57994,-23.80752 z"
       id="path3967"
       inkscape:connector-curvature="0"
       sodipodi:nodetypes="cccsccc" />
    <path
       sodipodi:nodetypes="cc"
       inkscape:connector-curvature="0"
       id="path3969"
       d="M 74.322777,486.59814 -230.66255,360.51635"
       style="fill:none;stroke:#000000;stroke-width:1;stroke-linecap:round;stroke-linejoin:round;stroke-miterlimit:4;stroke-opacity:1;stroke-dasharray:none;stroke-dashoffset:0" />
    <path
       style="fill:none;stroke:#000000;stroke-width:2;stroke-linecap:round;stroke-linejoin:round;stroke-miterlimit:4;stroke-opacity:1;stroke-dasharray:none;stroke-dashoffset:0"
       d="m 82.993542,576.56691 c 0,0 -3.608415,7.73231 -3.092927,15.98012 0.515488,8.2478 0,6.18585 4.123903,12.88719"
       id="path3971"
       inkscape:connector-curvature="0"
       sodipodi:nodetypes="csc" />
    <path
       style="fill:none;stroke:#000000;stroke-width:2;stroke-linecap:round;stroke-linejoin:round;stroke-miterlimit:4;stroke-opacity:1;stroke-dasharray:none;stroke-dashoffset:0"
       d="m 130.95238,432.29416 c 0,0 1.97903,-6.5521 8.84354,-11.22449 5.70018,-3.87988 5.57118,-3.28174 11.56462,-4.42177"
       id="path3973"
       inkscape:connector-curvature="0"
       sodipodi:nodetypes="csc" />
    <path
       style="font-size:medium;font-style:normal;font-variant:normal;font-weight:normal;font-stretch:normal;text-indent:0;text-align:start;text-decoration:none;line-height:normal;letter-spacing:normal;word-spacing:normal;text-transform:none;direction:ltr;block-progression:tb;writing-mode:lr-tb;text-anchor:start;baseline-shift:baseline;color:#000000;fill:#000000;fill-opacity:1;stroke:none;stroke-width:1.5;marker:none;visibility:visible;display:inline;overflow:visible;enable-background:accumulate;font-family:Sans;-inkscape-font-specification:Sans"
       d="m 420.83106,696.76756 c -0.33122,0.0394 -0.61686,0.32503 -0.65625,0.65625 -1.29395,10.21492 -1.82974,11.57935 -2.0625,13.09375 0.52763,5.2821 -0.48726,8.73739 0.625,13.66693 0.13643,-5.27625 0.29451,-9.4354 0.875,-13.44818 0.19925,-1.29637 1.77284,-3.78593 3.07111,-14.03488 -0.20213,-1.8741 -1.40621,0.0251 -1.85236,0.0661 z"
       id="path3977"
       inkscape:connector-curvature="0"
       sodipodi:nodetypes="ccccccc" />
    <path
       style="font-size:medium;font-style:normal;font-variant:normal;font-weight:normal;font-stretch:normal;text-indent:0;text-align:start;text-decoration:none;line-height:normal;letter-spacing:normal;word-spacing:normal;text-transform:none;direction:ltr;block-progression:tb;writing-mode:lr-tb;text-anchor:start;baseline-shift:baseline;color:#000000;fill:#000000;fill-opacity:1;stroke:none;stroke-width:1.5;marker:none;visibility:visible;display:inline;overflow:visible;enable-background:accumulate;font-family:Sans;-inkscape-font-specification:Sans"
       d="m 510.5625,720.125 c -0.26865,0.0423 -1.74122,0.50243 -1.82859,0.75997 -3.3086,9.88088 -1.4888,8.34169 -3.23391,12.24003 -1.51881,5.43791 -2.36414,7.38138 -5.72943,12.25116 2.98492,-1.95536 5.83595,-8.24883 7.13568,-11.75116 0.52017,-1.44119 0.7177,-2.87977 4.46875,-12.46875 0.20678,-0.49119 -0.28656,-1.11735 -0.8125,-1.03125 z"
       id="path3979"
       inkscape:connector-curvature="0"
       sodipodi:nodetypes="ccccccc" />
    <path
       style="font-size:medium;font-style:normal;font-variant:normal;font-weight:normal;font-stretch:normal;text-indent:0;text-align:start;text-decoration:none;line-height:normal;letter-spacing:normal;word-spacing:normal;text-transform:none;direction:ltr;block-progression:tb;writing-mode:lr-tb;text-anchor:start;baseline-shift:baseline;color:#000000;fill:#000000;fill-opacity:1;stroke:none;stroke-width:1.5;marker:none;visibility:visible;display:inline;overflow:visible;enable-background:accumulate;font-family:Sans;-inkscape-font-specification:Sans"
       d="m 582.36231,467.67381 c 2.05288,3.96694 3.52591,5.66796 4.69448,7.12001 2.99164,3.1213 3.12114,3.53568 7.43235,6.71565 4.31121,3.17997 14.2158,6.41388 20.12879,7.07593 5.91299,0.66205 11.96475,3.76714 19.80773,7.66412 -4.89712,-4.83822 -16.57852,-8.71433 -21.73267,-9.2393 -5.15414,-0.52497 -7.18498,-1.34193 -11.19353,-3.01358 -9.70038,-3.39477 -16.64063,-13.46567 -19.13715,-16.32283 z"
       id="path3981"
       inkscape:connector-curvature="0"
       sodipodi:nodetypes="cczzczcc" />
    <path
       style="font-size:medium;font-style:normal;font-variant:normal;font-weight:normal;font-stretch:normal;text-indent:0;text-align:start;text-decoration:none;line-height:normal;letter-spacing:normal;word-spacing:normal;text-transform:none;direction:ltr;block-progression:tb;writing-mode:lr-tb;text-anchor:start;baseline-shift:baseline;color:#000000;fill:#000000;fill-opacity:1;stroke:none;stroke-width:1.5;marker:none;visibility:visible;display:inline;overflow:visible;enable-background:accumulate;font-family:Sans;-inkscape-font-specification:Sans"
       d="m 675.90625,485.28125 c -3.38089,10.2646 -5.16655,20.14205 -4.78481,27.46523 0.38174,7.32319 1.32724,8.98026 2.65485,14.83726 1.32761,5.857 1.30219,21.40292 -0.70175,31.66442 0.24606,2.25925 -4.29135,14.00974 -2.13958,10.02947 3.27013,-4.97849 3.84925,-11.05988 4.82819,-16.78736 1.18562,-9.52124 -0.32814,-24.67475 -2.33274,-29.84635 -2.0046,-5.17161 -1.81113,-13.81061 -1.10663,-18.57627 0.7045,-4.76567 0.81375,-6.00975 1.6388,-9.03745 0.71989,-3.23497 1.46013,-6.46785 1.94363,-9.74895 z"
       id="path3983"
       inkscape:connector-curvature="0"
       sodipodi:nodetypes="czzccczzccc" />
    <path
       style="font-size:medium;font-style:normal;font-variant:normal;font-weight:normal;font-stretch:normal;text-indent:0;text-align:start;text-decoration:none;line-height:normal;letter-spacing:normal;word-spacing:normal;text-transform:none;direction:ltr;block-progression:tb;writing-mode:lr-tb;text-anchor:start;baseline-shift:baseline;color:#000000;fill:#000000;fill-opacity:1;stroke:none;stroke-width:1.5;marker:none;visibility:visible;display:inline;overflow:visible;enable-background:accumulate;font-family:Sans;-inkscape-font-specification:Sans"
       d="m 710.39351,582.14256 c -0.19358,5.97789 -0.59075,11.25453 -1.625,14.84375 -1.2075,2.22942 -2.185,5.80476 -2.9374,8.9375 -0.7643,3.18216 -1.25,5.84375 -1.25,5.84375 -0.10964,0.39784 0.17674,0.85836 0.58204,0.93597 0.40531,0.0776 0.84157,-0.24452 0.88666,-0.65472 0,0 0.4658,-2.64632 1.2187,-5.78125 0.753,-3.13493 1.8215,-6.79099 2.875,-8.6875 0.0266,-0.0495 0.0477,-0.10204 0.0626,-0.15625 0.6887,-4.00682 1.52362,-9.50987 0.1874,-15.28125 z"
       id="path3993"
       inkscape:connector-curvature="0"
       sodipodi:nodetypes="ccscsccccc" />
    <path
       style="font-size:medium;font-style:normal;font-variant:normal;font-weight:normal;font-stretch:normal;text-indent:0;text-align:start;text-decoration:none;line-height:normal;letter-spacing:normal;word-spacing:normal;text-transform:none;direction:ltr;block-progression:tb;writing-mode:lr-tb;text-anchor:start;baseline-shift:baseline;color:#000000;fill:#000000;fill-opacity:1;stroke:none;stroke-width:1.5;marker:none;visibility:visible;display:inline;overflow:visible;enable-background:accumulate;font-family:Sans;-inkscape-font-specification:Sans"
       d="m 428.30177,535.24601 c 0.73268,10.56434 5.88447,24.78452 7.21739,29.16456 1.33292,4.38004 1.40432,5.26248 2.95161,9.55023 1.54729,4.28776 4.71807,11.65266 6.78924,18.26042 1.14236,-1.4292 -0.67494,-5.70331 -2.21214,-9.73288 -1.5372,-4.02958 -5.0582,-12.18606 -5.89026,-16.55094 -0.83206,-4.36487 -5.44926,-14.74438 -7.15293,-22.78663 -0.61217,-2.6251 -1.15937,-5.26477 -1.70291,-7.90476 z"
       id="path3995"
       inkscape:connector-curvature="0"
       sodipodi:nodetypes="czzczzcc" />
    <path
       style="font-size:medium;font-style:normal;font-variant:normal;font-weight:normal;font-stretch:normal;text-indent:0;text-align:start;text-decoration:none;line-height:normal;letter-spacing:normal;word-spacing:normal;text-transform:none;direction:ltr;block-progression:tb;writing-mode:lr-tb;text-anchor:start;baseline-shift:baseline;color:#000000;fill:#000000;fill-opacity:1;stroke:none;stroke-width:1.5;marker:none;visibility:visible;display:inline;overflow:visible;enable-background:accumulate;font-family:Sans;-inkscape-font-specification:Sans"
       d="m 271.78579,648.12398 c -2.70722,-0.076 -8.5252,1.4405 -12.73598,2.64358 -6.65555,2.19431 -10.01555,3.98667 -14.82191,6.2297 4.5025,-0.8483 4.46396,-1.04607 5.72816,-1.5422 2.54029,-0.99403 5.82612,-2.54 9.5,-3.25 7.8817,-1.52319 13.00372,-1.17304 13.00372,-1.17304 1.85512,0.09 3.52363,0.12008 3.61362,-0.26445 0.09,-0.38453 -1.21786,-1.72616 -1.60239,-1.81614 0,0 0.022,-0.75141 -2.68522,-0.82745 z"
       id="path4001"
       inkscape:connector-curvature="0"
       sodipodi:nodetypes="ccccscscc" />
    <path
       style="font-size:medium;font-style:normal;font-variant:normal;font-weight:normal;font-stretch:normal;text-indent:0;text-align:start;text-decoration:none;line-height:normal;letter-spacing:normal;word-spacing:normal;text-transform:none;direction:ltr;block-progression:tb;writing-mode:lr-tb;text-anchor:start;baseline-shift:baseline;color:#000000;fill:#000000;fill-opacity:1;stroke:none;stroke-width:1.5;marker:none;visibility:visible;display:inline;overflow:visible;enable-background:accumulate;font-family:Sans;-inkscape-font-specification:Sans"
       d="m 329.67481,651.45506 c -0.16863,0.0301 -0.52093,-1.3748 -1.47736,-0.01 -3.80268,4.21273 -6.16613,7.04441 -7.58514,11.94747 -0.003,0.01 0.003,0.0214 0,0.0312 -0.61936,3.84762 -0.50802,6.92224 -0.5625,12.91693 0.77745,-5.02458 1.04106,-9.56035 2,-12.47943 2.2e-4,-0.0104 2.2e-4,-0.0208 0,-0.0312 1.2739,-4.43501 6.38365,-8.10445 8.38673,-10.85197 2.00308,-2.74752 -0.14463,-1.64068 -0.76173,-1.52303 z"
       id="path4005"
       inkscape:connector-curvature="0"
       sodipodi:nodetypes="ccccccczc" />
    <path
       style="fill:#4d4d4d;fill-opacity:1;stroke:#000000;stroke-width:1.66600001;stroke-linecap:round;stroke-linejoin:round;stroke-miterlimit:4;stroke-opacity:1;stroke-dasharray:none;stroke-dashoffset:0"
       d="m 424.80054,311.64403 1.39379,-2.36982"
       id="path4031"
       inkscape:connector-curvature="0"
       transform="translate(-328.01269,182.45506)"
       sodipodi:nodetypes="cc" />
    <path
       style="fill:none;stroke:#000000;stroke-width:1.16600001;stroke-linecap:round;stroke-linejoin:round;stroke-miterlimit:4;stroke-opacity:1;stroke-dasharray:none;stroke-dashoffset:0"
       d="m 409.46052,269.8423 c 0,0 4.82441,2.49215 7.82791,6.62429 3.00351,4.13213 4.42431,7.27246 4.64805,11.67244 0.22375,4.39997 -3.09827,11.43788 -4.95996,13.16039 -1.91086,1.768 -3.93602,2.10522 -3.93602,2.10522"
       id="path4033"
       inkscape:connector-curvature="0"
       transform="translate(-328.01269,182.45506)"
       sodipodi:nodetypes="czzsc" />
    <path
       style="fill:none;stroke:#000000;stroke-width:1.66600001;stroke-linecap:round;stroke-linejoin:round;stroke-miterlimit:4;stroke-opacity:1;stroke-dasharray:none;stroke-dashoffset:0"
       d="m 397.88091,222.84614 c -0.27604,1.10418 -2.92314,10.67294 -1.47992,23.64021 1.19718,10.7566 1.53158,25.32472 1.53158,25.32472 l 2.75672,0.19843"
       id="path4039"
       inkscape:connector-curvature="0"
       transform="translate(-328.01269,182.45506)"
       sodipodi:nodetypes="cscc" />
    <path
       style="fill:none;stroke:#000000;stroke-width:1.66600001;stroke-linecap:round;stroke-linejoin:round;stroke-miterlimit:4;stroke-opacity:1;stroke-dasharray:none;stroke-dashoffset:0"
       d="m 350.85353,363.80559 c 5.24486,-5.52091 7.07583,-10.00178 12.69808,-18.77108 6.85831,-10.69726 19.32317,-23.46385 19.32317,-23.46385 0,0 2.00901,0.65178 2.83714,2.03201"
       id="path4041"
       inkscape:connector-curvature="0"
       transform="translate(-328.01269,182.45506)"
       sodipodi:nodetypes="cscc" />
    <path
       style="fill:none;stroke:#000000;stroke-width:1.26600003;stroke-linecap:round;stroke-linejoin:round;stroke-miterlimit:4;stroke-opacity:1;stroke-dasharray:none;stroke-dashoffset:0"
       d="m 397.22914,335.37293 c 2.60651,-1.01029 4.96723,-1.52409 9.58461,-6.83545 3.6099,-4.15247 5.12246,-8.71105 4.29433,-15.04881 -0.68797,-5.26508 -3.81878,-8.43269 -3.81878,-8.43269 0.9047,-1.70627 1.34561,-2.05901 1.34561,-2.05901"
       id="path4043"
       inkscape:connector-curvature="0"
       transform="translate(-328.01269,182.45506)"
       sodipodi:nodetypes="csscc" />
  </g>
</svg>
